# MagicaVoxel @ Ephtracy

# group
o Vegetation5

# material
mtllib CountrySide-6-Vegetation5.mtl
usemtl palette

# normals
vn -1 0 0
vn 1 0 0
vn 0 0 1
vn 0 0 -1
vn 0 -1 0
vn 0 1 0

# texcoords
vt 0.771484 0.5
vt 0.783203 0.5
vt 0.791016 0.5
vt 0.794922 0.5

# verts
v -0.4 0.05 0.05
v -0.4 0.05 -0.05
v -0.4 0.35 0.05
v -0.4 0.35 -0.05
v -0.4 0.45 0.05
v -0.4 0.45 -0.05
v -0.3 -0.45 0.05
v -0.3 -0.45 -0.05
v -0.3 -0.35 0.05
v -0.3 -0.35 -0.05
v -0.3 -0.15 0.25
v -0.3 -0.15 0.15
v -0.3 -0.05 0.25
v -0.3 -0.05 0.15
v -0.3 -0.05 0.05
v -0.3 -0.05 -0.05
v -0.3 0.05 0.05
v -0.3 0.05 -0.05
v -0.3 0.05 -0.15
v -0.3 0.25 0.25
v -0.3 0.25 0.15
v -0.3 0.35 0.25
v -0.3 0.35 0.15
v -0.3 0.35 -0.05
v -0.3 0.35 -0.15
v -0.2 -0.45 0.15
v -0.2 -0.45 0.05
v -0.2 -0.45 -0.05
v -0.2 -0.45 -0.25
v -0.2 -0.35 0.15
v -0.2 -0.35 0.05
v -0.2 -0.35 -0.05
v -0.2 -0.35 -0.25
v -0.2 -0.25 -0.15
v -0.2 -0.25 -0.25
v -0.2 -0.25 -0.35
v -0.2 -0.15 0.15
v -0.2 -0.05 0.35
v -0.2 -0.05 0.25
v -0.2 -0.05 0.15
v -0.2 -0.05 0.05
v -0.2 -0.05 -0.05
v -0.2 -0.05 -0.15
v -0.2 -0.05 -0.25
v -0.2 -0.05 -0.35
v -0.2 0.05 0.05
v -0.2 0.05 -0.05
v -0.2 0.05 -0.15
v -0.2 0.05 -0.25
v -0.2 0.05 -0.35
v -0.2 0.15 0.15
v -0.2 0.15 0.05
v -0.2 0.25 0.35
v -0.2 0.25 0.25
v -0.2 0.35 0.25
v -0.2 0.45 0.35
v -0.2 0.45 0.25
v -0.1 -0.45 0.25
v -0.1 -0.45 0.15
v -0.1 -0.45 0.05
v -0.1 -0.45 -0.05
v -0.1 -0.35 0.25
v -0.1 -0.35 0.15
v -0.1 -0.35 0.05
v -0.1 -0.35 -0.05
v -0.1 -0.25 0.35
v -0.1 -0.25 0.25
v -0.1 -0.25 0.15
v -0.1 -0.25 -0.15
v -0.1 -0.25 -0.25
v -0.1 -0.05 0.35
v -0.1 -0.05 0.25
v -0.1 -0.05 0.05
v -0.1 -0.05 -0.05
v -0.1 -0.05 -0.15
v -0.1 -0.05 -0.25
v -0.1 0.05 -0.05
v -0.1 0.05 -0.15
v -0.1 0.05 -0.25
v -0.1 0.05 -0.35
v -0.1 0.15 0.05
v -0.1 0.15 -0.05
v -0.1 0.25 0.05
v -0.1 0.25 -0.05
v -0.1 0.35 -0.25
v -0.1 0.35 -0.35
v 0 -0.35 0.15
v 0 -0.35 0.05
v 0 -0.35 -0.05
v 0 -0.35 -0.15
v 0 -0.25 0.15
v 0 -0.25 -0.15
v 0 -0.15 -0.05
v 0 -0.15 -0.15
v 0 -0.05 0.15
v 0 -0.05 0.05
v 0 0.15 0.15
v 0 0.15 0.05
v 0 0.25 0.15
v 0 0.25 0.05
v 0.1 -0.35 0.05
v 0.1 -0.35 -0.05
v 0.1 -0.25 0.25
v 0.1 -0.25 0.15
v 0.1 -0.15 -0.05
v 0.1 -0.15 -0.15
v 0.1 -0.15 -0.25
v 0.1 -0.05 0.25
v 0.1 -0.05 0.15
v 0.1 -0.05 0.05
v 0.1 -0.05 -0.05
v 0.1 -0.05 -0.15
v 0.1 -0.05 -0.25
v 0.1 0.05 0.25
v 0.1 0.05 0.15
v 0.1 0.05 0.05
v 0.1 0.05 -0.05
v 0.1 0.05 -0.15
v 0.1 0.05 -0.25
v 0.1 0.15 0.25
v 0.1 0.15 0.15
v 0.1 0.15 -0.15
v 0.1 0.15 -0.25
v 0.2 0.05 0.05
v 0.2 0.05 -0.05
v 0.2 0.15 0.25
v 0.2 0.15 0.15
v 0.2 0.35 0.25
v 0.2 0.35 0.15
v 0.2 0.35 0.05
v 0.2 0.35 -0.05
v -0.3 0.05 0.05
v -0.3 0.05 -0.05
v -0.3 0.35 0.05
v -0.3 0.35 -0.05
v -0.3 0.45 0.05
v -0.3 0.45 -0.05
v -0.2 -0.45 0.05
v -0.2 -0.45 -0.05
v -0.2 -0.35 0.05
v -0.2 -0.35 -0.05
v -0.2 -0.15 0.25
v -0.2 -0.15 0.15
v -0.2 -0.05 0.25
v -0.2 -0.05 0.15
v -0.2 -0.05 0.05
v -0.2 -0.05 -0.05
v -0.2 0.05 0.05
v -0.2 0.05 -0.05
v -0.2 0.05 -0.15
v -0.2 0.15 0.15
v -0.2 0.25 0.25
v -0.2 0.25 0.15
v -0.2 0.35 0.25
v -0.2 0.35 0.15
v -0.2 0.35 -0.05
v -0.2 0.35 -0.15
v -0.1 -0.45 -0.15
v -0.1 -0.45 -0.25
v -0.1 -0.35 0.15
v -0.1 -0.35 0.05
v -0.1 -0.35 -0.05
v -0.1 -0.35 -0.15
v -0.1 -0.35 -0.25
v -0.1 -0.25 0.15
v -0.1 -0.25 -0.15
v -0.1 -0.25 -0.25
v -0.1 -0.25 -0.35
v -0.1 -0.05 0.35
v -0.1 -0.05 0.25
v -0.1 -0.05 0.15
v -0.1 -0.05 0.05
v -0.1 -0.05 -0.05
v -0.1 -0.05 -0.15
v -0.1 -0.05 -0.25
v -0.1 -0.05 -0.35
v -0.1 0.05 -0.05
v -0.1 0.05 -0.15
v -0.1 0.05 -0.25
v -0.1 0.05 -0.35
v -0.1 0.15 0.15
v -0.1 0.15 0.05
v -0.1 0.25 0.35
v -0.1 0.25 0.25
v -0.1 0.45 0.35
v -0.1 0.45 0.25
v 0 -0.45 0.25
v 0 -0.45 0.15
v 0 -0.35 0.25
v 0 -0.35 0.15
v 0 -0.35 0.05
v 0 -0.35 -0.05
v 0 -0.25 0.35
v 0 -0.25 0.25
v 0 -0.25 0.15
v 0 -0.25 -0.15
v 0 -0.25 -0.25
v 0 -0.15 -0.05
v 0 -0.15 -0.15
v 0 -0.05 0.35
v 0 -0.05 0.25
v 0 -0.05 0.05
v 0 -0.05 -0.05
v 0 -0.05 -0.15
v 0 -0.05 -0.25
v 0 0.05 -0.15
v 0 0.05 -0.25
v 0 0.05 -0.35
v 0 0.15 0.05
v 0 0.15 -0.05
v 0 0.25 0.05
v 0 0.25 -0.05
v 0 0.35 -0.25
v 0 0.35 -0.35
v 0.1 -0.45 0.15
v 0.1 -0.45 -0.15
v 0.1 -0.35 0.15
v 0.1 -0.35 0.05
v 0.1 -0.35 -0.05
v 0.1 -0.35 -0.15
v 0.1 -0.25 0.15
v 0.1 -0.15 -0.05
v 0.1 -0.15 -0.15
v 0.1 -0.05 0.15
v 0.1 -0.05 0.05
v 0.1 0.05 0.15
v 0.1 0.05 0.05
v 0.1 0.15 0.15
v 0.1 0.15 0.05
v 0.1 0.25 0.15
v 0.1 0.25 0.05
v 0.2 -0.35 0.05
v 0.2 -0.35 -0.05
v 0.2 -0.25 0.25
v 0.2 -0.25 0.15
v 0.2 -0.15 -0.15
v 0.2 -0.15 -0.25
v 0.2 -0.05 0.25
v 0.2 -0.05 0.15
v 0.2 -0.05 0.05
v 0.2 -0.05 -0.05
v 0.2 -0.05 -0.15
v 0.2 -0.05 -0.25
v 0.2 0.05 0.25
v 0.2 0.05 0.15
v 0.2 0.05 0.05
v 0.2 0.05 -0.05
v 0.2 0.05 -0.15
v 0.2 0.05 -0.25
v 0.2 0.15 0.25
v 0.2 0.15 0.15
v 0.2 0.15 -0.15
v 0.2 0.15 -0.25
v 0.3 0.05 0.05
v 0.3 0.05 -0.05
v 0.3 0.15 0.25
v 0.3 0.15 0.15
v 0.3 0.35 0.25
v 0.3 0.35 0.15
v 0.3 0.35 0.05
v 0.3 0.35 -0.05
v -0.2 -0.05 0.35
v -0.2 0.25 0.35
v -0.2 0.45 0.35
v -0.1 -0.25 0.35
v -0.1 -0.05 0.35
v -0.1 0.25 0.35
v -0.1 0.45 0.35
v 0 -0.25 0.35
v 0 -0.05 0.35
v -0.3 -0.15 0.25
v -0.3 -0.05 0.25
v -0.3 0.25 0.25
v -0.3 0.35 0.25
v -0.2 -0.15 0.25
v -0.2 -0.05 0.25
v -0.2 0.25 0.25
v -0.2 0.35 0.25
v -0.1 -0.45 0.25
v -0.1 -0.35 0.25
v -0.1 -0.25 0.25
v 0 -0.45 0.25
v 0 -0.35 0.25
v 0 -0.25 0.25
v 0.1 -0.25 0.25
v 0.1 -0.05 0.25
v 0.1 0.05 0.25
v 0.1 0.15 0.25
v 0.2 -0.25 0.25
v 0.2 -0.05 0.25
v 0.2 0.05 0.25
v 0.2 0.15 0.25
v 0.2 0.35 0.25
v 0.3 0.15 0.25
v 0.3 0.35 0.25
v -0.2 -0.45 0.15
v -0.2 -0.35 0.15
v -0.2 -0.15 0.15
v -0.2 -0.05 0.15
v -0.2 0.15 0.15
v -0.1 -0.45 0.15
v -0.1 -0.35 0.15
v -0.1 -0.25 0.15
v -0.1 -0.05 0.15
v -0.1 0.15 0.15
v 0 -0.45 0.15
v 0 -0.35 0.15
v 0 -0.25 0.15
v 0 -0.05 0.15
v 0 0.15 0.15
v 0 0.25 0.15
v 0.1 -0.45 0.15
v 0.1 -0.35 0.15
v 0.1 -0.25 0.15
v 0.1 -0.05 0.15
v 0.1 0.05 0.15
v 0.1 0.15 0.15
v 0.1 0.25 0.15
v -0.4 0.05 0.05
v -0.4 0.35 0.05
v -0.4 0.45 0.05
v -0.3 -0.45 0.05
v -0.3 -0.35 0.05
v -0.3 -0.05 0.05
v -0.3 0.05 0.05
v -0.3 0.35 0.05
v -0.3 0.45 0.05
v -0.2 -0.45 0.05
v -0.2 -0.35 0.05
v -0.2 -0.05 0.05
v -0.2 0.05 0.05
v -0.1 -0.35 0.05
v -0.1 -0.05 0.05
v -0.1 0.15 0.05
v -0.1 0.25 0.05
v 0 -0.35 0.05
v 0 -0.05 0.05
v 0 0.15 0.05
v 0 0.25 0.05
v 0.1 -0.35 0.05
v 0.1 -0.05 0.05
v 0.1 0.05 0.05
v 0.2 -0.35 0.05
v 0.2 -0.05 0.05
v 0.2 0.05 0.05
v 0.2 0.35 0.05
v 0.3 0.05 0.05
v 0.3 0.35 0.05
v -0.3 0.05 -0.05
v -0.3 0.35 -0.05
v -0.2 -0.45 -0.05
v -0.2 -0.35 -0.05
v -0.2 -0.05 -0.05
v -0.2 0.05 -0.05
v -0.2 0.35 -0.05
v -0.1 -0.45 -0.05
v -0.1 -0.35 -0.05
v -0.1 -0.05 -0.05
v -0.1 0.05 -0.05
v 0 -0.35 -0.05
v 0 -0.15 -0.05
v 0.1 -0.35 -0.05
v 0.1 -0.15 -0.05
v -0.1 -0.25 -0.15
v -0.1 -0.05 -0.15
v -0.1 0.05 -0.15
v 0 -0.25 -0.15
v 0 -0.15 -0.15
v 0 -0.05 -0.15
v 0 0.05 -0.15
v 0.1 -0.15 -0.15
v 0.1 -0.05 -0.15
v 0.1 0.05 -0.15
v 0.1 0.15 -0.15
v 0.2 -0.15 -0.15
v 0.2 -0.05 -0.15
v 0.2 0.05 -0.15
v 0.2 0.15 -0.15
v -0.2 -0.25 -0.25
v -0.2 -0.05 -0.25
v -0.2 0.05 -0.25
v -0.1 -0.25 -0.25
v -0.1 -0.05 -0.25
v -0.1 0.05 -0.25
v -0.1 0.35 -0.25
v 0 0.05 -0.25
v 0 0.35 -0.25
v -0.2 -0.05 0.25
v -0.2 0.25 0.25
v -0.2 0.35 0.25
v -0.2 0.45 0.25
v -0.1 -0.25 0.25
v -0.1 -0.05 0.25
v -0.1 0.25 0.25
v -0.1 0.45 0.25
v 0 -0.25 0.25
v 0 -0.05 0.25
v -0.3 -0.15 0.15
v -0.3 -0.05 0.15
v -0.3 0.25 0.15
v -0.3 0.35 0.15
v -0.2 -0.15 0.15
v -0.2 -0.05 0.15
v -0.2 0.15 0.15
v -0.2 0.25 0.15
v -0.2 0.35 0.15
v -0.1 -0.35 0.15
v -0.1 -0.25 0.15
v 0 -0.35 0.15
v 0 -0.25 0.15
v 0.1 -0.25 0.15
v 0.1 -0.05 0.15
v 0.1 0.05 0.15
v 0.1 0.15 0.15
v 0.2 -0.25 0.15
v 0.2 -0.05 0.15
v 0.2 0.05 0.15
v 0.2 0.15 0.15
v 0.2 0.35 0.15
v 0.3 0.15 0.15
v 0.3 0.35 0.15
v -0.2 -0.45 0.05
v -0.2 -0.35 0.05
v -0.2 -0.05 0.05
v -0.2 0.05 0.05
v -0.2 0.15 0.05
v -0.1 -0.45 0.05
v -0.1 -0.35 0.05
v -0.1 -0.05 0.05
v -0.1 0.15 0.05
v 0 -0.35 0.05
v 0 -0.05 0.05
v 0 0.15 0.05
v 0 0.25 0.05
v 0.1 -0.35 0.05
v 0.1 -0.05 0.05
v 0.1 0.05 0.05
v 0.1 0.15 0.05
v 0.1 0.25 0.05
v -0.4 0.05 -0.05
v -0.4 0.35 -0.05
v -0.4 0.45 -0.05
v -0.3 -0.45 -0.05
v -0.3 -0.35 -0.05
v -0.3 -0.05 -0.05
v -0.3 0.05 -0.05
v -0.3 0.35 -0.05
v -0.3 0.45 -0.05
v -0.2 -0.45 -0.05
v -0.2 -0.35 -0.05
v -0.2 -0.05 -0.05
v -0.2 0.05 -0.05
v -0.1 -0.35 -0.05
v -0.1 -0.05 -0.05
v -0.1 0.05 -0.05
v -0.1 0.15 -0.05
v -0.1 0.25 -0.05
v 0 -0.35 -0.05
v 0 -0.15 -0.05
v 0 -0.05 -0.05
v 0 0.15 -0.05
v 0 0.25 -0.05
v 0.1 -0.35 -0.05
v 0.1 -0.15 -0.05
v 0.1 -0.05 -0.05
v 0.1 0.05 -0.05
v 0.2 -0.35 -0.05
v 0.2 -0.05 -0.05
v 0.2 0.05 -0.05
v 0.2 0.35 -0.05
v 0.3 0.05 -0.05
v 0.3 0.35 -0.05
v -0.3 0.05 -0.15
v -0.3 0.35 -0.15
v -0.2 -0.25 -0.15
v -0.2 -0.05 -0.15
v -0.2 0.05 -0.15
v -0.2 0.35 -0.15
v -0.1 -0.45 -0.15
v -0.1 -0.35 -0.15
v -0.1 -0.25 -0.15
v -0.1 -0.05 -0.15
v -0.1 0.05 -0.15
v 0 -0.35 -0.15
v 0 -0.25 -0.15
v 0 -0.15 -0.15
v 0.1 -0.45 -0.15
v 0.1 -0.35 -0.15
v 0.1 -0.15 -0.15
v -0.2 -0.45 -0.25
v -0.2 -0.35 -0.25
v -0.2 -0.25 -0.25
v -0.1 -0.45 -0.25
v -0.1 -0.35 -0.25
v -0.1 -0.25 -0.25
v -0.1 -0.05 -0.25
v -0.1 0.05 -0.25
v 0 -0.25 -0.25
v 0 -0.05 -0.25
v 0 0.05 -0.25
v 0.1 -0.15 -0.25
v 0.1 -0.05 -0.25
v 0.1 0.05 -0.25
v 0.1 0.15 -0.25
v 0.2 -0.15 -0.25
v 0.2 -0.05 -0.25
v 0.2 0.05 -0.25
v 0.2 0.15 -0.25
v -0.2 -0.25 -0.35
v -0.2 -0.05 -0.35
v -0.2 0.05 -0.35
v -0.1 -0.25 -0.35
v -0.1 -0.05 -0.35
v -0.1 0.05 -0.35
v -0.1 0.35 -0.35
v 0 0.05 -0.35
v 0 0.35 -0.35
v -0.1 -0.45 0.25
v 0 -0.45 0.25
v -0.2 -0.45 0.15
v -0.1 -0.45 0.15
v 0 -0.45 0.15
v 0.1 -0.45 0.15
v -0.3 -0.45 0.05
v -0.2 -0.45 0.05
v -0.1 -0.45 0.05
v -0.3 -0.45 -0.05
v -0.2 -0.45 -0.05
v -0.1 -0.45 -0.05
v -0.1 -0.45 -0.15
v 0.1 -0.45 -0.15
v -0.2 -0.45 -0.25
v -0.1 -0.45 -0.25
v 0.1 -0.35 0.05
v 0.2 -0.35 0.05
v 0.1 -0.35 -0.05
v 0.2 -0.35 -0.05
v -0.1 -0.25 0.35
v 0 -0.25 0.35
v -0.1 -0.25 0.25
v 0 -0.25 0.25
v 0.1 -0.25 0.25
v 0.2 -0.25 0.25
v 0.1 -0.25 0.15
v 0.2 -0.25 0.15
v -0.1 -0.25 -0.15
v 0 -0.25 -0.15
v -0.2 -0.25 -0.25
v -0.1 -0.25 -0.25
v 0 -0.25 -0.25
v -0.2 -0.25 -0.35
v -0.1 -0.25 -0.35
v -0.3 -0.15 0.25
v -0.2 -0.15 0.25
v -0.3 -0.15 0.15
v -0.2 -0.15 0.15
v 0.1 -0.15 -0.15
v 0.2 -0.15 -0.15
v 0.1 -0.15 -0.25
v 0.2 -0.15 -0.25
v -0.2 -0.05 0.35
v -0.1 -0.05 0.35
v -0.2 -0.05 0.25
v -0.1 -0.05 0.25
v -0.4 0.05 0.05
v -0.3 0.05 0.05
v 0.2 0.05 0.05
v 0.3 0.05 0.05
v -0.4 0.05 -0.05
v -0.3 0.05 -0.05
v -0.2 0.05 -0.05
v 0.2 0.05 -0.05
v 0.3 0.05 -0.05
v -0.3 0.05 -0.15
v -0.2 0.05 -0.15
v -0.1 0.05 -0.25
v 0 0.05 -0.25
v -0.1 0.05 -0.35
v 0 0.05 -0.35
v 0.2 0.15 0.25
v 0.3 0.15 0.25
v 0.2 0.15 0.15
v 0.3 0.15 0.15
v -0.1 -0.35 0.15
v 0 -0.35 0.15
v -0.1 -0.35 0.05
v 0 -0.35 0.05
v 0.1 -0.35 0.05
v -0.1 -0.35 -0.05
v 0 -0.35 -0.05
v 0.1 -0.35 -0.05
v -0.1 -0.35 -0.15
v 0 -0.35 -0.15
v -0.1 -0.25 0.25
v 0 -0.25 0.25
v -0.1 -0.25 0.15
v 0 -0.25 0.15
v -0.2 -0.25 -0.15
v -0.1 -0.25 -0.15
v -0.2 -0.25 -0.25
v -0.1 -0.25 -0.25
v 0 -0.15 -0.05
v 0.1 -0.15 -0.05
v 0 -0.15 -0.15
v 0.1 -0.15 -0.15
v -0.1 -0.05 0.35
v 0 -0.05 0.35
v -0.1 -0.05 0.25
v 0 -0.05 0.25
v -0.3 0.05 0.05
v -0.2 0.05 0.05
v 0.1 0.05 0.05
v 0.2 0.05 0.05
v -0.3 0.05 -0.05
v -0.2 0.05 -0.05
v -0.1 0.05 -0.05
v 0.1 0.05 -0.05
v 0.2 0.05 -0.05
v -0.2 0.05 -0.15
v -0.1 0.05 -0.15
v 0 0.05 -0.15
v -0.2 0.05 -0.25
v -0.1 0.05 -0.25
v 0 0.05 -0.25
v -0.2 0.05 -0.35
v -0.1 0.05 -0.35
v 0.1 0.15 0.25
v 0.2 0.15 0.25
v -0.2 0.15 0.15
v -0.1 0.15 0.15
v 0.1 0.15 0.15
v 0.2 0.15 0.15
v -0.2 0.15 0.05
v -0.1 0.15 0.05
v 0.1 0.15 -0.15
v 0.2 0.15 -0.15
v 0.1 0.15 -0.25
v 0.2 0.15 -0.25
v 0 0.25 0.15
v 0.1 0.25 0.15
v -0.1 0.25 0.05
v 0 0.25 0.05
v 0.1 0.25 0.05
v -0.1 0.25 -0.05
v 0 0.25 -0.05
v -0.3 0.35 0.25
v -0.2 0.35 0.25
v 0.2 0.35 0.25
v 0.3 0.35 0.25
v -0.3 0.35 0.15
v -0.2 0.35 0.15
v 0.2 0.35 0.15
v 0.3 0.35 0.15
v 0.2 0.35 0.05
v 0.3 0.35 0.05
v -0.3 0.35 -0.05
v -0.2 0.35 -0.05
v 0.2 0.35 -0.05
v 0.3 0.35 -0.05
v -0.3 0.35 -0.15
v -0.2 0.35 -0.15
v -0.1 0.35 -0.25
v 0 0.35 -0.25
v -0.1 0.35 -0.35
v 0 0.35 -0.35
v -0.2 0.45 0.35
v -0.1 0.45 0.35
v -0.2 0.45 0.25
v -0.1 0.45 0.25
v -0.4 0.45 0.05
v -0.3 0.45 0.05
v -0.4 0.45 -0.05
v -0.3 0.45 -0.05

# faces
f 3/3/1 2/3/1 1/3/1
f 4/3/1 2/3/1 3/3/1
f 5/4/1 4/4/1 3/4/1
f 6/4/1 4/4/1 5/4/1
f 9/1/1 8/1/1 7/1/1
f 10/1/1 8/1/1 9/1/1
f 13/2/1 12/2/1 11/2/1
f 14/2/1 12/2/1 13/2/1
f 15/2/1 10/2/1 9/2/1
f 16/2/1 10/2/1 15/2/1
f 17/3/1 16/3/1 15/3/1
f 18/3/1 16/3/1 17/3/1
f 20/3/1 14/3/1 13/3/1
f 21/3/1 14/3/1 20/3/1
f 22/4/1 21/4/1 20/4/1
f 23/4/1 21/4/1 22/4/1
f 24/3/1 19/3/1 18/3/1
f 25/3/1 19/3/1 24/3/1
f 30/1/1 27/1/1 26/1/1
f 31/1/1 27/1/1 30/1/1
f 32/1/1 29/1/1 28/1/1
f 33/1/1 29/1/1 32/1/1
f 34/2/1 33/2/1 32/2/1
f 35/2/1 33/2/1 34/2/1
f 37/2/1 31/2/1 30/2/1
f 40/2/1 31/2/1 37/2/1
f 41/2/1 31/2/1 40/2/1
f 42/2/1 34/2/1 32/2/1
f 43/2/1 34/2/1 42/2/1
f 44/2/1 36/2/1 35/2/1
f 45/2/1 36/2/1 44/2/1
f 46/3/1 41/3/1 40/3/1
f 47/3/1 43/3/1 42/3/1
f 48/3/1 43/3/1 47/3/1
f 49/3/1 45/3/1 44/3/1
f 50/3/1 45/3/1 49/3/1
f 51/3/1 46/3/1 40/3/1
f 52/3/1 46/3/1 51/3/1
f 53/3/1 39/3/1 38/3/1
f 54/3/1 39/3/1 53/3/1
f 55/4/1 54/4/1 53/4/1
f 56/4/1 55/4/1 53/4/1
f 57/4/1 55/4/1 56/4/1
f 62/1/1 59/1/1 58/1/1
f 63/1/1 59/1/1 62/1/1
f 64/1/1 61/1/1 60/1/1
f 65/1/1 61/1/1 64/1/1
f 67/2/1 63/2/1 62/2/1
f 68/2/1 63/2/1 67/2/1
f 71/2/1 67/2/1 66/2/1
f 72/2/1 67/2/1 71/2/1
f 73/2/1 65/2/1 64/2/1
f 74/2/1 65/2/1 73/2/1
f 75/2/1 70/2/1 69/2/1
f 76/2/1 70/2/1 75/2/1
f 77/3/1 74/3/1 73/3/1
f 78/3/1 76/3/1 75/3/1
f 79/3/1 76/3/1 78/3/1
f 81/3/1 77/3/1 73/3/1
f 82/3/1 77/3/1 81/3/1
f 83/4/1 82/4/1 81/4/1
f 84/4/1 82/4/1 83/4/1
f 85/4/1 80/4/1 79/4/1
f 86/4/1 80/4/1 85/4/1
f 91/2/1 88/2/1 87/2/1
f 92/2/1 90/2/1 89/2/1
f 93/2/1 92/2/1 89/2/1
f 94/2/1 92/2/1 93/2/1
f 95/2/1 88/2/1 91/2/1
f 96/2/1 88/2/1 95/2/1
f 97/3/1 96/3/1 95/3/1
f 98/3/1 96/3/1 97/3/1
f 99/4/1 98/4/1 97/4/1
f 100/4/1 98/4/1 99/4/1
f 105/2/1 102/2/1 101/2/1
f 108/2/1 104/2/1 103/2/1
f 109/2/1 104/2/1 108/2/1
f 110/2/1 105/2/1 101/2/1
f 111/2/1 105/2/1 110/2/1
f 112/2/1 107/2/1 106/2/1
f 113/2/1 107/2/1 112/2/1
f 114/3/1 109/3/1 108/3/1
f 115/3/1 109/3/1 114/3/1
f 116/3/1 111/3/1 110/3/1
f 117/3/1 111/3/1 116/3/1
f 118/3/1 113/3/1 112/3/1
f 119/3/1 113/3/1 118/3/1
f 120/4/1 115/4/1 114/4/1
f 121/4/1 115/4/1 120/4/1
f 122/4/1 119/4/1 118/4/1
f 123/4/1 119/4/1 122/4/1
f 128/4/1 127/4/1 126/4/1
f 129/4/1 127/4/1 128/4/1
f 130/3/1 125/3/1 124/3/1
f 131/3/1 125/3/1 130/3/1
f 132/3/2 133/3/2 134/3/2
f 134/3/2 133/3/2 135/3/2
f 134/4/2 135/4/2 136/4/2
f 136/4/2 135/4/2 137/4/2
f 138/1/2 139/1/2 140/1/2
f 140/1/2 139/1/2 141/1/2
f 142/2/2 143/2/2 144/2/2
f 144/2/2 143/2/2 145/2/2
f 140/2/2 141/2/2 146/2/2
f 146/2/2 141/2/2 147/2/2
f 146/3/2 147/3/2 148/3/2
f 148/3/2 147/3/2 149/3/2
f 144/3/2 145/3/2 151/3/2
f 144/3/2 151/3/2 152/3/2
f 152/3/2 151/3/2 153/3/2
f 152/4/2 153/4/2 154/4/2
f 154/4/2 153/4/2 155/4/2
f 149/3/2 150/3/2 156/3/2
f 156/3/2 150/3/2 157/3/2
f 158/1/2 159/1/2 163/1/2
f 163/1/2 159/1/2 164/1/2
f 160/2/2 161/2/2 165/2/2
f 162/2/2 163/2/2 166/2/2
f 163/2/2 164/2/2 166/2/2
f 166/2/2 164/2/2 167/2/2
f 165/2/2 161/2/2 171/2/2
f 171/2/2 161/2/2 172/2/2
f 162/2/2 166/2/2 173/2/2
f 173/2/2 166/2/2 174/2/2
f 167/2/2 168/2/2 175/2/2
f 175/2/2 168/2/2 176/2/2
f 173/3/2 174/3/2 177/3/2
f 177/3/2 174/3/2 178/3/2
f 175/3/2 176/3/2 179/3/2
f 179/3/2 176/3/2 180/3/2
f 171/3/2 172/3/2 181/3/2
f 181/3/2 172/3/2 182/3/2
f 169/3/2 170/3/2 183/3/2
f 183/3/2 170/3/2 184/3/2
f 183/4/2 184/4/2 185/4/2
f 185/4/2 184/4/2 186/4/2
f 187/1/2 188/1/2 189/1/2
f 189/1/2 188/1/2 190/1/2
f 189/2/2 190/2/2 194/2/2
f 194/2/2 190/2/2 195/2/2
f 191/2/2 192/2/2 198/2/2
f 196/2/2 197/2/2 199/2/2
f 193/2/2 194/2/2 200/2/2
f 200/2/2 194/2/2 201/2/2
f 191/2/2 198/2/2 202/2/2
f 202/2/2 198/2/2 203/2/2
f 199/2/2 197/2/2 204/2/2
f 204/2/2 197/2/2 205/2/2
f 204/3/2 205/3/2 206/3/2
f 206/3/2 205/3/2 207/3/2
f 202/3/2 203/3/2 209/3/2
f 209/3/2 203/3/2 210/3/2
f 209/4/2 210/4/2 211/4/2
f 211/4/2 210/4/2 212/4/2
f 207/4/2 208/4/2 213/4/2
f 213/4/2 208/4/2 214/4/2
f 215/1/2 216/1/2 217/1/2
f 217/1/2 216/1/2 218/1/2
f 218/1/2 216/1/2 219/1/2
f 219/1/2 216/1/2 220/1/2
f 217/2/2 218/2/2 221/2/2
f 219/2/2 220/2/2 222/2/2
f 222/2/2 220/2/2 223/2/2
f 221/2/2 218/2/2 224/2/2
f 224/2/2 218/2/2 225/2/2
f 224/3/2 225/3/2 226/3/2
f 226/3/2 225/3/2 227/3/2
f 226/3/2 227/3/2 228/3/2
f 228/3/2 227/3/2 229/3/2
f 228/4/2 229/4/2 230/4/2
f 230/4/2 229/4/2 231/4/2
f 234/2/2 235/2/2 238/2/2
f 238/2/2 235/2/2 239/2/2
f 232/2/2 233/2/2 240/2/2
f 240/2/2 233/2/2 241/2/2
f 236/2/2 237/2/2 242/2/2
f 242/2/2 237/2/2 243/2/2
f 238/3/2 239/3/2 244/3/2
f 244/3/2 239/3/2 245/3/2
f 240/3/2 241/3/2 246/3/2
f 246/3/2 241/3/2 247/3/2
f 242/3/2 243/3/2 248/3/2
f 248/3/2 243/3/2 249/3/2
f 244/4/2 245/4/2 250/4/2
f 250/4/2 245/4/2 251/4/2
f 248/4/2 249/4/2 252/4/2
f 252/4/2 249/4/2 253/4/2
f 256/4/2 257/4/2 258/4/2
f 258/4/2 257/4/2 259/4/2
f 254/3/2 255/3/2 260/3/2
f 260/3/2 255/3/2 261/3/2
f 266/3/3 263/3/3 262/3/3
f 267/4/3 264/4/3 263/4/3
f 267/3/3 263/3/3 266/3/3
f 268/4/3 264/4/3 267/4/3
f 269/2/3 266/2/3 265/2/3
f 270/2/3 266/2/3 269/2/3
f 275/2/3 272/2/3 271/2/3
f 276/3/3 273/3/3 272/3/3
f 276/2/3 272/2/3 275/2/3
f 277/4/3 274/4/3 273/4/3
f 277/3/3 273/3/3 276/3/3
f 278/4/3 274/4/3 277/4/3
f 282/1/3 280/1/3 279/1/3
f 283/2/3 281/2/3 280/2/3
f 283/1/3 280/1/3 282/1/3
f 284/2/3 281/2/3 283/2/3
f 289/2/3 286/2/3 285/2/3
f 290/3/3 287/3/3 286/3/3
f 290/2/3 286/2/3 289/2/3
f 291/4/3 288/4/3 287/4/3
f 291/3/3 287/3/3 290/3/3
f 292/4/3 288/4/3 291/4/3
f 294/4/3 293/4/3 292/4/3
f 295/4/3 293/4/3 294/4/3
f 301/1/3 297/1/3 296/1/3
f 302/2/3 298/2/3 297/2/3
f 302/1/3 297/1/3 301/1/3
f 302/2/3 299/2/3 298/2/3
f 303/2/3 299/2/3 302/2/3
f 304/3/3 300/3/3 299/3/3
f 304/2/3 299/2/3 303/2/3
f 305/3/3 300/3/3 304/3/3
f 312/1/3 307/1/3 306/1/3
f 313/2/3 308/2/3 307/2/3
f 313/1/3 307/1/3 312/1/3
f 313/2/3 309/2/3 308/2/3
f 314/2/3 309/2/3 313/2/3
f 315/3/3 310/3/3 309/3/3
f 315/2/3 309/2/3 314/2/3
f 316/3/3 310/3/3 315/3/3
f 317/4/3 311/4/3 310/4/3
f 317/3/3 310/3/3 316/3/3
f 318/4/3 311/4/3 317/4/3
f 325/3/3 320/3/3 319/3/3
f 326/4/3 321/4/3 320/4/3
f 326/3/3 320/3/3 325/3/3
f 327/4/3 321/4/3 326/4/3
f 328/1/3 323/1/3 322/1/3
f 329/2/3 324/2/3 323/2/3
f 329/1/3 323/1/3 328/1/3
f 330/3/3 325/3/3 324/3/3
f 330/2/3 324/2/3 329/2/3
f 331/3/3 325/3/3 330/3/3
f 336/2/3 333/2/3 332/2/3
f 337/3/3 334/3/3 333/3/3
f 337/2/3 333/2/3 336/2/3
f 338/4/3 335/4/3 334/4/3
f 338/3/3 334/3/3 337/3/3
f 339/4/3 335/4/3 338/4/3
f 343/2/3 341/2/3 340/2/3
f 344/3/3 342/3/3 341/3/3
f 344/2/3 341/2/3 343/2/3
f 345/3/3 342/3/3 344/3/3
f 347/3/3 346/3/3 345/3/3
f 348/3/3 346/3/3 347/3/3
f 354/3/3 350/3/3 349/3/3
f 355/3/3 350/3/3 354/3/3
f 356/1/3 352/1/3 351/1/3
f 357/2/3 353/2/3 352/2/3
f 357/1/3 352/1/3 356/1/3
f 358/3/3 354/3/3 353/3/3
f 358/2/3 353/2/3 357/2/3
f 359/3/3 354/3/3 358/3/3
f 362/2/3 361/2/3 360/2/3
f 363/2/3 361/2/3 362/2/3
f 367/2/3 365/2/3 364/2/3
f 368/2/3 365/2/3 367/2/3
f 369/3/3 366/3/3 365/3/3
f 369/2/3 365/2/3 368/2/3
f 370/3/3 366/3/3 369/3/3
f 375/2/3 372/2/3 371/2/3
f 376/3/3 373/3/3 372/3/3
f 376/2/3 372/2/3 375/2/3
f 377/4/3 374/4/3 373/4/3
f 377/3/3 373/3/3 376/3/3
f 378/4/3 374/4/3 377/4/3
f 382/2/3 380/2/3 379/2/3
f 383/3/3 381/3/3 380/3/3
f 383/2/3 380/2/3 382/2/3
f 384/3/3 381/3/3 383/3/3
f 386/4/3 385/4/3 384/4/3
f 387/4/3 385/4/3 386/4/3
f 388/3/4 389/3/4 393/3/4
f 390/4/4 391/4/4 394/4/4
f 389/4/4 390/4/4 394/4/4
f 393/3/4 389/3/4 394/3/4
f 394/4/4 391/4/4 395/4/4
f 392/2/4 393/2/4 396/2/4
f 396/2/4 393/2/4 397/2/4
f 398/2/4 399/2/4 402/2/4
f 399/3/4 400/3/4 403/3/4
f 402/2/4 399/2/4 403/2/4
f 403/3/4 400/3/4 404/3/4
f 400/4/4 401/4/4 405/4/4
f 404/3/4 400/3/4 405/3/4
f 405/4/4 401/4/4 406/4/4
f 407/2/4 408/2/4 409/2/4
f 409/2/4 408/2/4 410/2/4
f 411/2/4 412/2/4 415/2/4
f 412/3/4 413/3/4 416/3/4
f 415/2/4 412/2/4 416/2/4
f 413/4/4 414/4/4 417/4/4
f 416/3/4 413/3/4 417/3/4
f 417/4/4 414/4/4 418/4/4
f 418/4/4 419/4/4 420/4/4
f 420/4/4 419/4/4 421/4/4
f 422/1/4 423/1/4 427/1/4
f 423/2/4 424/2/4 428/2/4
f 427/1/4 423/1/4 428/1/4
f 425/3/4 426/3/4 429/3/4
f 428/2/4 424/2/4 429/2/4
f 424/3/4 425/3/4 429/3/4
f 429/3/4 426/3/4 430/3/4
f 431/2/4 432/2/4 435/2/4
f 432/3/4 433/3/4 436/3/4
f 435/2/4 432/2/4 436/2/4
f 436/3/4 433/3/4 437/3/4
f 433/4/4 434/4/4 438/4/4
f 437/3/4 433/3/4 438/3/4
f 438/4/4 434/4/4 439/4/4
f 440/3/4 441/3/4 446/3/4
f 441/4/4 442/4/4 447/4/4
f 446/3/4 441/3/4 447/3/4
f 447/4/4 442/4/4 448/4/4
f 443/1/4 444/1/4 449/1/4
f 444/2/4 445/2/4 450/2/4
f 449/1/4 444/1/4 450/1/4
f 445/3/4 446/3/4 451/3/4
f 450/2/4 445/2/4 451/2/4
f 451/3/4 446/3/4 452/3/4
f 453/2/4 454/2/4 458/2/4
f 458/2/4 454/2/4 459/2/4
f 454/3/4 455/3/4 460/3/4
f 459/2/4 454/2/4 460/2/4
f 455/3/4 456/3/4 460/3/4
f 456/4/4 457/4/4 461/4/4
f 460/3/4 456/3/4 461/3/4
f 461/4/4 457/4/4 462/4/4
f 463/2/4 464/2/4 467/2/4
f 464/2/4 465/2/4 467/2/4
f 465/3/4 466/3/4 468/3/4
f 467/2/4 465/2/4 468/2/4
f 468/3/4 466/3/4 469/3/4
f 469/3/4 470/3/4 471/3/4
f 471/3/4 470/3/4 472/3/4
f 473/3/4 474/3/4 477/3/4
f 477/3/4 474/3/4 478/3/4
f 475/2/4 476/2/4 481/2/4
f 476/3/4 477/3/4 482/3/4
f 481/2/4 476/2/4 482/2/4
f 482/3/4 477/3/4 483/3/4
f 479/1/4 480/1/4 484/1/4
f 479/1/4 484/1/4 487/1/4
f 485/2/4 486/2/4 488/2/4
f 487/1/4 484/1/4 488/1/4
f 484/2/4 485/2/4 488/2/4
f 488/2/4 486/2/4 489/2/4
f 490/1/4 491/1/4 493/1/4
f 491/2/4 492/2/4 494/2/4
f 493/1/4 491/1/4 494/1/4
f 494/2/4 492/2/4 495/2/4
f 495/2/4 496/2/4 498/2/4
f 496/3/4 497/3/4 499/3/4
f 498/2/4 496/2/4 499/2/4
f 499/3/4 497/3/4 500/3/4
f 501/2/4 502/2/4 505/2/4
f 502/3/4 503/3/4 506/3/4
f 505/2/4 502/2/4 506/2/4
f 503/4/4 504/4/4 507/4/4
f 506/3/4 503/3/4 507/3/4
f 507/4/4 504/4/4 508/4/4
f 509/2/4 510/2/4 512/2/4
f 510/3/4 511/3/4 513/3/4
f 512/2/4 510/2/4 513/2/4
f 513/3/4 511/3/4 514/3/4
f 514/4/4 515/4/4 516/4/4
f 516/4/4 515/4/4 517/4/4
f 521/1/5 519/1/5 518/1/5
f 522/1/5 519/1/5 521/1/5
f 525/1/5 521/1/5 520/1/5
f 525/1/5 523/1/5 522/1/5
f 525/1/5 522/1/5 521/1/5
f 526/1/5 523/1/5 525/1/5
f 527/1/5 525/1/5 524/1/5
f 528/1/5 525/1/5 527/1/5
f 529/1/5 523/1/5 526/1/5
f 530/1/5 529/1/5 528/1/5
f 530/1/5 523/1/5 529/1/5
f 531/1/5 523/1/5 530/1/5
f 532/1/5 530/1/5 528/1/5
f 533/1/5 530/1/5 532/1/5
f 536/2/5 535/2/5 534/2/5
f 537/2/5 535/2/5 536/2/5
f 540/2/5 539/2/5 538/2/5
f 541/2/5 539/2/5 540/2/5
f 544/2/5 543/2/5 542/2/5
f 545/2/5 543/2/5 544/2/5
f 549/2/5 547/2/5 546/2/5
f 550/2/5 547/2/5 549/2/5
f 551/2/5 549/2/5 548/2/5
f 552/2/5 549/2/5 551/2/5
f 555/2/5 554/2/5 553/2/5
f 556/2/5 554/2/5 555/2/5
f 559/2/5 558/2/5 557/2/5
f 560/2/5 558/2/5 559/2/5
f 563/3/5 562/3/5 561/3/5
f 564/3/5 562/3/5 563/3/5
f 569/3/5 566/3/5 565/3/5
f 570/3/5 566/3/5 569/3/5
f 572/3/5 568/3/5 567/3/5
f 573/3/5 568/3/5 572/3/5
f 574/3/5 571/3/5 570/3/5
f 575/3/5 571/3/5 574/3/5
f 578/4/5 577/4/5 576/4/5
f 579/4/5 577/4/5 578/4/5
f 582/4/5 581/4/5 580/4/5
f 583/4/5 581/4/5 582/4/5
f 584/1/6 585/1/6 586/1/6
f 586/1/6 585/1/6 587/1/6
f 587/1/6 588/1/6 590/1/6
f 590/1/6 588/1/6 591/1/6
f 589/1/6 590/1/6 592/1/6
f 592/1/6 590/1/6 593/1/6
f 594/2/6 595/2/6 596/2/6
f 596/2/6 595/2/6 597/2/6
f 598/2/6 599/2/6 600/2/6
f 600/2/6 599/2/6 601/2/6
f 602/2/6 603/2/6 604/2/6
f 604/2/6 603/2/6 605/2/6
f 606/2/6 607/2/6 608/2/6
f 608/2/6 607/2/6 609/2/6
f 610/3/6 611/3/6 614/3/6
f 614/3/6 611/3/6 615/3/6
f 612/3/6 613/3/6 617/3/6
f 617/3/6 613/3/6 618/3/6
f 615/3/6 616/3/6 619/3/6
f 619/3/6 616/3/6 620/3/6
f 620/3/6 621/3/6 623/3/6
f 623/3/6 621/3/6 624/3/6
f 622/3/6 623/3/6 625/3/6
f 625/3/6 623/3/6 626/3/6
f 627/4/6 628/4/6 631/4/6
f 631/4/6 628/4/6 632/4/6
f 629/3/6 630/3/6 633/3/6
f 633/3/6 630/3/6 634/3/6
f 635/4/6 636/4/6 637/4/6
f 637/4/6 636/4/6 638/4/6
f 639/4/6 640/4/6 642/4/6
f 642/4/6 640/4/6 643/4/6
f 641/4/6 642/4/6 644/4/6
f 644/4/6 642/4/6 645/4/6
f 646/4/6 647/4/6 650/4/6
f 650/4/6 647/4/6 651/4/6
f 648/4/6 649/4/6 652/4/6
f 652/4/6 649/4/6 653/4/6
f 654/3/6 655/3/6 658/3/6
f 658/3/6 655/3/6 659/3/6
f 656/3/6 657/3/6 660/3/6
f 660/3/6 657/3/6 661/3/6
f 662/4/6 663/4/6 664/4/6
f 664/4/6 663/4/6 665/4/6
f 666/4/6 667/4/6 668/4/6
f 668/4/6 667/4/6 669/4/6
f 670/4/6 671/4/6 672/4/6
f 672/4/6 671/4/6 673/4/6
