# MagicaVoxel @ Ephtracy

# group
o Vegetation4

# material
mtllib CountrySide-7-Vegetation4.mtl
usemtl palette

# normals
vn -1 0 0
vn 1 0 0
vn 0 0 1
vn 0 0 -1
vn 0 -1 0
vn 0 1 0

# texcoords
vt 0.771484 0.5
vt 0.783203 0.5
vt 0.791016 0.5
vt 0.794922 0.5

# verts
v -0.3 -0.45 0.05
v -0.3 -0.45 -0.05
v -0.3 -0.35 0.05
v -0.3 -0.35 -0.05
v -0.3 -0.15 0.25
v -0.3 -0.15 0.15
v -0.3 -0.05 0.25
v -0.3 -0.05 0.15
v -0.3 -0.05 0.05
v -0.3 -0.05 -0.05
v -0.3 0.05 0.25
v -0.3 0.05 0.15
v -0.3 0.05 0.05
v -0.3 0.05 -0.05
v -0.3 0.05 -0.15
v -0.3 0.35 -0.05
v -0.3 0.35 -0.15
v -0.2 -0.45 0.15
v -0.2 -0.45 0.05
v -0.2 -0.45 -0.15
v -0.2 -0.45 -0.25
v -0.2 -0.35 0.15
v -0.2 -0.35 0.05
v -0.2 -0.35 -0.15
v -0.2 -0.35 -0.25
v -0.2 -0.25 -0.05
v -0.2 -0.25 -0.15
v -0.2 -0.25 -0.25
v -0.2 -0.25 -0.35
v -0.2 -0.15 0.15
v -0.2 -0.05 0.15
v -0.2 -0.05 0.05
v -0.2 -0.05 -0.05
v -0.2 -0.05 -0.15
v -0.2 -0.05 -0.25
v -0.2 -0.05 -0.35
v -0.2 0.05 0.15
v -0.2 0.05 0.05
v -0.2 0.05 -0.05
v -0.2 0.05 -0.15
v -0.2 0.05 -0.25
v -0.2 0.05 -0.35
v -0.2 0.15 0.15
v -0.2 0.15 0.05
v -0.1 -0.45 0.25
v -0.1 -0.45 0.15
v -0.1 -0.45 -0.05
v -0.1 -0.45 -0.15
v -0.1 -0.35 0.25
v -0.1 -0.35 0.15
v -0.1 -0.35 -0.05
v -0.1 -0.35 -0.15
v -0.1 -0.25 0.35
v -0.1 -0.25 0.25
v -0.1 -0.25 0.15
v -0.1 -0.25 -0.15
v -0.1 -0.25 -0.25
v -0.1 -0.05 0.35
v -0.1 -0.05 0.25
v -0.1 -0.05 -0.15
v -0.1 -0.05 -0.25
v -0.1 0.05 -0.15
v -0.1 0.05 -0.25
v 0 -0.45 0.05
v 0 -0.45 -0.05
v 0 -0.35 0.05
v 0 -0.35 -0.05
v 0 -0.35 -0.15
v 0 -0.25 -0.15
v 0 -0.15 -0.05
v 0 -0.15 -0.15
v 0.1 -0.35 0.05
v 0.1 -0.35 -0.05
v 0.1 -0.15 -0.05
v 0.1 -0.15 -0.15
v 0.1 -0.15 -0.25
v 0.1 -0.05 0.05
v 0.1 -0.05 -0.05
v 0.1 -0.05 -0.15
v 0.1 -0.05 -0.25
v 0.1 0.05 0.05
v 0.1 0.05 -0.05
v 0.1 0.05 -0.15
v 0.1 0.05 -0.25
v 0.1 0.15 -0.15
v 0.1 0.15 -0.25
v -0.2 -0.45 0.05
v -0.2 -0.45 -0.05
v -0.2 -0.35 0.05
v -0.2 -0.35 -0.05
v -0.2 -0.25 -0.05
v -0.2 -0.15 0.25
v -0.2 -0.15 0.15
v -0.2 -0.05 0.25
v -0.2 -0.05 0.15
v -0.2 -0.05 0.05
v -0.2 -0.05 -0.05
v -0.2 0.05 0.25
v -0.2 0.05 0.15
v -0.2 0.05 0.05
v -0.2 0.05 -0.05
v -0.2 0.05 -0.15
v -0.2 0.35 -0.05
v -0.2 0.35 -0.15
v -0.1 -0.45 0.15
v -0.1 -0.45 0.05
v -0.1 -0.45 -0.15
v -0.1 -0.45 -0.25
v -0.1 -0.35 0.15
v -0.1 -0.35 0.05
v -0.1 -0.35 -0.15
v -0.1 -0.35 -0.25
v -0.1 -0.25 0.15
v -0.1 -0.25 -0.05
v -0.1 -0.25 -0.15
v -0.1 -0.25 -0.25
v -0.1 -0.25 -0.35
v -0.1 -0.05 0.15
v -0.1 -0.05 0.05
v -0.1 -0.05 -0.05
v -0.1 -0.05 -0.15
v -0.1 -0.05 -0.25
v -0.1 -0.05 -0.35
v -0.1 0.05 -0.05
v -0.1 0.05 -0.15
v -0.1 0.05 -0.25
v -0.1 0.05 -0.35
v -0.1 0.15 0.15
v -0.1 0.15 0.05
v 0 -0.45 0.25
v 0 -0.45 0.15
v 0 -0.35 0.25
v 0 -0.35 0.15
v 0 -0.25 0.35
v 0 -0.25 0.25
v 0 -0.25 0.15
v 0 -0.25 -0.15
v 0 -0.25 -0.25
v 0 -0.15 -0.15
v 0 -0.05 0.35
v 0 -0.05 0.25
v 0 -0.05 -0.15
v 0 -0.05 -0.25
v 0 0.05 -0.15
v 0 0.05 -0.25
v 0.1 -0.45 0.05
v 0.1 -0.45 -0.15
v 0.1 -0.35 0.05
v 0.1 -0.35 -0.05
v 0.1 -0.35 -0.15
v 0.1 -0.15 -0.05
v 0.1 -0.15 -0.15
v 0.2 -0.35 0.05
v 0.2 -0.35 -0.05
v 0.2 -0.15 -0.15
v 0.2 -0.15 -0.25
v 0.2 -0.05 0.05
v 0.2 -0.05 -0.05
v 0.2 -0.05 -0.15
v 0.2 -0.05 -0.25
v 0.2 0.05 0.05
v 0.2 0.05 -0.05
v 0.2 0.05 -0.15
v 0.2 0.05 -0.25
v 0.2 0.15 -0.15
v 0.2 0.15 -0.25
v -0.1 -0.25 0.35
v -0.1 -0.05 0.35
v 0 -0.25 0.35
v 0 -0.05 0.35
v -0.3 -0.15 0.25
v -0.3 -0.05 0.25
v -0.3 0.05 0.25
v -0.2 -0.15 0.25
v -0.2 -0.05 0.25
v -0.2 0.05 0.25
v -0.1 -0.45 0.25
v -0.1 -0.35 0.25
v -0.1 -0.25 0.25
v 0 -0.45 0.25
v 0 -0.35 0.25
v 0 -0.25 0.25
v -0.2 -0.45 0.15
v -0.2 -0.35 0.15
v -0.2 -0.15 0.15
v -0.2 -0.05 0.15
v -0.2 0.05 0.15
v -0.2 0.15 0.15
v -0.1 -0.45 0.15
v -0.1 -0.35 0.15
v -0.1 -0.25 0.15
v -0.1 -0.05 0.15
v -0.1 0.15 0.15
v -0.3 -0.45 0.05
v -0.3 -0.35 0.05
v -0.3 -0.05 0.05
v -0.3 0.05 0.05
v -0.2 -0.45 0.05
v -0.2 -0.35 0.05
v -0.2 -0.05 0.05
v -0.2 0.05 0.05
v 0 -0.45 0.05
v 0 -0.35 0.05
v 0.1 -0.45 0.05
v 0.1 -0.35 0.05
v 0.1 -0.05 0.05
v 0.1 0.05 0.05
v 0.2 -0.35 0.05
v 0.2 -0.05 0.05
v 0.2 0.05 0.05
v -0.3 0.05 -0.05
v -0.3 0.35 -0.05
v -0.2 -0.25 -0.05
v -0.2 -0.05 -0.05
v -0.2 0.05 -0.05
v -0.2 0.35 -0.05
v -0.1 -0.45 -0.05
v -0.1 -0.35 -0.05
v -0.1 -0.25 -0.05
v -0.1 -0.05 -0.05
v -0.1 0.05 -0.05
v 0 -0.45 -0.05
v 0 -0.35 -0.05
v 0 -0.15 -0.05
v 0.1 -0.35 -0.05
v 0.1 -0.15 -0.05
v -0.2 -0.45 -0.15
v -0.2 -0.35 -0.15
v -0.2 -0.25 -0.15
v -0.1 -0.45 -0.15
v -0.1 -0.35 -0.15
v -0.1 -0.25 -0.15
v -0.1 -0.05 -0.15
v -0.1 0.05 -0.15
v 0 -0.25 -0.15
v 0 -0.15 -0.15
v 0 -0.05 -0.15
v 0 0.05 -0.15
v 0.1 -0.15 -0.15
v 0.1 -0.05 -0.15
v 0.1 0.05 -0.15
v 0.1 0.15 -0.15
v 0.2 -0.15 -0.15
v 0.2 -0.05 -0.15
v 0.2 0.05 -0.15
v 0.2 0.15 -0.15
v -0.2 -0.25 -0.25
v -0.2 -0.05 -0.25
v -0.2 0.05 -0.25
v -0.1 -0.25 -0.25
v -0.1 -0.05 -0.25
v -0.1 0.05 -0.25
v -0.1 -0.25 0.25
v -0.1 -0.05 0.25
v 0 -0.25 0.25
v 0 -0.05 0.25
v -0.3 -0.15 0.15
v -0.3 -0.05 0.15
v -0.3 0.05 0.15
v -0.2 -0.15 0.15
v -0.2 -0.05 0.15
v -0.2 0.05 0.15
v -0.1 -0.45 0.15
v -0.1 -0.35 0.15
v -0.1 -0.25 0.15
v 0 -0.45 0.15
v 0 -0.35 0.15
v 0 -0.25 0.15
v -0.2 -0.45 0.05
v -0.2 -0.35 0.05
v -0.2 -0.05 0.05
v -0.2 0.05 0.05
v -0.2 0.15 0.05
v -0.1 -0.45 0.05
v -0.1 -0.35 0.05
v -0.1 -0.05 0.05
v -0.1 0.15 0.05
v -0.3 -0.45 -0.05
v -0.3 -0.35 -0.05
v -0.3 -0.05 -0.05
v -0.3 0.05 -0.05
v -0.2 -0.45 -0.05
v -0.2 -0.35 -0.05
v -0.2 -0.25 -0.05
v -0.2 -0.05 -0.05
v -0.2 0.05 -0.05
v 0.1 -0.35 -0.05
v 0.1 -0.15 -0.05
v 0.1 -0.05 -0.05
v 0.1 0.05 -0.05
v 0.2 -0.35 -0.05
v 0.2 -0.05 -0.05
v 0.2 0.05 -0.05
v -0.3 0.05 -0.15
v -0.3 0.35 -0.15
v -0.2 -0.25 -0.15
v -0.2 -0.05 -0.15
v -0.2 0.05 -0.15
v -0.2 0.35 -0.15
v -0.1 -0.45 -0.15
v -0.1 -0.35 -0.15
v -0.1 -0.25 -0.15
v -0.1 -0.05 -0.15
v -0.1 0.05 -0.15
v 0 -0.35 -0.15
v 0 -0.25 -0.15
v 0 -0.15 -0.15
v 0.1 -0.45 -0.15
v 0.1 -0.35 -0.15
v 0.1 -0.15 -0.15
v -0.2 -0.45 -0.25
v -0.2 -0.35 -0.25
v -0.2 -0.25 -0.25
v -0.1 -0.45 -0.25
v -0.1 -0.35 -0.25
v -0.1 -0.25 -0.25
v -0.1 -0.05 -0.25
v -0.1 0.05 -0.25
v 0 -0.25 -0.25
v 0 -0.05 -0.25
v 0 0.05 -0.25
v 0.1 -0.15 -0.25
v 0.1 -0.05 -0.25
v 0.1 0.05 -0.25
v 0.1 0.15 -0.25
v 0.2 -0.15 -0.25
v 0.2 -0.05 -0.25
v 0.2 0.05 -0.25
v 0.2 0.15 -0.25
v -0.2 -0.25 -0.35
v -0.2 -0.05 -0.35
v -0.2 0.05 -0.35
v -0.1 -0.25 -0.35
v -0.1 -0.05 -0.35
v -0.1 0.05 -0.35
v -0.1 -0.45 0.25
v 0 -0.45 0.25
v -0.2 -0.45 0.15
v -0.1 -0.45 0.15
v 0 -0.45 0.15
v -0.3 -0.45 0.05
v -0.2 -0.45 0.05
v -0.1 -0.45 0.05
v 0 -0.45 0.05
v 0.1 -0.45 0.05
v -0.3 -0.45 -0.05
v -0.2 -0.45 -0.05
v -0.1 -0.45 -0.05
v 0 -0.45 -0.05
v -0.2 -0.45 -0.15
v -0.1 -0.45 -0.15
v 0.1 -0.45 -0.15
v -0.2 -0.45 -0.25
v -0.1 -0.45 -0.25
v 0.1 -0.35 0.05
v 0.2 -0.35 0.05
v 0.1 -0.35 -0.05
v 0.2 -0.35 -0.05
v -0.1 -0.25 0.35
v 0 -0.25 0.35
v -0.1 -0.25 0.25
v 0 -0.25 0.25
v -0.2 -0.25 -0.05
v -0.1 -0.25 -0.05
v -0.2 -0.25 -0.15
v -0.1 -0.25 -0.15
v 0 -0.25 -0.15
v -0.2 -0.25 -0.25
v -0.1 -0.25 -0.25
v 0 -0.25 -0.25
v -0.2 -0.25 -0.35
v -0.1 -0.25 -0.35
v -0.3 -0.15 0.25
v -0.2 -0.15 0.25
v -0.3 -0.15 0.15
v -0.2 -0.15 0.15
v 0.1 -0.15 -0.15
v 0.2 -0.15 -0.15
v 0.1 -0.15 -0.25
v 0.2 -0.15 -0.25
v -0.3 0.05 -0.05
v -0.2 0.05 -0.05
v -0.3 0.05 -0.15
v -0.2 0.05 -0.15
v 0 -0.35 0.05
v 0.1 -0.35 0.05
v -0.1 -0.35 -0.05
v 0 -0.35 -0.05
v 0.1 -0.35 -0.05
v -0.1 -0.35 -0.15
v 0 -0.35 -0.15
v -0.1 -0.25 0.25
v 0 -0.25 0.25
v -0.1 -0.25 0.15
v 0 -0.25 0.15
v -0.2 -0.25 -0.15
v -0.1 -0.25 -0.15
v -0.2 -0.25 -0.25
v -0.1 -0.25 -0.25
v 0 -0.15 -0.05
v 0.1 -0.15 -0.05
v 0 -0.15 -0.15
v 0.1 -0.15 -0.15
v -0.1 -0.05 0.35
v 0 -0.05 0.35
v -0.1 -0.05 0.25
v 0 -0.05 0.25
v -0.3 0.05 0.25
v -0.2 0.05 0.25
v -0.3 0.05 0.15
v -0.2 0.05 0.15
v -0.3 0.05 0.05
v -0.2 0.05 0.05
v 0.1 0.05 0.05
v 0.2 0.05 0.05
v -0.3 0.05 -0.05
v -0.2 0.05 -0.05
v -0.1 0.05 -0.05
v 0.1 0.05 -0.05
v 0.2 0.05 -0.05
v -0.2 0.05 -0.15
v -0.1 0.05 -0.15
v 0 0.05 -0.15
v -0.2 0.05 -0.25
v -0.1 0.05 -0.25
v 0 0.05 -0.25
v -0.2 0.05 -0.35
v -0.1 0.05 -0.35
v -0.2 0.15 0.15
v -0.1 0.15 0.15
v -0.2 0.15 0.05
v -0.1 0.15 0.05
v 0.1 0.15 -0.15
v 0.2 0.15 -0.15
v 0.1 0.15 -0.25
v 0.2 0.15 -0.25
v -0.3 0.35 -0.05
v -0.2 0.35 -0.05
v -0.3 0.35 -0.15
v -0.2 0.35 -0.15

# faces
f 3/1/1 2/1/1 1/1/1
f 4/1/1 2/1/1 3/1/1
f 7/2/1 6/2/1 5/2/1
f 8/2/1 6/2/1 7/2/1
f 9/2/1 4/2/1 3/2/1
f 10/2/1 4/2/1 9/2/1
f 11/3/1 8/3/1 7/3/1
f 12/3/1 8/3/1 11/3/1
f 13/3/1 10/3/1 9/3/1
f 14/3/1 10/3/1 13/3/1
f 16/3/1 15/3/1 14/3/1
f 17/3/1 15/3/1 16/3/1
f 22/1/1 19/1/1 18/1/1
f 23/1/1 19/1/1 22/1/1
f 24/1/1 21/1/1 20/1/1
f 25/1/1 21/1/1 24/1/1
f 27/2/1 25/2/1 24/2/1
f 28/2/1 25/2/1 27/2/1
f 30/2/1 23/2/1 22/2/1
f 31/2/1 23/2/1 30/2/1
f 32/2/1 23/2/1 31/2/1
f 33/2/1 27/2/1 26/2/1
f 34/2/1 27/2/1 33/2/1
f 35/2/1 29/2/1 28/2/1
f 36/2/1 29/2/1 35/2/1
f 37/3/1 32/3/1 31/3/1
f 38/3/1 32/3/1 37/3/1
f 39/3/1 34/3/1 33/3/1
f 40/3/1 34/3/1 39/3/1
f 41/3/1 36/3/1 35/3/1
f 42/3/1 36/3/1 41/3/1
f 43/3/1 38/3/1 37/3/1
f 44/3/1 38/3/1 43/3/1
f 49/1/1 46/1/1 45/1/1
f 50/1/1 46/1/1 49/1/1
f 51/1/1 48/1/1 47/1/1
f 52/1/1 48/1/1 51/1/1
f 54/2/1 50/2/1 49/2/1
f 55/2/1 50/2/1 54/2/1
f 58/2/1 54/2/1 53/2/1
f 59/2/1 54/2/1 58/2/1
f 60/2/1 57/2/1 56/2/1
f 61/2/1 57/2/1 60/2/1
f 62/3/1 61/3/1 60/3/1
f 63/3/1 61/3/1 62/3/1
f 66/1/1 65/1/1 64/1/1
f 67/1/1 65/1/1 66/1/1
f 69/2/1 68/2/1 67/2/1
f 70/2/1 69/2/1 67/2/1
f 71/2/1 69/2/1 70/2/1
f 74/2/1 73/2/1 72/2/1
f 77/2/1 74/2/1 72/2/1
f 78/2/1 74/2/1 77/2/1
f 79/2/1 76/2/1 75/2/1
f 80/2/1 76/2/1 79/2/1
f 81/3/1 78/3/1 77/3/1
f 82/3/1 78/3/1 81/3/1
f 83/3/1 80/3/1 79/3/1
f 84/3/1 80/3/1 83/3/1
f 85/4/1 84/4/1 83/4/1
f 86/4/1 84/4/1 85/4/1
f 87/1/2 88/1/2 89/1/2
f 89/1/2 88/1/2 90/1/2
f 89/2/2 90/2/2 91/2/2
f 92/2/2 93/2/2 94/2/2
f 94/2/2 93/2/2 95/2/2
f 89/2/2 91/2/2 96/2/2
f 96/2/2 91/2/2 97/2/2
f 94/3/2 95/3/2 98/3/2
f 98/3/2 95/3/2 99/3/2
f 96/3/2 97/3/2 100/3/2
f 100/3/2 97/3/2 101/3/2
f 101/3/2 102/3/2 103/3/2
f 103/3/2 102/3/2 104/3/2
f 105/1/2 106/1/2 109/1/2
f 109/1/2 106/1/2 110/1/2
f 107/1/2 108/1/2 111/1/2
f 111/1/2 108/1/2 112/1/2
f 109/2/2 110/2/2 113/2/2
f 111/2/2 112/2/2 115/2/2
f 115/2/2 112/2/2 116/2/2
f 113/2/2 110/2/2 118/2/2
f 118/2/2 110/2/2 119/2/2
f 114/2/2 115/2/2 120/2/2
f 120/2/2 115/2/2 121/2/2
f 116/2/2 117/2/2 122/2/2
f 122/2/2 117/2/2 123/2/2
f 120/3/2 121/3/2 124/3/2
f 124/3/2 121/3/2 125/3/2
f 122/3/2 123/3/2 126/3/2
f 126/3/2 123/3/2 127/3/2
f 118/3/2 119/3/2 128/3/2
f 128/3/2 119/3/2 129/3/2
f 130/1/2 131/1/2 132/1/2
f 132/1/2 131/1/2 133/1/2
f 132/2/2 133/2/2 135/2/2
f 135/2/2 133/2/2 136/2/2
f 137/2/2 138/2/2 139/2/2
f 134/2/2 135/2/2 140/2/2
f 140/2/2 135/2/2 141/2/2
f 139/2/2 138/2/2 142/2/2
f 142/2/2 138/2/2 143/2/2
f 142/3/2 143/3/2 144/3/2
f 144/3/2 143/3/2 145/3/2
f 146/1/2 147/1/2 148/1/2
f 148/1/2 147/1/2 149/1/2
f 149/1/2 147/1/2 150/1/2
f 149/2/2 150/2/2 151/2/2
f 151/2/2 150/2/2 152/2/2
f 153/2/2 154/2/2 157/2/2
f 157/2/2 154/2/2 158/2/2
f 155/2/2 156/2/2 159/2/2
f 159/2/2 156/2/2 160/2/2
f 157/3/2 158/3/2 161/3/2
f 161/3/2 158/3/2 162/3/2
f 159/3/2 160/3/2 163/3/2
f 163/3/2 160/3/2 164/3/2
f 163/4/2 164/4/2 165/4/2
f 165/4/2 164/4/2 166/4/2
f 169/2/3 168/2/3 167/2/3
f 170/2/3 168/2/3 169/2/3
f 174/2/3 172/2/3 171/2/3
f 175/3/3 173/3/3 172/3/3
f 175/2/3 172/2/3 174/2/3
f 176/3/3 173/3/3 175/3/3
f 180/1/3 178/1/3 177/1/3
f 181/2/3 179/2/3 178/2/3
f 181/1/3 178/1/3 180/1/3
f 182/2/3 179/2/3 181/2/3
f 189/1/3 184/1/3 183/1/3
f 190/2/3 185/2/3 184/2/3
f 190/1/3 184/1/3 189/1/3
f 190/2/3 186/2/3 185/2/3
f 191/2/3 186/2/3 190/2/3
f 192/3/3 188/3/3 187/3/3
f 192/2/3 186/2/3 191/2/3
f 192/3/3 187/3/3 186/3/3
f 193/3/3 188/3/3 192/3/3
f 198/1/3 195/1/3 194/1/3
f 199/2/3 196/2/3 195/2/3
f 199/1/3 195/1/3 198/1/3
f 200/3/3 197/3/3 196/3/3
f 200/2/3 196/2/3 199/2/3
f 201/3/3 197/3/3 200/3/3
f 204/1/3 203/1/3 202/1/3
f 205/1/3 203/1/3 204/1/3
f 208/2/3 206/2/3 205/2/3
f 209/3/3 207/3/3 206/3/3
f 209/2/3 206/2/3 208/2/3
f 210/3/3 207/3/3 209/3/3
f 215/3/3 212/3/3 211/3/3
f 216/3/3 212/3/3 215/3/3
f 219/2/3 214/2/3 213/2/3
f 220/3/3 215/3/3 214/3/3
f 220/2/3 214/2/3 219/2/3
f 221/3/3 215/3/3 220/3/3
f 222/1/3 218/1/3 217/1/3
f 223/1/3 218/1/3 222/1/3
f 225/2/3 224/2/3 223/2/3
f 226/2/3 224/2/3 225/2/3
f 230/1/3 228/1/3 227/1/3
f 231/2/3 229/2/3 228/2/3
f 231/1/3 228/1/3 230/1/3
f 232/2/3 229/2/3 231/2/3
f 235/2/3 233/2/3 232/2/3
f 236/2/3 233/2/3 235/2/3
f 237/3/3 234/3/3 233/3/3
f 237/2/3 233/2/3 236/2/3
f 238/3/3 234/3/3 237/3/3
f 243/2/3 240/2/3 239/2/3
f 244/3/3 241/3/3 240/3/3
f 244/2/3 240/2/3 243/2/3
f 245/4/3 242/4/3 241/4/3
f 245/3/3 241/3/3 244/3/3
f 246/4/3 242/4/3 245/4/3
f 250/2/3 248/2/3 247/2/3
f 251/3/3 249/3/3 248/3/3
f 251/2/3 248/2/3 250/2/3
f 252/3/3 249/3/3 251/3/3
f 253/2/4 254/2/4 255/2/4
f 255/2/4 254/2/4 256/2/4
f 257/2/4 258/2/4 260/2/4
f 258/3/4 259/3/4 261/3/4
f 260/2/4 258/2/4 261/2/4
f 261/3/4 259/3/4 262/3/4
f 263/1/4 264/1/4 266/1/4
f 264/2/4 265/2/4 267/2/4
f 266/1/4 264/1/4 267/1/4
f 267/2/4 265/2/4 268/2/4
f 269/1/4 270/1/4 274/1/4
f 270/2/4 271/2/4 275/2/4
f 274/1/4 270/1/4 275/1/4
f 272/3/4 273/3/4 276/3/4
f 275/2/4 271/2/4 276/2/4
f 271/3/4 272/3/4 276/3/4
f 276/3/4 273/3/4 277/3/4
f 278/1/4 279/1/4 282/1/4
f 279/2/4 280/2/4 283/2/4
f 282/1/4 279/1/4 283/1/4
f 283/2/4 280/2/4 284/2/4
f 280/3/4 281/3/4 285/3/4
f 284/2/4 280/2/4 285/2/4
f 285/3/4 281/3/4 286/3/4
f 287/2/4 288/2/4 291/2/4
f 288/2/4 289/2/4 291/2/4
f 289/3/4 290/3/4 292/3/4
f 291/2/4 289/2/4 292/2/4
f 292/3/4 290/3/4 293/3/4
f 294/3/4 295/3/4 298/3/4
f 298/3/4 295/3/4 299/3/4
f 296/2/4 297/2/4 302/2/4
f 297/3/4 298/3/4 303/3/4
f 302/2/4 297/2/4 303/2/4
f 303/3/4 298/3/4 304/3/4
f 300/1/4 301/1/4 305/1/4
f 300/1/4 305/1/4 308/1/4
f 306/2/4 307/2/4 309/2/4
f 308/1/4 305/1/4 309/1/4
f 305/2/4 306/2/4 309/2/4
f 309/2/4 307/2/4 310/2/4
f 311/1/4 312/1/4 314/1/4
f 312/2/4 313/2/4 315/2/4
f 314/1/4 312/1/4 315/1/4
f 315/2/4 313/2/4 316/2/4
f 316/2/4 317/2/4 319/2/4
f 317/3/4 318/3/4 320/3/4
f 319/2/4 317/2/4 320/2/4
f 320/3/4 318/3/4 321/3/4
f 322/2/4 323/2/4 326/2/4
f 323/3/4 324/3/4 327/3/4
f 326/2/4 323/2/4 327/2/4
f 324/4/4 325/4/4 328/4/4
f 327/3/4 324/3/4 328/3/4
f 328/4/4 325/4/4 329/4/4
f 330/2/4 331/2/4 333/2/4
f 331/3/4 332/3/4 334/3/4
f 333/2/4 331/2/4 334/2/4
f 334/3/4 332/3/4 335/3/4
f 339/1/5 337/1/5 336/1/5
f 340/1/5 337/1/5 339/1/5
f 342/1/5 339/1/5 338/1/5
f 343/1/5 339/1/5 342/1/5
f 346/1/5 342/1/5 341/1/5
f 347/1/5 342/1/5 346/1/5
f 349/1/5 345/1/5 344/1/5
f 351/1/5 349/1/5 348/1/5
f 352/1/5 345/1/5 349/1/5
f 352/1/5 349/1/5 351/1/5
f 353/1/5 351/1/5 350/1/5
f 354/1/5 351/1/5 353/1/5
f 357/2/5 356/2/5 355/2/5
f 358/2/5 356/2/5 357/2/5
f 361/2/5 360/2/5 359/2/5
f 362/2/5 360/2/5 361/2/5
f 365/2/5 364/2/5 363/2/5
f 366/2/5 364/2/5 365/2/5
f 369/2/5 367/2/5 366/2/5
f 370/2/5 367/2/5 369/2/5
f 371/2/5 369/2/5 368/2/5
f 372/2/5 369/2/5 371/2/5
f 375/2/5 374/2/5 373/2/5
f 376/2/5 374/2/5 375/2/5
f 379/2/5 378/2/5 377/2/5
f 380/2/5 378/2/5 379/2/5
f 383/3/5 382/3/5 381/3/5
f 384/3/5 382/3/5 383/3/5
f 385/1/6 386/1/6 388/1/6
f 388/1/6 386/1/6 389/1/6
f 387/1/6 388/1/6 390/1/6
f 390/1/6 388/1/6 391/1/6
f 392/2/6 393/2/6 394/2/6
f 394/2/6 393/2/6 395/2/6
f 396/2/6 397/2/6 398/2/6
f 398/2/6 397/2/6 399/2/6
f 400/2/6 401/2/6 402/2/6
f 402/2/6 401/2/6 403/2/6
f 404/2/6 405/2/6 406/2/6
f 406/2/6 405/2/6 407/2/6
f 408/3/6 409/3/6 410/3/6
f 410/3/6 409/3/6 411/3/6
f 412/3/6 413/3/6 416/3/6
f 416/3/6 413/3/6 417/3/6
f 414/3/6 415/3/6 419/3/6
f 419/3/6 415/3/6 420/3/6
f 417/3/6 418/3/6 421/3/6
f 421/3/6 418/3/6 422/3/6
f 422/3/6 423/3/6 425/3/6
f 425/3/6 423/3/6 426/3/6
f 424/3/6 425/3/6 427/3/6
f 427/3/6 425/3/6 428/3/6
f 429/3/6 430/3/6 431/3/6
f 431/3/6 430/3/6 432/3/6
f 433/4/6 434/4/6 435/4/6
f 435/4/6 434/4/6 436/4/6
f 437/3/6 438/3/6 439/3/6
f 439/3/6 438/3/6 440/3/6
