# MagicaVoxel @ Ephtracy

# group
o Pillar

# material
mtllib SM-8-Pillar.mtl
usemtl palette

# normals
vn -1 0 0
vn 1 0 0
vn 0 0 1
vn 0 0 -1
vn 0 -1 0
vn 0 1 0

# texcoords
vt 0.626953 0.5
vt 0.908203 0.5
vt 0.916016 0.5

# verts
v -1.3 -1.15 0.2
v -1.3 -1.15 -0.2
v -1.3 -0.95 -0.1
v -1.3 -0.95 -0.2
v -1.3 -0.85 -0.1
v -1.3 -0.85 -0.2
v -1.3 -0.75 -0.1
v -1.3 -0.75 -0.2
v -1.3 -0.65 -0.1
v -1.3 -0.65 -0.2
v -1.3 -0.55 0.2
v -1.3 -0.55 0.1
v -1.3 -0.55 0
v -1.3 -0.45 0.2
v -1.3 -0.45 0.1
v -1.3 -0.45 0
v -1.3 -0.35 -0.1
v -1.3 -0.35 -0.2
v -1.3 -0.25 0
v -1.3 -0.25 -0.1
v -1.3 -0.15 0
v -1.3 -0.15 -0.2
v -1.3 0.15 0.2
v -1.3 0.15 0.1
v -1.3 0.55 0.1
v -1.3 0.55 0
v -1.3 0.65 0.1
v -1.3 0.65 0
v -1.3 0.75 0.1
v -1.3 0.75 0
v -1.3 0.75 -0.1
v -1.3 0.75 -0.2
v -1.3 0.85 0.1
v -1.3 0.85 0
v -1.3 0.85 -0.1
v -1.3 0.85 -0.2
v -1.2 0.95 0
v -1.2 0.95 -0.1
v -1.2 1.05 0
v -1.2 1.05 -0.1
v -1.1 -0.55 0.2
v -1.1 -0.55 0.1
v -1.1 -0.25 0.2
v -1.1 -0.25 0.1
v -1.1 0.85 0
v -1.1 0.85 -0.1
v -1.1 0.95 0
v -1.1 0.95 -0.1
v -1.1 1.05 0
v -1.1 1.05 -0.1
v -1.1 1.15 0
v -1.1 1.15 -0.1
v -1 -0.85 0.2
v -1 -0.85 0.1
v -1 -0.75 0.2
v -1 -0.75 0.1
v -1 0.0500001 0.2
v -1 0.0500001 0.1
v -1 0.15 0.2
v -1 0.15 0.1
v -0.9 -1.15 0.2
v -0.9 -1.15 0.1
v -0.9 -0.95 0.2
v -0.9 -0.95 0.1
v -0.9 0.65 0.1
v -0.9 0.65 0
v -0.9 0.75 0.1
v -0.9 0.75 0
v -1.2 -0.45 0.2
v -1.2 -0.45 0.1
v -1.2 -0.25 0.2
v -1.2 -0.25 0.1
v -1.1 -1.15 0.2
v -1.1 -1.15 0.1
v -1.1 -0.95 0.2
v -1.1 -0.95 0.1
v -1.1 -0.85 0.2
v -1.1 -0.85 0.1
v -1.1 -0.75 0.2
v -1.1 -0.75 0.1
v -1.1 0.0500001 0.2
v -1.1 0.0500001 0.1
v -1.1 0.15 0.2
v -1.1 0.15 0.1
v -1.1 0.75 0.1
v -1.1 0.75 0
v -1.1 0.75 -0.1
v -1.1 0.75 -0.2
v -1.1 0.85 0.1
v -1.1 0.85 0
v -1.1 0.85 -0.1
v -1.1 0.85 -0.2
v -1 0.65 0.1
v -1 0.65 0
v -1 0.75 0.1
v -1 0.75 0
v -1 0.75 -0.1
v -1 0.85 0
v -1 0.85 -0.1
v -1 0.95 0
v -1 0.95 -0.1
v -1 1.05 0
v -1 1.05 -0.1
v -1 1.15 0
v -1 1.15 -0.1
v -0.9 -0.55 0.2
v -0.9 -0.55 0.1
v -0.9 -0.45 0.2
v -0.9 -0.45 0.1
v -0.9 0.95 0
v -0.9 0.95 -0.1
v -0.9 1.05 0
v -0.9 1.05 -0.1
v -0.8 -1.15 0.2
v -0.8 -1.15 -0.2
v -0.8 -1.05 -0.1
v -0.8 -1.05 -0.2
v -0.8 -0.95 -0.1
v -0.8 -0.95 -0.2
v -0.8 -0.75 -0.1
v -0.8 -0.75 -0.2
v -0.8 -0.65 -0.1
v -0.8 -0.65 -0.2
v -0.8 -0.55 0.2
v -0.8 -0.55 0.1
v -0.8 -0.55 0
v -0.8 -0.45 0.2
v -0.8 -0.45 0.1
v -0.8 -0.45 0
v -0.8 -0.45 -0.1
v -0.8 -0.45 -0.2
v -0.8 -0.25 0
v -0.8 -0.25 -0.1
v -0.8 -0.15 0
v -0.8 -0.15 -0.2
v -0.8 0.0500001 0.2
v -0.8 0.0500001 0.1
v -0.8 0.15 0.2
v -0.8 0.15 0.1
v -0.8 0.15 -0.1
v -0.8 0.15 -0.2
v -0.8 0.25 -0.1
v -0.8 0.25 -0.2
v -0.8 0.55 -0.1
v -0.8 0.55 -0.2
v -0.8 0.65 0.1
v -0.8 0.65 0
v -0.8 0.65 -0.1
v -0.8 0.65 -0.2
v -0.8 0.75 0.1
v -0.8 0.75 0
v -0.8 0.75 -0.2
v -1.3 -1.15 0.2
v -1.3 -0.55 0.2
v -1.3 -0.45 0.2
v -1.3 0.15 0.2
v -1.2 -0.45 0.2
v -1.2 -0.25 0.2
v -1.2 -0.15 0.2
v -1.2 0.0500001 0.2
v -1.2 0.15 0.2
v -1.1 -1.15 0.2
v -1.1 -0.95 0.2
v -1.1 -0.85 0.2
v -1.1 -0.75 0.2
v -1.1 -0.55 0.2
v -1.1 -0.25 0.2
v -1.1 -0.15 0.2
v -1.1 -0.05 0.2
v -1.1 0.0500001 0.2
v -1.1 0.15 0.2
v -1 -0.95 0.2
v -1 -0.85 0.2
v -1 -0.75 0.2
v -1 -0.65 0.2
v -1 -0.55 0.2
v -1 -0.15 0.2
v -1 -0.05 0.2
v -1 0.0500001 0.2
v -1 0.15 0.2
v -0.9 -1.15 0.2
v -0.9 -0.95 0.2
v -0.9 -0.75 0.2
v -0.9 -0.65 0.2
v -0.9 -0.55 0.2
v -0.9 -0.45 0.2
v -0.9 0.0500001 0.2
v -0.9 0.15 0.2
v -0.8 -1.15 0.2
v -0.8 -0.55 0.2
v -0.8 -0.45 0.2
v -0.8 0.0500001 0.2
v -0.8 0.15 0.2
v -1.3 -0.55 0.1
v -1.3 -0.45 0.1
v -1.3 0.15 0.1
v -1.3 0.55 0.1
v -1.3 0.65 0.1
v -1.3 0.75 0.1
v -1.3 0.85 0.1
v -1.2 -0.45 0.1
v -1.2 -0.25 0.1
v -1.2 0.15 0.1
v -1.2 0.55 0.1
v -1.2 0.65 0.1
v -1.1 -1.15 0.1
v -1.1 -0.95 0.1
v -1.1 -0.85 0.1
v -1.1 -0.75 0.1
v -1.1 -0.55 0.1
v -1.1 -0.25 0.1
v -1.1 0.0500001 0.1
v -1.1 0.15 0.1
v -1.1 0.65 0.1
v -1.1 0.75 0.1
v -1.1 0.85 0.1
v -1 -0.95 0.1
v -1 -0.85 0.1
v -1 -0.75 0.1
v -1 0.0500001 0.1
v -1 0.15 0.1
v -1 0.55 0.1
v -1 0.65 0.1
v -1 0.75 0.1
v -0.9 -1.15 0.1
v -0.9 -0.95 0.1
v -0.9 -0.55 0.1
v -0.9 -0.45 0.1
v -0.9 0.15 0.1
v -0.9 0.55 0.1
v -0.9 0.65 0.1
v -0.9 0.75 0.1
v -0.8 -0.55 0.1
v -0.8 -0.45 0.1
v -0.8 0.15 0.1
v -0.8 0.65 0.1
v -0.8 0.75 0.1
v -1.2 0.95 0
v -1.2 1.05 0
v -1.1 0.75 0
v -1.1 0.85 0
v -1.1 0.95 0
v -1.1 1.05 0
v -1.1 1.15 0
v -1 0.65 0
v -1 0.75 0
v -1 0.85 0
v -1 0.95 0
v -1 1.05 0
v -1 1.15 0
v -0.9 0.65 0
v -0.9 0.75 0
v -0.9 0.95 0
v -0.9 1.05 0
v -1.2 0.95 -0.1
v -1.2 1.05 -0.1
v -1.1 0.75 -0.1
v -1.1 0.85 -0.1
v -1.1 0.95 -0.1
v -1.1 1.05 -0.1
v -1.1 1.15 -0.1
v -1 0.75 -0.1
v -1 0.85 -0.1
v -1 0.95 -0.1
v -1 1.05 -0.1
v -1 1.15 -0.1
v -0.9 0.95 -0.1
v -0.9 1.05 -0.1
v -1.3 -1.15 -0.2
v -1.3 -0.95 -0.2
v -1.3 -0.85 -0.2
v -1.3 -0.75 -0.2
v -1.3 -0.65 -0.2
v -1.3 -0.35 -0.2
v -1.3 -0.15 -0.2
v -1.3 0.75 -0.2
v -1.3 0.85 -0.2
v -1.2 -0.95 -0.2
v -1.2 -0.85 -0.2
v -1.2 -0.65 -0.2
v -1.2 -0.55 -0.2
v -1.2 0.55 -0.2
v -1.2 0.65 -0.2
v -1.1 -0.95 -0.2
v -1.1 -0.75 -0.2
v -1.1 -0.55 -0.2
v -1.1 -0.35 -0.2
v -1.1 -0.25 -0.2
v -1.1 -0.15 -0.2
v -1.1 0.15 -0.2
v -1.1 0.55 -0.2
v -1.1 0.65 -0.2
v -1.1 0.75 -0.2
v -1.1 0.85 -0.2
v -1 -0.95 -0.2
v -1 -0.75 -0.2
v -1 -0.65 -0.2
v -1 -0.55 -0.2
v -1 -0.25 -0.2
v -1 -0.15 -0.2
v -1 0.15 -0.2
v -1 0.55 -0.2
v -1 0.65 -0.2
v -0.9 -1.05 -0.2
v -0.9 -0.95 -0.2
v -0.9 -0.45 -0.2
v -0.9 -0.15 -0.2
v -0.9 0.15 -0.2
v -0.9 0.25 -0.2
v -0.8 -1.15 -0.2
v -0.8 -1.05 -0.2
v -0.8 -0.95 -0.2
v -0.8 -0.75 -0.2
v -0.8 -0.65 -0.2
v -0.8 -0.45 -0.2
v -0.8 -0.15 -0.2
v -0.8 0.15 -0.2
v -0.8 0.25 -0.2
v -0.8 0.55 -0.2
v -0.8 0.65 -0.2
v -0.8 0.75 -0.2
v -1.3 -1.15 0.2
v -1.1 -1.15 0.2
v -0.9 -1.15 0.2
v -0.8 -1.15 0.2
v -1.1 -1.15 0.1
v -0.9 -1.15 0.1
v -1.3 -1.15 -0.2
v -0.8 -1.15 -0.2
v -1.1 -0.95 0.2
v -1 -0.95 0.2
v -0.9 -0.95 0.2
v -1.1 -0.95 0.1
v -1 -0.95 0.1
v -0.9 -0.95 0.1
v -1.1 -0.75 0.2
v -1 -0.75 0.2
v -1.1 -0.75 0.1
v -1 -0.75 0.1
v -1.3 -0.45 0.2
v -1.2 -0.45 0.2
v -0.9 -0.45 0.2
v -0.8 -0.45 0.2
v -1.3 -0.45 0.1
v -1.2 -0.45 0.1
v -0.9 -0.45 0.1
v -0.8 -0.45 0.1
v -1.2 -0.25 0.2
v -1.1 -0.25 0.2
v -1.2 -0.25 0.1
v -1.1 -0.25 0.1
v -1.2 0.95 0
v -1.1 0.95 0
v -1 0.95 0
v -0.9 0.95 0
v -1.2 0.95 -0.1
v -1.1 0.95 -0.1
v -1 0.95 -0.1
v -0.9 0.95 -0.1
v -1.1 -0.85 0.2
v -1 -0.85 0.2
v -1.1 -0.85 0.1
v -1 -0.85 0.1
v -1.3 -0.55 0.2
v -1.1 -0.55 0.2
v -0.9 -0.55 0.2
v -0.8 -0.55 0.2
v -1.3 -0.55 0.1
v -1.1 -0.55 0.1
v -0.9 -0.55 0.1
v -0.8 -0.55 0.1
v -1.1 0.0500001 0.2
v -1 0.0500001 0.2
v -1.1 0.0500001 0.1
v -1 0.0500001 0.1
v -1.3 0.15 0.2
v -1.2 0.15 0.2
v -1.1 0.15 0.2
v -1 0.15 0.2
v -0.9 0.15 0.2
v -0.8 0.15 0.2
v -1.3 0.15 0.1
v -1.2 0.15 0.1
v -1.1 0.15 0.1
v -1 0.15 0.1
v -0.9 0.15 0.1
v -0.8 0.15 0.1
v -1 0.65 0.1
v -0.9 0.65 0.1
v -1 0.65 0
v -0.9 0.65 0
v -1.1 0.75 0.1
v -1 0.75 0.1
v -0.9 0.75 0.1
v -0.8 0.75 0.1
v -1.1 0.75 0
v -1 0.75 0
v -0.9 0.75 0
v -0.8 0.75 0
v -1.1 0.75 -0.1
v -1 0.75 -0.1
v -1.1 0.75 -0.2
v -0.8 0.75 -0.2
v -1.3 0.85 0.1
v -1.1 0.85 0.1
v -1.3 0.85 0
v -1.1 0.85 0
v -1.3 0.85 -0.1
v -1.1 0.85 -0.1
v -1.3 0.85 -0.2
v -1.1 0.85 -0.2
v -1.2 1.05 0
v -1.1 1.05 0
v -1 1.05 0
v -0.9 1.05 0
v -1.2 1.05 -0.1
v -1.1 1.05 -0.1
v -1 1.05 -0.1
v -0.9 1.05 -0.1
v -1.1 1.15 0
v -1 1.15 0
v -1.1 1.15 -0.1
v -1 1.15 -0.1

# faces
f 3/2/1 2/2/1 1/2/1
f 4/2/1 2/2/1 3/2/1
f 5/2/1 3/2/1 1/2/1
f 5/1/1 4/1/1 3/1/1
f 6/1/1 4/1/1 5/1/1
f 7/2/1 5/2/1 1/2/1
f 7/2/1 6/2/1 5/2/1
f 8/2/1 6/2/1 7/2/1
f 9/2/1 7/2/1 1/2/1
f 9/1/1 8/1/1 7/1/1
f 10/1/1 8/1/1 9/1/1
f 11/2/1 9/2/1 1/2/1
f 11/2/1 10/2/1 9/2/1
f 12/2/1 10/2/1 11/2/1
f 13/2/1 10/2/1 12/2/1
f 15/1/1 13/1/1 12/1/1
f 16/2/1 10/2/1 13/2/1
f 16/1/1 13/1/1 15/1/1
f 17/2/1 15/2/1 14/2/1
f 17/2/1 10/2/1 16/2/1
f 17/2/1 16/2/1 15/2/1
f 18/2/1 10/2/1 17/2/1
f 19/2/1 17/2/1 14/2/1
f 20/1/1 18/1/1 17/1/1
f 20/2/1 17/2/1 19/2/1
f 21/2/1 19/2/1 14/2/1
f 21/1/1 20/1/1 19/1/1
f 22/1/1 18/1/1 20/1/1
f 22/1/1 20/1/1 21/1/1
f 23/2/1 21/2/1 14/2/1
f 23/2/1 22/2/1 21/2/1
f 24/2/1 22/2/1 23/2/1
f 25/2/1 22/2/1 24/2/1
f 26/2/1 22/2/1 25/2/1
f 27/1/1 26/1/1 25/1/1
f 28/2/1 22/2/1 26/2/1
f 28/1/1 26/1/1 27/1/1
f 29/2/1 28/2/1 27/2/1
f 30/2/1 22/2/1 28/2/1
f 30/2/1 28/2/1 29/2/1
f 31/2/1 22/2/1 30/2/1
f 32/2/1 22/2/1 31/2/1
f 33/3/1 30/3/1 29/3/1
f 34/2/1 31/2/1 30/2/1
f 34/3/1 30/3/1 33/3/1
f 35/3/1 32/3/1 31/3/1
f 35/2/1 31/2/1 34/2/1
f 36/3/1 32/3/1 35/3/1
f 39/2/1 38/2/1 37/2/1
f 40/2/1 38/2/1 39/2/1
f 43/2/1 42/2/1 41/2/1
f 44/2/1 42/2/1 43/2/1
f 47/1/1 46/1/1 45/1/1
f 48/1/1 46/1/1 47/1/1
f 51/3/1 50/3/1 49/3/1
f 52/3/1 50/3/1 51/3/1
f 55/2/1 54/2/1 53/2/1
f 56/2/1 54/2/1 55/2/1
f 59/2/1 58/2/1 57/2/1
f 60/2/1 58/2/1 59/2/1
f 63/2/1 62/2/1 61/2/1
f 64/2/1 62/2/1 63/2/1
f 67/3/1 66/3/1 65/3/1
f 68/3/1 66/3/1 67/3/1
f 69/2/2 70/2/2 71/2/2
f 71/2/2 70/2/2 72/2/2
f 73/2/2 74/2/2 75/2/2
f 75/2/2 74/2/2 76/2/2
f 77/2/2 78/2/2 79/2/2
f 79/2/2 78/2/2 80/2/2
f 81/1/2 82/1/2 83/1/2
f 83/1/2 82/1/2 84/1/2
f 85/3/2 86/3/2 89/3/2
f 89/3/2 86/3/2 90/3/2
f 87/3/2 88/3/2 91/3/2
f 91/3/2 88/3/2 92/3/2
f 93/1/2 94/1/2 95/1/2
f 95/1/2 94/1/2 96/1/2
f 96/2/2 97/2/2 98/2/2
f 98/2/2 97/2/2 99/2/2
f 98/1/2 99/1/2 100/1/2
f 100/1/2 99/1/2 101/1/2
f 102/3/2 103/3/2 104/3/2
f 104/3/2 103/3/2 105/3/2
f 106/2/2 107/2/2 108/2/2
f 108/2/2 107/2/2 109/2/2
f 110/1/2 111/1/2 112/1/2
f 112/1/2 111/1/2 113/1/2
f 114/2/2 115/2/2 116/2/2
f 116/2/2 115/2/2 117/2/2
f 114/2/2 116/2/2 118/2/2
f 116/1/2 117/1/2 118/1/2
f 118/1/2 117/1/2 119/1/2
f 114/2/2 118/2/2 120/2/2
f 118/2/2 119/2/2 120/2/2
f 120/2/2 119/2/2 121/2/2
f 114/2/2 120/2/2 122/2/2
f 120/1/2 121/1/2 122/1/2
f 122/1/2 121/1/2 123/1/2
f 114/2/2 122/2/2 124/2/2
f 122/2/2 123/2/2 124/2/2
f 124/2/2 123/2/2 125/2/2
f 125/2/2 123/2/2 126/2/2
f 125/1/2 126/1/2 128/1/2
f 126/2/2 123/2/2 129/2/2
f 128/1/2 126/1/2 129/1/2
f 129/2/2 123/2/2 130/2/2
f 130/2/2 123/2/2 131/2/2
f 127/2/2 128/2/2 132/2/2
f 128/2/2 129/2/2 132/2/2
f 129/2/2 130/2/2 132/2/2
f 130/1/2 131/1/2 133/1/2
f 132/2/2 130/2/2 133/2/2
f 127/2/2 132/2/2 134/2/2
f 132/1/2 133/1/2 134/1/2
f 133/1/2 131/1/2 135/1/2
f 134/1/2 133/1/2 135/1/2
f 127/2/2 134/2/2 136/2/2
f 134/2/2 135/2/2 136/2/2
f 136/2/2 135/2/2 137/2/2
f 136/3/2 137/3/2 138/3/2
f 137/2/2 135/2/2 139/2/2
f 138/3/2 137/3/2 139/3/2
f 139/2/2 135/2/2 140/2/2
f 140/2/2 135/2/2 141/2/2
f 139/2/2 140/2/2 142/2/2
f 140/1/2 141/1/2 142/1/2
f 142/1/2 141/1/2 143/1/2
f 139/2/2 142/2/2 144/2/2
f 142/2/2 143/2/2 144/2/2
f 144/2/2 143/2/2 145/2/2
f 139/2/2 144/2/2 146/2/2
f 146/2/2 144/2/2 147/2/2
f 144/3/2 145/3/2 148/3/2
f 147/2/2 144/2/2 148/2/2
f 148/3/2 145/3/2 149/3/2
f 146/3/2 147/3/2 150/3/2
f 147/2/2 148/2/2 151/2/2
f 150/3/2 147/3/2 151/3/2
f 148/2/2 149/2/2 151/2/2
f 151/2/2 149/2/2 152/2/2
f 157/2/3 156/2/3 155/2/3
f 158/2/3 156/2/3 157/2/3
f 159/2/3 156/2/3 158/2/3
f 160/2/3 156/2/3 159/2/3
f 161/2/3 156/2/3 160/2/3
f 162/2/3 154/2/3 153/2/3
f 163/2/3 154/2/3 162/2/3
f 164/2/3 154/2/3 163/2/3
f 165/2/3 154/2/3 164/2/3
f 166/2/3 154/2/3 165/2/3
f 167/1/3 159/1/3 158/1/3
f 168/2/3 160/2/3 159/2/3
f 168/1/3 159/1/3 167/1/3
f 169/2/3 160/2/3 168/2/3
f 170/1/3 161/1/3 160/1/3
f 170/2/3 160/2/3 169/2/3
f 171/1/3 161/1/3 170/1/3
f 172/3/3 164/3/3 163/3/3
f 173/3/3 164/3/3 172/3/3
f 174/2/3 166/2/3 165/2/3
f 174/2/3 167/2/3 166/2/3
f 174/2/3 168/2/3 167/2/3
f 175/2/3 168/2/3 174/2/3
f 176/2/3 168/2/3 175/2/3
f 177/1/3 169/1/3 168/1/3
f 177/2/3 168/2/3 176/2/3
f 178/2/3 170/2/3 169/2/3
f 178/1/3 169/1/3 177/1/3
f 179/2/3 170/2/3 178/2/3
f 182/2/3 173/2/3 172/2/3
f 182/2/3 174/2/3 173/2/3
f 183/3/3 175/3/3 174/3/3
f 183/2/3 174/2/3 182/2/3
f 184/1/3 176/1/3 175/1/3
f 184/3/3 175/3/3 183/3/3
f 185/2/3 180/2/3 179/2/3
f 185/1/3 176/1/3 184/1/3
f 185/2/3 177/2/3 176/2/3
f 185/2/3 179/2/3 178/2/3
f 185/2/3 178/2/3 177/2/3
f 186/2/3 180/2/3 185/2/3
f 187/2/3 180/2/3 186/2/3
f 188/2/3 180/2/3 187/2/3
f 189/2/3 183/2/3 182/2/3
f 189/2/3 184/2/3 183/2/3
f 189/2/3 182/2/3 181/2/3
f 189/2/3 185/2/3 184/2/3
f 190/2/3 185/2/3 189/2/3
f 191/2/3 187/2/3 186/2/3
f 192/3/3 188/3/3 187/3/3
f 192/2/3 187/2/3 191/2/3
f 193/3/3 188/3/3 192/3/3
f 201/1/3 195/1/3 194/1/3
f 203/2/3 197/2/3 196/2/3
f 204/1/3 198/1/3 197/1/3
f 204/2/3 197/2/3 203/2/3
f 205/2/3 199/2/3 198/2/3
f 205/1/3 198/1/3 204/1/3
f 210/1/3 202/1/3 201/1/3
f 210/1/3 201/1/3 194/1/3
f 211/1/3 202/1/3 210/1/3
f 213/2/3 204/2/3 203/2/3
f 213/2/3 205/2/3 204/2/3
f 214/2/3 199/2/3 205/2/3
f 214/2/3 205/2/3 213/2/3
f 215/3/3 200/3/3 199/3/3
f 215/2/3 199/2/3 214/2/3
f 216/3/3 200/3/3 215/3/3
f 217/2/3 207/2/3 206/2/3
f 218/1/3 209/1/3 208/1/3
f 219/1/3 209/1/3 218/1/3
f 220/2/3 214/2/3 213/2/3
f 220/2/3 213/2/3 212/2/3
f 221/2/3 214/2/3 220/2/3
f 222/2/3 214/2/3 221/2/3
f 223/1/3 215/1/3 214/1/3
f 223/2/3 214/2/3 222/2/3
f 224/1/3 215/1/3 223/1/3
f 225/2/3 217/2/3 206/2/3
f 226/2/3 217/2/3 225/2/3
f 229/2/3 222/2/3 221/2/3
f 230/3/3 223/3/3 222/3/3
f 230/2/3 222/2/3 229/2/3
f 231/3/3 223/3/3 230/3/3
f 233/1/3 228/1/3 227/1/3
f 234/1/3 228/1/3 233/1/3
f 235/2/3 231/2/3 230/2/3
f 235/2/3 230/2/3 229/2/3
f 236/3/3 232/3/3 231/3/3
f 236/2/3 231/2/3 235/2/3
f 237/3/3 232/3/3 236/3/3
f 242/2/3 239/2/3 238/2/3
f 243/2/3 239/2/3 242/2/3
f 246/2/3 241/2/3 240/2/3
f 247/1/3 242/1/3 241/1/3
f 247/2/3 241/2/3 246/2/3
f 248/2/3 243/2/3 242/2/3
f 248/1/3 242/1/3 247/1/3
f 249/3/3 244/3/3 243/3/3
f 249/2/3 243/2/3 248/2/3
f 250/3/3 244/3/3 249/3/3
f 251/2/3 246/2/3 245/2/3
f 252/2/3 246/2/3 251/2/3
f 253/1/3 249/1/3 248/1/3
f 254/1/3 249/1/3 253/1/3
f 255/2/4 256/2/4 259/2/4
f 259/2/4 256/2/4 260/2/4
f 257/2/4 258/2/4 262/2/4
f 258/1/4 259/1/4 263/1/4
f 262/2/4 258/2/4 263/2/4
f 259/2/4 260/2/4 264/2/4
f 263/1/4 259/1/4 264/1/4
f 260/3/4 261/3/4 265/3/4
f 264/2/4 260/2/4 265/2/4
f 265/3/4 261/3/4 266/3/4
f 264/1/4 265/1/4 267/1/4
f 267/1/4 265/1/4 268/1/4
f 269/2/4 270/2/4 278/2/4
f 270/1/4 271/1/4 278/1/4
f 271/2/4 272/2/4 279/2/4
f 278/1/4 271/1/4 279/1/4
f 272/1/4 273/1/4 280/1/4
f 273/2/4 274/2/4 280/2/4
f 280/2/4 274/2/4 281/2/4
f 275/2/4 276/2/4 282/2/4
f 282/2/4 276/2/4 283/2/4
f 269/2/4 278/2/4 284/2/4
f 278/2/4 279/2/4 284/2/4
f 279/2/4 272/2/4 285/2/4
f 284/2/4 279/2/4 285/2/4
f 272/1/4 280/1/4 285/1/4
f 280/1/4 281/1/4 285/1/4
f 281/2/4 274/2/4 286/2/4
f 285/1/4 281/1/4 286/1/4
f 274/1/4 275/1/4 287/1/4
f 286/2/4 274/2/4 287/2/4
f 287/1/4 275/1/4 288/1/4
f 275/2/4 282/2/4 289/2/4
f 288/1/4 275/1/4 289/1/4
f 289/2/4 282/2/4 290/2/4
f 282/3/4 283/3/4 291/3/4
f 290/2/4 282/2/4 291/2/4
f 283/2/4 276/2/4 292/2/4
f 291/3/4 283/3/4 292/3/4
f 276/3/4 277/3/4 293/3/4
f 292/2/4 276/2/4 293/2/4
f 293/3/4 277/3/4 294/3/4
f 284/1/4 285/1/4 295/1/4
f 269/2/4 284/2/4 295/2/4
f 285/2/4 286/2/4 296/2/4
f 295/1/4 285/1/4 296/1/4
f 296/2/4 286/2/4 297/2/4
f 287/1/4 288/1/4 298/1/4
f 297/2/4 286/2/4 298/2/4
f 286/1/4 287/1/4 298/1/4
f 288/2/4 289/2/4 299/2/4
f 298/1/4 288/1/4 299/1/4
f 289/1/4 290/1/4 300/1/4
f 299/2/4 289/2/4 300/2/4
f 291/2/4 292/2/4 301/2/4
f 300/1/4 290/1/4 301/1/4
f 290/2/4 291/2/4 301/2/4
f 292/2/4 293/2/4 301/2/4
f 301/2/4 293/2/4 302/2/4
f 302/2/4 293/2/4 303/2/4
f 295/2/4 296/2/4 304/2/4
f 269/2/4 295/2/4 304/2/4
f 304/2/4 296/2/4 305/2/4
f 299/2/4 300/2/4 306/2/4
f 297/2/4 298/2/4 306/2/4
f 298/2/4 299/2/4 306/2/4
f 300/2/4 301/2/4 306/2/4
f 301/2/4 302/2/4 306/2/4
f 306/2/4 302/2/4 307/2/4
f 307/2/4 302/2/4 308/2/4
f 308/2/4 302/2/4 309/2/4
f 269/2/4 304/2/4 310/2/4
f 304/1/4 305/1/4 311/1/4
f 310/2/4 304/2/4 311/2/4
f 305/2/4 296/2/4 312/2/4
f 311/1/4 305/1/4 312/1/4
f 296/1/4 297/1/4 313/1/4
f 312/2/4 296/2/4 313/2/4
f 297/2/4 306/2/4 314/2/4
f 313/1/4 297/1/4 314/1/4
f 306/1/4 307/1/4 315/1/4
f 314/2/4 306/2/4 315/2/4
f 307/2/4 308/2/4 316/2/4
f 315/1/4 307/1/4 316/1/4
f 308/1/4 309/1/4 317/1/4
f 316/2/4 308/2/4 317/2/4
f 309/2/4 302/2/4 318/2/4
f 317/1/4 309/1/4 318/1/4
f 302/3/4 303/3/4 319/3/4
f 318/2/4 302/2/4 319/2/4
f 303/2/4 293/2/4 320/2/4
f 319/3/4 303/3/4 320/3/4
f 320/2/4 293/2/4 321/2/4
f 326/2/5 323/2/5 322/2/5
f 327/2/5 325/2/5 324/2/5
f 328/2/5 326/2/5 322/2/5
f 328/2/5 327/2/5 326/2/5
f 329/2/5 325/2/5 327/2/5
f 329/2/5 327/2/5 328/2/5
f 333/3/5 331/3/5 330/3/5
f 334/2/5 332/2/5 331/2/5
f 334/3/5 331/3/5 333/3/5
f 335/2/5 332/2/5 334/2/5
f 338/2/5 337/2/5 336/2/5
f 339/2/5 337/2/5 338/2/5
f 344/2/5 341/2/5 340/2/5
f 345/2/5 341/2/5 344/2/5
f 346/2/5 343/2/5 342/2/5
f 347/2/5 343/2/5 346/2/5
f 350/1/5 349/1/5 348/1/5
f 351/1/5 349/1/5 350/1/5
f 356/2/5 353/2/5 352/2/5
f 357/2/5 353/2/5 356/2/5
f 358/1/5 355/1/5 354/1/5
f 359/1/5 355/1/5 358/1/5
f 360/3/6 361/3/6 362/3/6
f 362/3/6 361/3/6 363/3/6
f 364/2/6 365/2/6 368/2/6
f 368/2/6 365/2/6 369/2/6
f 366/2/6 367/2/6 370/2/6
f 370/2/6 367/2/6 371/2/6
f 372/2/6 373/2/6 374/2/6
f 374/2/6 373/2/6 375/2/6
f 376/2/6 377/2/6 382/2/6
f 377/1/6 378/1/6 383/1/6
f 382/2/6 377/2/6 383/2/6
f 383/1/6 378/1/6 384/1/6
f 379/2/6 380/2/6 385/2/6
f 380/3/6 381/3/6 386/3/6
f 385/2/6 380/2/6 386/2/6
f 386/3/6 381/3/6 387/3/6
f 388/3/6 389/3/6 390/3/6
f 390/3/6 389/3/6 391/3/6
f 392/1/6 393/1/6 396/1/6
f 396/1/6 393/1/6 397/1/6
f 394/3/6 395/3/6 398/3/6
f 398/3/6 395/3/6 399/3/6
f 397/2/6 398/2/6 401/2/6
f 398/2/6 399/2/6 401/2/6
f 400/2/6 401/2/6 402/2/6
f 401/2/6 399/2/6 403/2/6
f 402/2/6 401/2/6 403/2/6
f 404/3/6 405/3/6 406/3/6
f 406/3/6 405/3/6 407/3/6
f 406/2/6 407/2/6 408/2/6
f 408/2/6 407/2/6 409/2/6
f 408/3/6 409/3/6 410/3/6
f 410/3/6 409/3/6 411/3/6
f 412/2/6 413/2/6 416/2/6
f 416/2/6 413/2/6 417/2/6
f 414/1/6 415/1/6 418/1/6
f 418/1/6 415/1/6 419/1/6
f 420/3/6 421/3/6 422/3/6
f 422/3/6 421/3/6 423/3/6
