# MagicaVoxel @ Ephtracy

# group
o 

# material
mtllib Office_Chair_White_03.mtl
usemtl palette

# normals
vn -1 0 0
vn 1 0 0
vn 0 0 1
vn 0 0 -1
vn 0 -1 0
vn 0 1 0

# texcoords
vt 0.888672 0.5
vt 0.892578 0.5
vt 0.927734 0.5

# verts
v -0.4 0 0.6
v -0.4 0 -0.4
v -0.4 0.1 0.5
v -0.4 0.1 -0.3
v -0.4 0.3 0.5
v -0.4 0.3 -0.3
v -0.4 0.4 0.6
v -0.4 0.4 0.5
v -0.4 0.4 0.4
v -0.4 0.4 0.3
v -0.4 0.4 0.2
v -0.4 0.4 0.1
v -0.4 0.4 0
v -0.4 0.4 -0.1
v -0.4 0.4 -0.3
v -0.4 0.5 0.5
v -0.4 0.5 0.4
v -0.4 0.5 0.3
v -0.4 0.5 0.2
v -0.4 0.5 0.1
v -0.4 0.5 0
v -0.4 0.5 -0.1
v -0.4 0.5 -0.2
v -0.4 0.6 -0.2
v -0.4 0.6 -0.3
v -0.4 0.7 -0.2
v -0.4 0.7 -0.3
v -0.4 0.8 -0.2
v -0.4 0.8 -0.3
v -0.4 0.9 -0.2
v -0.4 0.9 -0.3
v -0.4 1 -0.2
v -0.4 1 -0.3
v -0.4 1.1 -0.2
v -0.4 1.1 -0.3
v -0.4 1.2 -0.2
v -0.4 1.2 -0.3
v -0.4 1.3 -0.3
v -0.4 1.3 -0.4
v -0.3 0.4 0.6
v -0.3 0.4 0.5
v -0.3 0.5 0.6
v -0.3 0.5 0.5
v -0.3 1.2 -0.2
v -0.3 1.2 -0.3
v -0.3 1.3 -0.2
v -0.3 1.3 -0.3
v -0.3 1.3 -0.4
v -0.3 1.4 -0.3
v -0.3 1.4 -0.4
v 0.2 0 0.6
v 0.2 0 0.4
v 0.2 0 0.3
v 0.2 0 -0.1
v 0.2 0 -0.2
v 0.2 0 -0.4
v 0.2 0.1 0.5
v 0.2 0.1 0.4
v 0.2 0.1 0.3
v 0.2 0.1 -0.1
v 0.2 0.1 -0.2
v 0.2 0.1 -0.3
v 0.2 0.3 0.5
v 0.2 0.3 -0.3
v 0.2 0.3 -0.4
v 0.2 0.4 0.6
v 0.2 0.4 0.5
v -0.3 0 0.6
v -0.3 0 0.4
v -0.3 0 0.3
v -0.3 0 -0.1
v -0.3 0 -0.2
v -0.3 0 -0.4
v -0.3 0.1 0.5
v -0.3 0.1 0.4
v -0.3 0.1 0.3
v -0.3 0.1 -0.1
v -0.3 0.1 -0.2
v -0.3 0.1 -0.3
v -0.3 0.3 0.5
v -0.3 0.3 -0.3
v -0.3 0.3 -0.4
v -0.3 0.4 0.6
v -0.3 0.4 0.5
v 0.2 0.4 0.6
v 0.2 0.4 0.5
v 0.2 0.5 0.6
v 0.2 0.5 0.5
v 0.2 1.2 -0.2
v 0.2 1.2 -0.3
v 0.2 1.3 -0.2
v 0.2 1.3 -0.3
v 0.2 1.3 -0.4
v 0.2 1.4 -0.3
v 0.2 1.4 -0.4
v 0.3 0 0.6
v 0.3 0 -0.4
v 0.3 0.1 0.5
v 0.3 0.1 -0.3
v 0.3 0.3 0.5
v 0.3 0.3 -0.3
v 0.3 0.4 0.6
v 0.3 0.4 0.5
v 0.3 0.4 0.4
v 0.3 0.4 0.3
v 0.3 0.4 0.2
v 0.3 0.4 0.1
v 0.3 0.4 0
v 0.3 0.4 -0.1
v 0.3 0.4 -0.3
v 0.3 0.5 0.5
v 0.3 0.5 0.4
v 0.3 0.5 0.3
v 0.3 0.5 0.2
v 0.3 0.5 0.1
v 0.3 0.5 0
v 0.3 0.5 -0.1
v 0.3 0.5 -0.2
v 0.3 0.6 -0.2
v 0.3 0.6 -0.3
v 0.3 0.7 -0.2
v 0.3 0.7 -0.3
v 0.3 0.8 -0.2
v 0.3 0.8 -0.3
v 0.3 0.9 -0.2
v 0.3 0.9 -0.3
v 0.3 1 -0.2
v 0.3 1 -0.3
v 0.3 1.1 -0.2
v 0.3 1.1 -0.3
v 0.3 1.2 -0.2
v 0.3 1.2 -0.3
v 0.3 1.3 -0.3
v 0.3 1.3 -0.4
v -0.4 0 0.6
v -0.4 0.4 0.6
v -0.3 0 0.6
v -0.3 0.4 0.6
v -0.3 0.5 0.6
v 0.2 0 0.6
v 0.2 0.4 0.6
v 0.2 0.5 0.6
v 0.3 0 0.6
v 0.3 0.4 0.6
v -0.4 0.4 0.5
v -0.4 0.5 0.5
v -0.3 0.3 0.5
v -0.3 0.4 0.5
v -0.3 0.5 0.5
v 0.2 0.3 0.5
v 0.2 0.4 0.5
v 0.2 0.5 0.5
v 0.3 0.4 0.5
v 0.3 0.5 0.5
v -0.3 0 0.4
v -0.3 0.1 0.4
v 0.2 0 0.4
v 0.2 0.1 0.4
v -0.3 0 -0.1
v -0.3 0.1 -0.1
v 0.2 0 -0.1
v 0.2 0.1 -0.1
v -0.4 0.5 -0.2
v -0.4 0.6 -0.2
v -0.4 0.7 -0.2
v -0.4 0.8 -0.2
v -0.4 0.9 -0.2
v -0.4 1 -0.2
v -0.4 1.1 -0.2
v -0.4 1.2 -0.2
v -0.3 1.2 -0.2
v -0.3 1.3 -0.2
v 0.2 1.2 -0.2
v 0.2 1.3 -0.2
v 0.3 0.5 -0.2
v 0.3 0.6 -0.2
v 0.3 0.7 -0.2
v 0.3 0.8 -0.2
v 0.3 0.9 -0.2
v 0.3 1 -0.2
v 0.3 1.1 -0.2
v 0.3 1.2 -0.2
v -0.4 0.1 -0.3
v -0.4 0.3 -0.3
v -0.4 1.2 -0.3
v -0.4 1.3 -0.3
v -0.3 0.1 -0.3
v -0.3 0.3 -0.3
v -0.3 1.2 -0.3
v -0.3 1.3 -0.3
v -0.3 1.4 -0.3
v 0.2 0.1 -0.3
v 0.2 0.3 -0.3
v 0.2 1.2 -0.3
v 0.2 1.3 -0.3
v 0.2 1.4 -0.3
v 0.3 0.1 -0.3
v 0.3 0.3 -0.3
v 0.3 1.2 -0.3
v 0.3 1.3 -0.3
v -0.4 0.1 0.5
v -0.4 0.3 0.5
v -0.3 0.1 0.5
v -0.3 0.3 0.5
v 0.2 0.1 0.5
v 0.2 0.3 0.5
v 0.3 0.1 0.5
v 0.3 0.3 0.5
v -0.3 0 0.3
v -0.3 0.1 0.3
v 0.2 0 0.3
v 0.2 0.1 0.3
v -0.3 0 -0.2
v -0.3 0.1 -0.2
v 0.2 0 -0.2
v 0.2 0.1 -0.2
v -0.4 0 -0.4
v -0.4 1.3 -0.4
v -0.3 0 -0.4
v -0.3 0.3 -0.4
v -0.3 1.3 -0.4
v -0.3 1.4 -0.4
v 0.2 0 -0.4
v 0.2 0.3 -0.4
v 0.2 1.3 -0.4
v 0.2 1.4 -0.4
v 0.3 0 -0.4
v 0.3 1.3 -0.4
v -0.4 0 0.6
v -0.3 0 0.6
v 0.2 0 0.6
v 0.3 0 0.6
v -0.3 0 0.4
v 0.2 0 0.4
v -0.3 0 0.3
v 0.2 0 0.3
v -0.3 0 -0.1
v 0.2 0 -0.1
v -0.3 0 -0.2
v 0.2 0 -0.2
v -0.4 0 -0.4
v -0.3 0 -0.4
v 0.2 0 -0.4
v 0.3 0 -0.4
v -0.4 0.3 0.5
v -0.3 0.3 0.5
v 0.2 0.3 0.5
v 0.3 0.3 0.5
v -0.4 0.3 -0.3
v -0.3 0.3 -0.3
v 0.2 0.3 -0.3
v 0.3 0.3 -0.3
v -0.3 0.3 -0.4
v 0.2 0.3 -0.4
v -0.3 0.4 0.6
v 0.2 0.4 0.6
v -0.3 0.4 0.5
v 0.2 0.4 0.5
v -0.4 0.1 0.5
v -0.3 0.1 0.5
v 0.2 0.1 0.5
v 0.3 0.1 0.5
v -0.3 0.1 0.4
v 0.2 0.1 0.4
v -0.3 0.1 0.3
v 0.2 0.1 0.3
v -0.3 0.1 -0.1
v 0.2 0.1 -0.1
v -0.3 0.1 -0.2
v 0.2 0.1 -0.2
v -0.4 0.1 -0.3
v -0.3 0.1 -0.3
v 0.2 0.1 -0.3
v 0.3 0.1 -0.3
v -0.4 0.4 0.6
v -0.3 0.4 0.6
v 0.2 0.4 0.6
v 0.3 0.4 0.6
v -0.4 0.4 0.5
v -0.3 0.4 0.5
v 0.2 0.4 0.5
v 0.3 0.4 0.5
v -0.3 0.5 0.6
v 0.2 0.5 0.6
v -0.4 0.5 0.5
v -0.3 0.5 0.5
v 0.2 0.5 0.5
v 0.3 0.5 0.5
v -0.4 0.5 0.4
v 0.3 0.5 0.4
v -0.4 0.5 0.3
v 0.3 0.5 0.3
v -0.4 0.5 0.2
v 0.3 0.5 0.2
v -0.4 0.5 0.1
v 0.3 0.5 0.1
v -0.4 0.5 0
v 0.3 0.5 0
v -0.4 0.5 -0.1
v 0.3 0.5 -0.1
v -0.4 0.5 -0.2
v 0.3 0.5 -0.2
v -0.4 1.2 -0.2
v -0.3 1.2 -0.2
v 0.2 1.2 -0.2
v 0.3 1.2 -0.2
v -0.4 1.2 -0.3
v -0.3 1.2 -0.3
v 0.2 1.2 -0.3
v 0.3 1.2 -0.3
v -0.3 1.3 -0.2
v 0.2 1.3 -0.2
v -0.4 1.3 -0.3
v -0.3 1.3 -0.3
v 0.2 1.3 -0.3
v 0.3 1.3 -0.3
v -0.4 1.3 -0.4
v -0.3 1.3 -0.4
v 0.2 1.3 -0.4
v 0.3 1.3 -0.4
v -0.3 1.4 -0.3
v 0.2 1.4 -0.3
v -0.3 1.4 -0.4
v 0.2 1.4 -0.4

# faces
f 3/3/1 2/3/1 1/3/1
f 4/3/1 2/3/1 3/3/1
f 5/3/1 3/3/1 1/3/1
f 6/3/1 2/3/1 4/3/1
f 7/3/1 5/3/1 1/3/1
f 7/3/1 6/3/1 5/3/1
f 8/3/1 6/3/1 7/3/1
f 9/3/1 6/3/1 8/3/1
f 10/3/1 6/3/1 9/3/1
f 11/3/1 6/3/1 10/3/1
f 12/3/1 6/3/1 11/3/1
f 13/3/1 6/3/1 12/3/1
f 14/3/1 6/3/1 13/3/1
f 15/3/1 2/3/1 6/3/1
f 15/3/1 6/3/1 14/3/1
f 16/2/1 9/2/1 8/2/1
f 17/1/1 10/1/1 9/1/1
f 17/2/1 9/2/1 16/2/1
f 18/2/1 11/2/1 10/2/1
f 18/1/1 10/1/1 17/1/1
f 19/1/1 12/1/1 11/1/1
f 19/2/1 11/2/1 18/2/1
f 20/2/1 13/2/1 12/2/1
f 20/1/1 12/1/1 19/1/1
f 21/1/1 14/1/1 13/1/1
f 21/2/1 13/2/1 20/2/1
f 22/2/1 15/2/1 14/2/1
f 22/1/1 14/1/1 21/1/1
f 23/2/1 15/2/1 22/2/1
f 24/2/1 15/2/1 23/2/1
f 25/3/1 2/3/1 15/3/1
f 25/2/1 15/2/1 24/2/1
f 26/1/1 25/1/1 24/1/1
f 27/3/1 2/3/1 25/3/1
f 27/1/1 25/1/1 26/1/1
f 28/2/1 27/2/1 26/2/1
f 29/3/1 2/3/1 27/3/1
f 29/2/1 27/2/1 28/2/1
f 30/1/1 29/1/1 28/1/1
f 31/3/1 2/3/1 29/3/1
f 31/1/1 29/1/1 30/1/1
f 32/2/1 31/2/1 30/2/1
f 33/3/1 2/3/1 31/3/1
f 33/2/1 31/2/1 32/2/1
f 34/1/1 33/1/1 32/1/1
f 35/3/1 2/3/1 33/3/1
f 35/1/1 33/1/1 34/1/1
f 36/2/1 35/2/1 34/2/1
f 37/3/1 2/3/1 35/3/1
f 37/2/1 35/2/1 36/2/1
f 38/3/1 2/3/1 37/3/1
f 39/3/1 2/3/1 38/3/1
f 42/2/1 41/2/1 40/2/1
f 43/2/1 41/2/1 42/2/1
f 46/2/1 45/2/1 44/2/1
f 47/2/1 45/2/1 46/2/1
f 49/3/1 48/3/1 47/3/1
f 50/3/1 48/3/1 49/3/1
f 57/3/1 52/3/1 51/3/1
f 58/3/1 52/3/1 57/3/1
f 59/3/1 54/3/1 53/3/1
f 60/3/1 54/3/1 59/3/1
f 61/3/1 56/3/1 55/3/1
f 62/3/1 56/3/1 61/3/1
f 63/3/1 57/3/1 51/3/1
f 64/3/1 56/3/1 62/3/1
f 65/3/1 56/3/1 64/3/1
f 66/3/1 63/3/1 51/3/1
f 67/3/1 63/3/1 66/3/1
f 68/3/2 69/3/2 74/3/2
f 74/3/2 69/3/2 75/3/2
f 70/3/2 71/3/2 76/3/2
f 76/3/2 71/3/2 77/3/2
f 72/3/2 73/3/2 78/3/2
f 78/3/2 73/3/2 79/3/2
f 68/3/2 74/3/2 80/3/2
f 79/3/2 73/3/2 81/3/2
f 81/3/2 73/3/2 82/3/2
f 68/3/2 80/3/2 83/3/2
f 83/3/2 80/3/2 84/3/2
f 85/2/2 86/2/2 87/2/2
f 87/2/2 86/2/2 88/2/2
f 89/2/2 90/2/2 91/2/2
f 91/2/2 90/2/2 92/2/2
f 92/3/2 93/3/2 94/3/2
f 94/3/2 93/3/2 95/3/2
f 96/3/2 97/3/2 98/3/2
f 98/3/2 97/3/2 99/3/2
f 96/3/2 98/3/2 100/3/2
f 99/3/2 97/3/2 101/3/2
f 96/3/2 100/3/2 102/3/2
f 100/3/2 101/3/2 102/3/2
f 102/3/2 101/3/2 103/3/2
f 103/3/2 101/3/2 104/3/2
f 104/3/2 101/3/2 105/3/2
f 105/3/2 101/3/2 106/3/2
f 106/3/2 101/3/2 107/3/2
f 107/3/2 101/3/2 108/3/2
f 108/3/2 101/3/2 109/3/2
f 101/3/2 97/3/2 110/3/2
f 109/3/2 101/3/2 110/3/2
f 103/2/2 104/2/2 111/2/2
f 104/1/2 105/1/2 112/1/2
f 111/2/2 104/2/2 112/2/2
f 105/2/2 106/2/2 113/2/2
f 112/1/2 105/1/2 113/1/2
f 106/1/2 107/1/2 114/1/2
f 113/2/2 106/2/2 114/2/2
f 107/2/2 108/2/2 115/2/2
f 114/1/2 107/1/2 115/1/2
f 108/1/2 109/1/2 116/1/2
f 115/2/2 108/2/2 116/2/2
f 109/2/2 110/2/2 117/2/2
f 116/1/2 109/1/2 117/1/2
f 117/2/2 110/2/2 118/2/2
f 118/2/2 110/2/2 119/2/2
f 110/3/2 97/3/2 120/3/2
f 119/2/2 110/2/2 120/2/2
f 119/1/2 120/1/2 121/1/2
f 120/3/2 97/3/2 122/3/2
f 121/1/2 120/1/2 122/1/2
f 121/2/2 122/2/2 123/2/2
f 122/3/2 97/3/2 124/3/2
f 123/2/2 122/2/2 124/2/2
f 123/1/2 124/1/2 125/1/2
f 124/3/2 97/3/2 126/3/2
f 125/1/2 124/1/2 126/1/2
f 125/2/2 126/2/2 127/2/2
f 126/3/2 97/3/2 128/3/2
f 127/2/2 126/2/2 128/2/2
f 127/1/2 128/1/2 129/1/2
f 128/3/2 97/3/2 130/3/2
f 129/1/2 128/1/2 130/1/2
f 129/2/2 130/2/2 131/2/2
f 130/3/2 97/3/2 132/3/2
f 131/2/2 130/2/2 132/2/2
f 132/3/2 97/3/2 133/3/2
f 133/3/2 97/3/2 134/3/2
f 137/3/3 136/3/3 135/3/3
f 138/3/3 136/3/3 137/3/3
f 141/2/3 139/2/3 138/2/3
f 142/2/3 139/2/3 141/2/3
f 143/3/3 141/3/3 140/3/3
f 144/3/3 141/3/3 143/3/3
f 148/2/3 146/2/3 145/2/3
f 149/2/3 146/2/3 148/2/3
f 150/3/3 148/3/3 147/3/3
f 151/3/3 148/3/3 150/3/3
f 153/2/3 152/2/3 151/2/3
f 154/2/3 152/2/3 153/2/3
f 157/3/3 156/3/3 155/3/3
f 158/3/3 156/3/3 157/3/3
f 161/3/3 160/3/3 159/3/3
f 162/3/3 160/3/3 161/3/3
f 171/2/3 170/2/3 169/2/3
f 173/2/3 171/2/3 169/2/3
f 173/2/3 172/2/3 171/2/3
f 174/2/3 172/2/3 173/2/3
f 175/2/3 164/2/3 163/2/3
f 176/1/3 165/1/3 164/1/3
f 176/2/3 164/2/3 175/2/3
f 177/2/3 166/2/3 165/2/3
f 177/1/3 165/1/3 176/1/3
f 178/1/3 167/1/3 166/1/3
f 178/2/3 166/2/3 177/2/3
f 179/2/3 168/2/3 167/2/3
f 179/1/3 167/1/3 178/1/3
f 180/1/3 169/1/3 168/1/3
f 180/2/3 168/2/3 179/2/3
f 181/2/3 173/2/3 169/2/3
f 181/1/3 169/1/3 180/1/3
f 182/2/3 173/2/3 181/2/3
f 187/3/3 184/3/3 183/3/3
f 188/3/3 184/3/3 187/3/3
f 189/3/3 186/3/3 185/3/3
f 190/3/3 186/3/3 189/3/3
f 195/3/3 191/3/3 190/3/3
f 196/3/3 191/3/3 195/3/3
f 197/3/3 193/3/3 192/3/3
f 198/3/3 193/3/3 197/3/3
f 199/3/3 195/3/3 194/3/3
f 200/3/3 195/3/3 199/3/3
f 201/3/4 202/3/4 203/3/4
f 203/3/4 202/3/4 204/3/4
f 205/3/4 206/3/4 207/3/4
f 207/3/4 206/3/4 208/3/4
f 209/3/4 210/3/4 211/3/4
f 211/3/4 210/3/4 212/3/4
f 213/3/4 214/3/4 215/3/4
f 215/3/4 214/3/4 216/3/4
f 217/3/4 218/3/4 219/3/4
f 219/3/4 218/3/4 220/3/4
f 220/3/4 218/3/4 221/3/4
f 221/3/4 222/3/4 224/3/4
f 220/3/4 221/3/4 224/3/4
f 224/3/4 222/3/4 225/3/4
f 225/3/4 222/3/4 226/3/4
f 223/3/4 224/3/4 227/3/4
f 224/3/4 225/3/4 227/3/4
f 227/3/4 225/3/4 228/3/4
f 233/3/5 230/3/5 229/3/5
f 234/3/5 232/3/5 231/3/5
f 235/3/5 233/3/5 229/3/5
f 235/3/5 234/3/5 233/3/5
f 236/3/5 232/3/5 234/3/5
f 236/3/5 234/3/5 235/3/5
f 237/3/5 235/3/5 229/3/5
f 238/3/5 232/3/5 236/3/5
f 239/3/5 237/3/5 229/3/5
f 239/3/5 238/3/5 237/3/5
f 240/3/5 232/3/5 238/3/5
f 240/3/5 238/3/5 239/3/5
f 241/3/5 239/3/5 229/3/5
f 242/3/5 239/3/5 241/3/5
f 243/3/5 232/3/5 240/3/5
f 244/3/5 232/3/5 243/3/5
f 249/3/5 246/3/5 245/3/5
f 249/3/5 248/3/5 247/3/5
f 249/3/5 247/3/5 246/3/5
f 250/3/5 248/3/5 249/3/5
f 251/3/5 248/3/5 250/3/5
f 252/3/5 248/3/5 251/3/5
f 253/3/5 251/3/5 250/3/5
f 254/3/5 251/3/5 253/3/5
f 257/2/5 256/2/5 255/2/5
f 258/2/5 256/2/5 257/2/5
f 259/3/6 260/3/6 263/3/6
f 261/3/6 262/3/6 264/3/6
f 259/3/6 263/3/6 265/3/6
f 263/3/6 264/3/6 265/3/6
f 264/3/6 262/3/6 266/3/6
f 265/3/6 264/3/6 266/3/6
f 259/3/6 265/3/6 267/3/6
f 266/3/6 262/3/6 268/3/6
f 259/3/6 267/3/6 269/3/6
f 267/3/6 268/3/6 269/3/6
f 268/3/6 262/3/6 270/3/6
f 269/3/6 268/3/6 270/3/6
f 259/3/6 269/3/6 271/3/6
f 271/3/6 269/3/6 272/3/6
f 270/3/6 262/3/6 273/3/6
f 273/3/6 262/3/6 274/3/6
f 275/3/6 276/3/6 279/3/6
f 279/3/6 276/3/6 280/3/6
f 277/3/6 278/3/6 281/3/6
f 281/3/6 278/3/6 282/3/6
f 283/2/6 284/2/6 286/2/6
f 286/2/6 284/2/6 287/2/6
f 285/2/6 286/2/6 289/2/6
f 287/2/6 288/2/6 289/2/6
f 286/2/6 287/2/6 289/2/6
f 289/2/6 288/2/6 290/2/6
f 289/1/6 290/1/6 291/1/6
f 291/1/6 290/1/6 292/1/6
f 291/2/6 292/2/6 293/2/6
f 293/2/6 292/2/6 294/2/6
f 293/1/6 294/1/6 295/1/6
f 295/1/6 294/1/6 296/1/6
f 295/2/6 296/2/6 297/2/6
f 297/2/6 296/2/6 298/2/6
f 297/1/6 298/1/6 299/1/6
f 299/1/6 298/1/6 300/1/6
f 299/2/6 300/2/6 301/2/6
f 301/2/6 300/2/6 302/2/6
f 303/2/6 304/2/6 307/2/6
f 307/2/6 304/2/6 308/2/6
f 305/2/6 306/2/6 309/2/6
f 309/2/6 306/2/6 310/2/6
f 311/2/6 312/2/6 314/2/6
f 314/2/6 312/2/6 315/2/6
f 313/3/6 314/3/6 317/3/6
f 317/3/6 314/3/6 318/3/6
f 315/3/6 316/3/6 319/3/6
f 319/3/6 316/3/6 320/3/6
f 321/3/6 322/3/6 323/3/6
f 323/3/6 322/3/6 324/3/6
