# Blender 3.3.1
# www.blender.org
mtllib Box.mtl
o ShopBuilding_1.001
v 12.018471 -0.873543 -2.000001
v 12.018471 -0.873543 -2.600001
v 12.018471 -0.473543 -2.100000
v 12.018471 -0.473543 -2.500000
v 12.018471 -0.373543 -2.100000
v 12.018471 -0.373543 -2.500000
v 12.018471 -0.273543 -2.000000
v 12.018471 -0.273543 -2.500000
v 12.018471 -0.273543 -2.600000
v 12.518471 -0.473543 -2.000000
v 12.518471 -0.473543 -2.100000
v 12.518471 -0.473543 -2.500000
v 12.518471 -0.473543 -2.600000
v 12.518471 -0.373543 -2.000000
v 12.518471 -0.373543 -2.100000
v 12.518471 -0.373543 -2.500000
v 12.518471 -0.373543 -2.600000
v 12.118471 -0.473543 -2.000000
v 12.118471 -0.473543 -2.100000
v 12.118471 -0.473543 -2.500000
v 12.118471 -0.473543 -2.600000
v 12.118471 -0.373543 -2.000000
v 12.118471 -0.373543 -2.100000
v 12.118471 -0.373543 -2.500000
v 12.118471 -0.373543 -2.600000
v 12.618471 -0.873543 -2.000001
v 12.618471 -0.873543 -2.600001
v 12.618471 -0.473543 -2.100000
v 12.618471 -0.473543 -2.500000
v 12.618471 -0.373543 -2.100000
v 12.618471 -0.373543 -2.500000
v 12.618471 -0.273543 -2.000000
v 12.618471 -0.273543 -2.500000
v 12.618471 -0.273543 -2.600000
v 12.018471 -0.873543 -2.000001
v 12.018471 -0.273543 -2.000000
v 12.118471 -0.473543 -2.000000
v 12.118471 -0.373543 -2.000000
v 12.518471 -0.473543 -2.000000
v 12.518471 -0.373543 -2.000000
v 12.618471 -0.873543 -2.000001
v 12.618471 -0.273543 -2.000000
v 12.018471 -0.473543 -2.500000
v 12.018471 -0.373543 -2.500000
v 12.118471 -0.473543 -2.500000
v 12.118471 -0.373543 -2.500000
v 12.518471 -0.473543 -2.500000
v 12.518471 -0.373543 -2.500000
v 12.618471 -0.473543 -2.500000
v 12.618471 -0.373543 -2.500000
v 12.018471 -0.473543 -2.100000
v 12.018471 -0.373543 -2.100000
v 12.118471 -0.473543 -2.100000
v 12.118471 -0.373543 -2.100000
v 12.518471 -0.473543 -2.100000
v 12.518471 -0.373543 -2.100000
v 12.618471 -0.473543 -2.100000
v 12.618471 -0.373543 -2.100000
v 12.018471 -0.273543 -2.500000
v 12.618471 -0.273543 -2.500000
v 12.018471 -0.873543 -2.600001
v 12.018471 -0.273543 -2.600000
v 12.118471 -0.673543 -2.600000
v 12.118471 -0.573543 -2.600000
v 12.118471 -0.473543 -2.600000
v 12.118471 -0.373543 -2.600000
v 12.218472 -0.673543 -2.600000
v 12.218472 -0.573543 -2.600000
v 12.318472 -0.773543 -2.600000
v 12.318472 -0.573543 -2.600000
v 12.418471 -0.773543 -2.600000
v 12.418471 -0.673543 -2.600000
v 12.518471 -0.673543 -2.600000
v 12.518471 -0.573543 -2.600000
v 12.518471 -0.473543 -2.600000
v 12.518471 -0.373543 -2.600000
v 12.618471 -0.873543 -2.600001
v 12.618471 -0.273543 -2.600000
v 12.018471 -0.873543 -2.000001
v 12.618471 -0.873543 -2.000001
v 12.018471 -0.873543 -2.600001
v 12.618471 -0.873543 -2.600001
v 12.118471 -0.373543 -2.000000
v 12.518471 -0.373543 -2.000000
v 12.018471 -0.373543 -2.100000
v 12.118471 -0.373543 -2.100000
v 12.518471 -0.373543 -2.100000
v 12.618471 -0.373543 -2.100000
v 12.018471 -0.373543 -2.500000
v 12.118471 -0.373543 -2.500000
v 12.518471 -0.373543 -2.500000
v 12.618471 -0.373543 -2.500000
v 12.118471 -0.373543 -2.600000
v 12.518471 -0.373543 -2.600000
v 12.018471 -0.273543 -2.000000
v 12.618471 -0.273543 -2.000000
v 12.118471 -0.473543 -2.000000
v 12.518471 -0.473543 -2.000000
v 12.018471 -0.473543 -2.100000
v 12.118471 -0.473543 -2.100000
v 12.518471 -0.473543 -2.100000
v 12.618471 -0.473543 -2.100000
v 12.018471 -0.473543 -2.500000
v 12.118471 -0.473543 -2.500000
v 12.518471 -0.473543 -2.500000
v 12.618471 -0.473543 -2.500000
v 12.118471 -0.473543 -2.600000
v 12.518471 -0.473543 -2.600000
v 12.018471 -0.273543 -2.500000
v 12.618471 -0.273543 -2.500000
v 12.018471 -0.273543 -2.600000
v 12.618471 -0.273543 -2.600000
v 12.018471 -0.273543 -2.000000
v 12.618471 -0.273543 -2.000000
v 12.018471 -0.273543 -2.500000
v 12.018471 -0.273543 -2.600000
vn -1.0000 -0.0000 -0.0000
vn 1.0000 -0.0000 -0.0000
vn -0.0000 -0.0000 1.0000
vn -0.0000 -0.0000 -1.0000
vn -0.0000 -1.0000 -0.0000
vn -0.0000 1.0000 -0.0000
vn -0.0000 -0.0000 -0.0000
vt 0.779297 0.500000
vt 0.779297 0.500000
vt 0.779297 0.500000
vt 0.779297 0.500000
vt 0.779297 0.500000
vt 0.779297 0.500000
vt 0.779297 0.500000
vt 0.779297 0.500000
vt 0.779297 0.500000
vt 0.779297 0.500000
vt 0.779297 0.500000
vt 0.779297 0.500000
vt 0.779297 0.500000
vt 0.779297 0.500000
vt 0.779297 0.500000
vt 0.779297 0.500000
vt 0.779297 0.500000
vt 0.779297 0.500000
vt 0.779297 0.500000
vt 0.779297 0.500000
vt 0.779297 0.500000
vt 0.779297 0.500000
vt 0.779297 0.500000
vt 0.779297 0.500000
vt 0.779297 0.500000
vt 0.779297 0.500000
vt 0.779297 0.500000
vt 0.779297 0.500000
vt 0.779297 0.500000
vt 0.779297 0.500000
vt 0.779297 0.500000
vt 0.779297 0.500000
vt 0.779297 0.500000
vt 0.779297 0.500000
vt 0.779297 0.500000
vt 0.779297 0.500000
vt 0.779297 0.500000
vt 0.779297 0.500000
vt 0.779297 0.500000
vt 0.779297 0.500000
vt 0.779297 0.500000
vt 0.779297 0.500000
vt 0.779297 0.500000
vt 0.779297 0.500000
vt 0.779297 0.500000
vt 0.779297 0.500000
vt 0.779297 0.500000
vt 0.779297 0.500000
vt 0.779297 0.500000
vt 0.779297 0.500000
vt 0.779297 0.500000
vt 0.779297 0.500000
vt 0.779297 0.500000
vt 0.779297 0.500000
vt 0.779297 0.500000
vt 0.779297 0.500000
vt 0.779297 0.500000
vt 0.779297 0.500000
vt 0.779297 0.500000
vt 0.779297 0.500000
vt 0.779297 0.500000
vt 0.341797 0.500000
vt 0.779297 0.500000
vt 0.341797 0.500000
vt 0.779297 0.500000
vt 0.779297 0.500000
vt 0.341797 0.500000
vt 0.779297 0.500000
vt 0.341797 0.500000
vt 0.779297 0.500000
vt 0.779297 0.500000
vt 0.341797 0.500000
vt 0.779297 0.500000
vt 0.341797 0.500000
vt 0.341797 0.500000
vt 0.779297 0.500000
vt 0.779297 0.500000
vt 0.341797 0.500000
vt 0.341797 0.500000
vt 0.779297 0.500000
vt 0.341797 0.500000
vt 0.779297 0.500000
vt 0.779297 0.500000
vt 0.779297 0.500000
vt 0.779297 0.500000
vt 0.779297 0.500000
vt 0.779297 0.500000
vt 0.779297 0.500000
vt 0.779297 0.500000
vt 0.779297 0.500000
vt 0.779297 0.500000
vt 0.779297 0.500000
vt 0.779297 0.500000
vt 0.779297 0.500000
vt 0.779297 0.500000
vt 0.779297 0.500000
vt 0.779297 0.500000
vt 0.779297 0.500000
vt 0.779297 0.500000
vt 0.779297 0.500000
vt 0.779297 0.500000
vt 0.779297 0.500000
vt 0.779297 0.500000
vt 0.779297 0.500000
vt 0.779297 0.500000
vt 0.779297 0.500000
vt 0.779297 0.500000
vt 0.779297 0.500000
vt 0.779297 0.500000
vt 0.779297 0.500000
vt 0.779297 0.500000
vt 0.779297 0.500000
vt 0.779297 0.500000
vt 0.779297 0.500000
vt 0.779297 0.500000
vt 0.779297 0.500000
vt 0.779297 0.500000
vt 0.779297 0.500000
vt 0.779297 0.500000
vt 0.779297 0.500000
vt 0.779297 0.500000
vt 0.779297 0.500000
s 0
usemtl palette.003
f 3/3/1 2/2/1 1/1/1
f 4/4/1 2/2/1 3/3/1
f 5/5/1 3/3/1 1/1/1
f 6/6/1 2/2/1 4/4/1
f 7/7/1 5/5/1 1/1/1
f 7/7/1 6/6/1 5/5/1
f 8/8/1 2/2/1 6/6/1
f 8/8/1 6/6/1 7/7/1
f 9/9/1 2/2/1 8/8/1
f 14/14/1 11/11/1 10/10/1
f 15/15/1 11/11/1 14/14/1
f 16/16/1 13/13/1 12/12/1
f 17/17/1 13/13/1 16/16/1
f 18/18/2 19/19/2 22/22/2
f 22/22/2 19/19/2 23/23/2
f 20/20/2 21/21/2 24/24/2
f 24/24/2 21/21/2 25/25/2
f 26/26/2 27/27/2 28/28/2
f 28/28/2 27/27/2 29/29/2
f 26/26/2 28/28/2 30/30/2
f 29/29/2 27/27/2 31/31/2
f 26/26/2 30/30/2 32/32/2
f 30/30/2 31/31/2 32/32/2
f 31/31/2 27/27/2 33/33/2
f 32/32/2 31/31/2 33/33/2
f 33/33/2 27/27/2 34/34/2
f 37/37/3 36/36/3 35/35/3
f 38/38/3 36/36/3 37/37/3
f 39/39/3 37/37/3 35/35/3
f 40/40/3 36/36/3 38/38/3
f 41/41/3 39/39/3 35/35/3
f 41/41/3 40/40/3 39/39/3
f 42/42/3 36/36/3 40/40/3
f 42/42/3 40/40/3 41/41/3
f 45/45/3 44/44/3 43/43/3
f 46/46/3 44/44/3 45/45/3
f 49/49/3 48/48/3 47/47/3
f 50/50/3 48/48/3 49/49/3
f 51/51/4 52/52/4 53/53/4
f 53/53/4 52/52/4 54/54/4
f 55/55/4 56/56/4 57/57/4
f 57/57/4 56/56/4 58/58/4
f 61/59/4 62/60/4 63/61/4
f 63/61/4 62/60/4 64/63/4
f 64/63/4 62/60/4 65/65/4
f 65/65/4 62/60/4 66/66/4
f 61/59/4 63/61/4 67/68/4
f 63/62/4 64/64/4 67/67/4
f 64/63/4 65/65/4 68/70/4
f 67/67/4 64/64/4 68/69/4
f 61/59/4 67/68/4 69/71/4
f 67/68/4 68/70/4 69/71/4
f 68/70/4 65/65/4 70/73/4
f 69/71/4 68/70/4 70/73/4
f 61/59/4 69/71/4 71/76/4
f 69/72/4 70/74/4 71/75/4
f 71/75/4 70/74/4 72/78/4
f 71/76/4 72/77/4 73/80/4
f 72/78/4 70/74/4 73/79/4
f 70/73/4 65/65/4 74/82/4
f 73/79/4 70/74/4 74/81/4
f 74/82/4 65/65/4 75/83/4
f 66/66/4 62/60/4 76/84/4
f 74/82/4 75/83/4 77/85/4
f 75/83/4 76/84/4 77/85/4
f 71/76/4 73/80/4 77/85/4
f 61/59/4 71/76/4 77/85/4
f 73/80/4 74/82/4 77/85/4
f 76/84/4 62/60/4 78/86/4
f 77/85/4 76/84/4 78/86/4
f 81/89/5 80/88/5 79/87/5
f 82/90/5 80/88/5 81/89/5
f 86/94/5 84/92/5 83/91/5
f 87/95/5 84/92/5 86/94/5
f 89/97/5 88/96/5 87/95/5
f 89/97/5 87/95/5 86/94/5
f 89/97/5 86/94/5 85/93/5
f 90/98/5 88/96/5 89/97/5
f 91/99/5 88/96/5 90/98/5
f 92/100/5 88/96/5 91/99/5
f 93/101/5 91/99/5 90/98/5
f 94/102/5 91/99/5 93/101/5
f 97/103/6 98/104/6 100/106/6
f 100/106/6 98/104/6 101/107/6
f 101/107/6 102/108/6 103/109/6
f 100/106/6 101/107/6 103/109/6
f 99/105/6 100/106/6 103/109/6
f 103/109/6 102/108/6 104/110/6
f 104/110/6 102/108/6 105/111/6
f 105/111/6 102/108/6 106/112/6
f 104/110/6 105/111/6 107/113/6
f 107/113/6 105/111/6 108/114/6
f 109/115/6 110/116/6 111/117/6
f 111/117/6 110/116/6 112/118/6
f 36/36/3 42/42/3 114/120/3 113/119/3
f 109/115/7 111/117/7 116/122/7 115/121/7
l 59 60
l 95 96
