# Blender 3.3.1
# www.blender.org
mtllib Button.mtl
o ShopBuilding_2
v 2.150000 1.735134 -2.450000
v 2.150000 1.735134 -2.550000
v 2.150000 1.835135 -2.450000
v 2.150000 1.835135 -2.550000
v 2.150000 1.935135 -2.450000
v 2.150000 1.935135 -2.550000
v 2.350000 1.735134 -2.450000
v 2.350000 1.735134 -2.550000
v 2.350000 1.835135 -2.450000
v 2.350000 1.835135 -2.550000
v 2.350000 1.935135 -2.450000
v 2.350000 1.935135 -2.550000
v 2.150000 1.735134 -2.450000
v 2.150000 1.835135 -2.450000
v 2.150000 1.935135 -2.450000
v 2.250000 1.735134 -2.450000
v 2.250000 1.935135 -2.450000
v 2.350000 1.735134 -2.450000
v 2.350000 1.835135 -2.450000
v 2.350000 1.935135 -2.450000
v 2.150000 1.735134 -2.550000
v 2.150000 1.835135 -2.550000
v 2.150000 1.935135 -2.550000
v 2.250000 1.735134 -2.550000
v 2.250000 1.835135 -2.550000
v 2.250000 1.935135 -2.550000
v 2.350000 1.735134 -2.550000
v 2.350000 1.835135 -2.550000
v 2.350000 1.935135 -2.550000
v 2.150000 1.735134 -2.450000
v 2.250000 1.735134 -2.450000
v 2.350000 1.735134 -2.450000
v 2.150000 1.735134 -2.550000
v 2.250000 1.735134 -2.550000
v 2.350000 1.735134 -2.550000
v 2.150000 1.935135 -2.450000
v 2.250000 1.935135 -2.450000
v 2.350000 1.935135 -2.450000
v 2.150000 1.935135 -2.550000
v 2.250000 1.935135 -2.550000
v 2.350000 1.935135 -2.550000
vn -1.0000 -0.0000 -0.0000
vn 1.0000 -0.0000 -0.0000
vn -0.0000 -0.0000 -1.0000
vn -0.0000 -1.0000 -0.0000
vn -0.0000 1.0000 -0.0000
vt 0.525391 0.500000
vt 0.525391 0.500000
vt 0.525391 0.500000
vt 0.521484 0.500000
vt 0.525391 0.500000
vt 0.521484 0.500000
vt 0.521484 0.500000
vt 0.521484 0.500000
vt 0.521484 0.500000
vt 0.521484 0.500000
vt 0.521484 0.500000
vt 0.525391 0.500000
vt 0.521484 0.500000
vt 0.525391 0.500000
vt 0.525391 0.500000
vt 0.525391 0.500000
vt 0.525391 0.500000
vt 0.521484 0.500000
vt 0.525391 0.500000
vt 0.521484 0.500000
vt 0.525391 0.500000
vt 0.521484 0.500000
vt 0.525391 0.500000
vt 0.521484 0.500000
vt 0.521484 0.500000
vt 0.525391 0.500000
vt 0.521484 0.500000
vt 0.521484 0.500000
vt 0.525391 0.500000
vt 0.525391 0.500000
vt 0.525391 0.500000
vt 0.521484 0.500000
vt 0.525391 0.500000
vt 0.521484 0.500000
vt 0.525391 0.500000
vt 0.525391 0.500000
vt 0.521484 0.500000
vt 0.521484 0.500000
vt 0.521484 0.500000
vt 0.525391 0.500000
vt 0.521484 0.500000
vt 0.525391 0.500000
vt 0.521484 0.500000
vt 0.521484 0.500000
vt 0.525391 0.500000
vt 0.525391 0.500000
s 0
usemtl palette.002
f 3/3/1 2/2/1 1/1/1
f 4/5/1 2/2/1 3/3/1
f 5/7/1 4/6/1 3/4/1
f 6/8/1 4/6/1 5/7/1
f 7/9/2 8/10/2 9/11/2
f 9/11/2 8/10/2 10/13/2
f 9/12/2 10/14/2 11/15/2
f 11/15/2 10/14/2 12/16/2
f 21/17/3 22/19/3 24/21/3
f 22/18/3 23/20/3 25/24/3
f 24/21/3 22/19/3 25/23/3
f 25/24/3 23/20/3 26/25/3
f 24/22/3 25/24/3 27/27/3
f 25/23/3 26/26/3 28/29/3
f 27/27/3 25/24/3 28/28/3
f 28/29/3 26/26/3 29/30/3
f 33/35/4 31/33/4 30/31/4
f 34/37/4 32/34/4 31/32/4
f 34/36/4 31/33/4 33/35/4
f 35/38/4 32/34/4 34/37/4
f 36/39/5 37/41/5 39/43/5
f 37/40/5 38/42/5 40/45/5
f 39/43/5 37/41/5 40/44/5
f 40/45/5 38/42/5 41/46/5
l 13 14
l 14 15
l 13 16
l 15 17
l 16 18
l 18 19
l 19 20
l 17 20
