# MagicaVoxel @ Ephtracy

# group
o 

# material
mtllib Office_Table_White_3x1_01.mtl
usemtl palette

# normals
vn -1 0 0
vn 1 0 0
vn 0 0 1
vn 0 0 -1
vn 0 -1 0
vn 0 1 0

# texcoords
vt 0.876953 0.5
vt 0.880859 0.5
vt 0.888672 0.5
vt 0.896484 0.5
vt 0.904297 0.5

# verts
v -2.4 1 0.5
v -2.4 1 -0.5
v -2.4 1.1 0.5
v -2.4 1.1 -0.5
v -2.3 0 0.4
v -2.3 0 0.3
v -2.3 0 -0.4
v -2.3 0 -0.5
v -2.3 0.1 0.4
v -2.3 0.1 0.3
v -2.3 0.1 -0.4
v -2.3 0.1 -0.5
v -2.3 1 0.6
v -2.3 1 0.5
v -2.3 1 0.4
v -2.3 1 0.3
v -2.3 1 -0.4
v -2.3 1 -0.5
v -2.3 1 -0.6
v -2.3 1.1 0.6
v -2.3 1.1 0.5
v -2.3 1.1 -0.5
v -2.3 1.1 -0.6
v -0.3 0 0.4
v -0.3 0 0.3
v -0.3 0 -0.4
v -0.3 0 -0.5
v -0.3 0.1 0.4
v -0.3 0.1 0.3
v -0.3 0.1 -0.4
v -0.3 0.1 -0.5
v -0.3 0.2 0.3
v -0.3 0.2 -0.4
v -0.3 1 0.4
v -0.3 1 0.3
v -0.3 1 -0.4
v 0.2 0 0.4
v 0.2 0 0.3
v 0.2 0 -0.4
v 0.2 0 -0.5
v 0.2 0.1 0.4
v 0.2 0.1 0.3
v 0.2 0.1 -0.4
v 0.2 0.1 -0.5
v 2.2 0 0.4
v 2.2 0 0.3
v 2.2 0 -0.4
v 2.2 0 -0.5
v 2.2 0.1 0.4
v 2.2 0.1 0.3
v 2.2 0.1 -0.4
v 2.2 0.1 -0.5
v 2.2 1 0.4
v 2.2 1 0.3
v 2.2 1 -0.4
v -2.2 0 0.4
v -2.2 0 0.3
v -2.2 0 -0.4
v -2.2 0 -0.5
v -2.2 0.1 0.4
v -2.2 0.1 0.3
v -2.2 0.1 -0.4
v -2.2 0.1 -0.5
v -2.2 1 0.4
v -2.2 1 0.3
v -2.2 1 -0.4
v -0.2 0 0.4
v -0.2 0 0.3
v -0.2 0 -0.4
v -0.2 0 -0.5
v -0.2 0.1 0.4
v -0.2 0.1 0.3
v -0.2 0.1 -0.4
v -0.2 0.1 -0.5
v 0.3 0 0.4
v 0.3 0 0.3
v 0.3 0 -0.4
v 0.3 0 -0.5
v 0.3 0.1 0.4
v 0.3 0.1 0.3
v 0.3 0.1 -0.4
v 0.3 0.1 -0.5
v 0.3 0.2 0.3
v 0.3 0.2 -0.4
v 0.3 1 0.4
v 0.3 1 0.3
v 0.3 1 -0.4
v 2.3 0 0.4
v 2.3 0 0.3
v 2.3 0 -0.4
v 2.3 0 -0.5
v 2.3 0.1 0.4
v 2.3 0.1 0.3
v 2.3 0.1 -0.4
v 2.3 0.1 -0.5
v 2.3 1 0.6
v 2.3 1 0.5
v 2.3 1 0.4
v 2.3 1 0.3
v 2.3 1 -0.4
v 2.3 1 -0.5
v 2.3 1 -0.6
v 2.3 1.1 0.6
v 2.3 1.1 0.5
v 2.3 1.1 -0.5
v 2.3 1.1 -0.6
v 2.4 1 0.5
v 2.4 1 -0.5
v 2.4 1.1 0.5
v 2.4 1.1 -0.5
v -2.3 1 0.6
v -2.3 1.1 0.6
v 2.3 1 0.6
v 2.3 1.1 0.6
v -2.4 1 0.5
v -2.4 1.1 0.5
v -2.3 1 0.5
v -2.3 1.1 0.5
v 2.3 1 0.5
v 2.3 1.1 0.5
v 2.4 1 0.5
v 2.4 1.1 0.5
v -2.3 0 0.4
v -2.3 0.1 0.4
v -2.3 1 0.4
v -2.2 0 0.4
v -2.2 0.1 0.4
v -2.2 1 0.4
v -0.3 0 0.4
v -0.3 0.1 0.4
v -0.3 1 0.4
v -0.2 0 0.4
v -0.2 0.1 0.4
v -0.2 0.2 0.4
v -0.2 0.6 0.4
v -0.2 0.7 0.4
v -0.2 1 0.4
v -0.0999999 0.3 0.4
v -0.0999999 0.4 0.4
v -0.0999999 0.8 0.4
v -0.0999999 0.9 0.4
v 0.1 0.3 0.4
v 0.1 0.4 0.4
v 0.1 0.8 0.4
v 0.1 0.9 0.4
v 0.2 0 0.4
v 0.2 0.1 0.4
v 0.2 0.2 0.4
v 0.2 0.6 0.4
v 0.2 0.7 0.4
v 0.2 1 0.4
v 0.3 0 0.4
v 0.3 0.1 0.4
v 0.3 1 0.4
v 2.2 0 0.4
v 2.2 0.1 0.4
v 2.2 1 0.4
v 2.3 0 0.4
v 2.3 0.1 0.4
v 2.3 1 0.4
v -2.3 0 -0.4
v -2.3 0.1 -0.4
v -2.2 0 -0.4
v -2.2 0.1 -0.4
v -2.2 1 -0.4
v -0.3 0 -0.4
v -0.3 0.1 -0.4
v -0.3 0.2 -0.4
v -0.3 1 -0.4
v -0.2 0 -0.4
v -0.2 0.1 -0.4
v 0.2 0 -0.4
v 0.2 0.1 -0.4
v 0.3 0 -0.4
v 0.3 0.1 -0.4
v 0.3 0.2 -0.4
v 0.3 1 -0.4
v 2.2 0 -0.4
v 2.2 0.1 -0.4
v 2.2 1 -0.4
v 2.3 0 -0.4
v 2.3 0.1 -0.4
v -2.3 0 0.3
v -2.3 0.1 0.3
v -2.2 0 0.3
v -2.2 0.1 0.3
v -0.3 0 0.3
v -0.3 0.1 0.3
v -0.2 0 0.3
v -0.2 0.1 0.3
v 0.2 0 0.3
v 0.2 0.1 0.3
v 0.3 0 0.3
v 0.3 0.1 0.3
v 2.2 0 0.3
v 2.2 0.1 0.3
v 2.3 0 0.3
v 2.3 0.1 0.3
v -2.4 1 -0.5
v -2.4 1.1 -0.5
v -2.3 0 -0.5
v -2.3 0.1 -0.5
v -2.3 1 -0.5
v -2.3 1.1 -0.5
v -2.2 0 -0.5
v -2.2 0.1 -0.5
v -2.2 1 -0.5
v -0.3 0 -0.5
v -0.3 0.1 -0.5
v -0.3 1 -0.5
v -0.2 0 -0.5
v -0.2 0.1 -0.5
v -0.2 0.2 -0.5
v -0.2 1 -0.5
v 0.2 0 -0.5
v 0.2 0.1 -0.5
v 0.2 0.2 -0.5
v 0.2 1 -0.5
v 0.3 0 -0.5
v 0.3 0.1 -0.5
v 0.3 1 -0.5
v 2.2 0 -0.5
v 2.2 0.1 -0.5
v 2.2 1 -0.5
v 2.3 0 -0.5
v 2.3 0.1 -0.5
v 2.3 1 -0.5
v 2.3 1.1 -0.5
v 2.4 1 -0.5
v 2.4 1.1 -0.5
v -2.3 1 -0.6
v -2.3 1.1 -0.6
v 2.3 1 -0.6
v 2.3 1.1 -0.6
v -2.3 0 0.4
v -2.2 0 0.4
v -0.3 0 0.4
v -0.2 0 0.4
v 0.2 0 0.4
v 0.3 0 0.4
v 2.2 0 0.4
v 2.3 0 0.4
v -2.3 0 0.3
v -2.2 0 0.3
v -0.3 0 0.3
v -0.2 0 0.3
v 0.2 0 0.3
v 0.3 0 0.3
v 2.2 0 0.3
v 2.3 0 0.3
v -2.3 0 -0.4
v -2.2 0 -0.4
v -0.3 0 -0.4
v -0.2 0 -0.4
v 0.2 0 -0.4
v 0.3 0 -0.4
v 2.2 0 -0.4
v 2.3 0 -0.4
v -2.3 0 -0.5
v -2.2 0 -0.5
v -0.3 0 -0.5
v -0.2 0 -0.5
v 0.2 0 -0.5
v 0.3 0 -0.5
v 2.2 0 -0.5
v 2.3 0 -0.5
v -0.2 0.1 0.4
v 0.2 0.1 0.4
v -2.3 0.1 0.3
v -2.2 0.1 0.3
v -0.3 0.1 0.3
v -0.2 0.1 0.3
v 0.2 0.1 0.3
v 0.3 0.1 0.3
v 2.2 0.1 0.3
v 2.3 0.1 0.3
v -2.3 0.1 -0.4
v -2.2 0.1 -0.4
v -0.3 0.1 -0.4
v -0.2 0.1 -0.4
v 0.2 0.1 -0.4
v 0.3 0.1 -0.4
v 2.2 0.1 -0.4
v 2.3 0.1 -0.4
v -2.2 0.1 -0.5
v -0.3 0.1 -0.5
v -0.2 0.1 -0.5
v 0.2 0.1 -0.5
v 0.3 0.1 -0.5
v 2.2 0.1 -0.5
v -2.3 1 0.6
v 2.3 1 0.6
v -2.4 1 0.5
v -2.3 1 0.5
v 2.3 1 0.5
v 2.4 1 0.5
v -2.3 1 0.4
v -2.2 1 0.4
v -0.3 1 0.4
v -0.2 1 0.4
v 0.2 1 0.4
v 0.3 1 0.4
v 2.2 1 0.4
v 2.3 1 0.4
v -2.3 1 0.3
v -2.2 1 0.3
v -0.3 1 0.3
v 0.3 1 0.3
v 2.2 1 0.3
v 2.3 1 0.3
v -2.3 1 -0.4
v -2.2 1 -0.4
v -0.3 1 -0.4
v 0.3 1 -0.4
v 2.2 1 -0.4
v 2.3 1 -0.4
v -2.4 1 -0.5
v -2.3 1 -0.5
v -2.2 1 -0.5
v -0.3 1 -0.5
v -0.2 1 -0.5
v 0.2 1 -0.5
v 0.3 1 -0.5
v 2.2 1 -0.5
v 2.3 1 -0.5
v 2.4 1 -0.5
v -2.3 1 -0.6
v 2.3 1 -0.6
v -2.3 1.1 0.6
v 2.3 1.1 0.6
v -2.4 1.1 0.5
v -2.3 1.1 0.5
v 2.3 1.1 0.5
v 2.4 1.1 0.5
v -2.4 1.1 -0.5
v -2.3 1.1 -0.5
v 2.3 1.1 -0.5
v 2.4 1.1 -0.5
v -2.3 1.1 -0.6
v 2.3 1.1 -0.6

# faces
f 3/3/1 2/3/1 1/3/1
f 4/3/1 2/3/1 3/3/1
f 9/5/1 6/5/1 5/5/1
f 10/5/1 6/5/1 9/5/1
f 11/5/1 8/5/1 7/5/1
f 12/5/1 8/5/1 11/5/1
f 15/1/1 10/1/1 9/1/1
f 16/3/1 11/3/1 10/3/1
f 16/1/1 10/1/1 15/1/1
f 17/1/1 12/1/1 11/1/1
f 17/3/1 11/3/1 16/3/1
f 18/1/1 12/1/1 17/1/1
f 20/3/1 14/3/1 13/3/1
f 21/3/1 14/3/1 20/3/1
f 22/3/1 19/3/1 18/3/1
f 23/3/1 19/3/1 22/3/1
f 28/5/1 25/5/1 24/5/1
f 29/5/1 25/5/1 28/5/1
f 30/5/1 27/5/1 26/5/1
f 31/5/1 27/5/1 30/5/1
f 32/1/1 29/1/1 28/1/1
f 32/1/1 30/1/1 29/1/1
f 33/1/1 30/1/1 32/1/1
f 34/1/1 32/1/1 28/1/1
f 35/3/1 33/3/1 32/3/1
f 35/1/1 32/1/1 34/1/1
f 36/3/1 33/3/1 35/3/1
f 41/5/1 38/5/1 37/5/1
f 42/5/1 38/5/1 41/5/1
f 43/5/1 40/5/1 39/5/1
f 44/5/1 40/5/1 43/5/1
f 49/5/1 46/5/1 45/5/1
f 50/5/1 46/5/1 49/5/1
f 51/5/1 48/5/1 47/5/1
f 52/5/1 48/5/1 51/5/1
f 53/1/1 50/1/1 49/1/1
f 54/3/1 51/3/1 50/3/1
f 54/1/1 50/1/1 53/1/1
f 55/3/1 51/3/1 54/3/1
f 56/5/2 57/5/2 60/5/2
f 60/5/2 57/5/2 61/5/2
f 58/5/2 59/5/2 62/5/2
f 62/5/2 59/5/2 63/5/2
f 60/1/2 61/1/2 64/1/2
f 61/3/2 62/3/2 65/3/2
f 64/1/2 61/1/2 65/1/2
f 65/3/2 62/3/2 66/3/2
f 67/5/2 68/5/2 71/5/2
f 71/5/2 68/5/2 72/5/2
f 69/5/2 70/5/2 73/5/2
f 73/5/2 70/5/2 74/5/2
f 75/5/2 76/5/2 79/5/2
f 79/5/2 76/5/2 80/5/2
f 77/5/2 78/5/2 81/5/2
f 81/5/2 78/5/2 82/5/2
f 79/1/2 80/1/2 83/1/2
f 80/1/2 81/1/2 83/1/2
f 83/1/2 81/1/2 84/1/2
f 79/1/2 83/1/2 85/1/2
f 83/3/2 84/3/2 86/3/2
f 85/1/2 83/1/2 86/1/2
f 86/3/2 84/3/2 87/3/2
f 88/5/2 89/5/2 92/5/2
f 92/5/2 89/5/2 93/5/2
f 90/5/2 91/5/2 94/5/2
f 94/5/2 91/5/2 95/5/2
f 92/1/2 93/1/2 98/1/2
f 93/3/2 94/3/2 99/3/2
f 98/1/2 93/1/2 99/1/2
f 94/1/2 95/1/2 100/1/2
f 99/3/2 94/3/2 100/3/2
f 100/1/2 95/1/2 101/1/2
f 96/3/2 97/3/2 103/3/2
f 103/3/2 97/3/2 104/3/2
f 101/3/2 102/3/2 105/3/2
f 105/3/2 102/3/2 106/3/2
f 107/3/2 108/3/2 109/3/2
f 109/3/2 108/3/2 110/3/2
f 113/3/3 112/3/3 111/3/3
f 114/3/3 112/3/3 113/3/3
f 117/3/3 116/3/3 115/3/3
f 118/3/3 116/3/3 117/3/3
f 121/3/3 120/3/3 119/3/3
f 122/3/3 120/3/3 121/3/3
f 126/5/3 124/5/3 123/5/3
f 127/1/3 125/1/3 124/1/3
f 127/5/3 124/5/3 126/5/3
f 128/1/3 125/1/3 127/1/3
f 132/5/3 130/5/3 129/5/3
f 133/1/3 131/1/3 130/1/3
f 133/5/3 130/5/3 132/5/3
f 134/1/3 131/1/3 133/1/3
f 135/1/3 131/1/3 134/1/3
f 136/1/3 131/1/3 135/1/3
f 137/1/3 131/1/3 136/1/3
f 138/3/3 135/3/3 134/3/3
f 139/3/3 135/3/3 138/3/3
f 140/3/3 137/3/3 136/3/3
f 141/3/3 137/3/3 140/3/3
f 142/3/3 138/3/3 134/3/3
f 142/4/3 139/4/3 138/4/3
f 143/3/3 135/3/3 139/3/3
f 143/4/3 139/4/3 142/4/3
f 144/4/3 141/4/3 140/4/3
f 144/3/3 140/3/3 136/3/3
f 145/3/3 137/3/3 141/3/3
f 145/4/3 141/4/3 144/4/3
f 147/1/3 134/1/3 133/1/3
f 148/3/3 142/3/3 134/3/3
f 148/3/3 143/3/3 142/3/3
f 148/1/3 134/1/3 147/1/3
f 149/2/3 136/2/3 135/2/3
f 149/3/3 143/3/3 148/3/3
f 149/3/3 135/3/3 143/3/3
f 150/3/3 144/3/3 136/3/3
f 150/2/3 136/2/3 149/2/3
f 150/3/3 145/3/3 144/3/3
f 151/3/3 137/3/3 145/3/3
f 151/3/3 145/3/3 150/3/3
f 152/5/3 147/5/3 146/5/3
f 153/1/3 150/1/3 149/1/3
f 153/5/3 147/5/3 152/5/3
f 153/1/3 148/1/3 147/1/3
f 153/1/3 151/1/3 150/1/3
f 153/1/3 149/1/3 148/1/3
f 154/1/3 151/1/3 153/1/3
f 158/5/3 156/5/3 155/5/3
f 159/1/3 157/1/3 156/1/3
f 159/5/3 156/5/3 158/5/3
f 160/1/3 157/1/3 159/1/3
f 163/5/3 162/5/3 161/5/3
f 164/5/3 162/5/3 163/5/3
f 167/3/3 165/3/3 164/3/3
f 168/3/3 165/3/3 167/3/3
f 169/3/3 165/3/3 168/3/3
f 170/5/3 167/5/3 166/5/3
f 171/5/3 167/5/3 170/5/3
f 174/5/3 173/5/3 172/5/3
f 175/5/3 173/5/3 174/5/3
f 179/3/3 177/3/3 176/3/3
f 179/3/3 176/3/3 175/3/3
f 180/3/3 177/3/3 179/3/3
f 181/5/3 179/5/3 178/5/3
f 182/5/3 179/5/3 181/5/3
f 183/5/4 184/5/4 185/5/4
f 185/5/4 184/5/4 186/5/4
f 187/5/4 188/5/4 189/5/4
f 189/5/4 188/5/4 190/5/4
f 191/5/4 192/5/4 193/5/4
f 193/5/4 192/5/4 194/5/4
f 195/5/4 196/5/4 197/5/4
f 197/5/4 196/5/4 198/5/4
f 199/3/4 200/3/4 203/3/4
f 203/3/4 200/3/4 204/3/4
f 201/5/4 202/5/4 205/5/4
f 202/1/4 203/1/4 206/1/4
f 205/5/4 202/5/4 206/5/4
f 206/1/4 203/1/4 207/1/4
f 206/3/4 207/3/4 209/3/4
f 209/3/4 207/3/4 210/3/4
f 208/5/4 209/5/4 211/5/4
f 209/1/4 210/1/4 212/1/4
f 211/5/4 209/5/4 212/5/4
f 212/1/4 210/1/4 213/1/4
f 213/1/4 210/1/4 214/1/4
f 212/1/4 213/1/4 216/1/4
f 213/3/4 214/3/4 217/3/4
f 216/1/4 213/1/4 217/1/4
f 217/3/4 214/3/4 218/3/4
f 215/5/4 216/5/4 219/5/4
f 216/1/4 217/1/4 220/1/4
f 219/5/4 216/5/4 220/5/4
f 217/1/4 218/1/4 220/1/4
f 220/1/4 218/1/4 221/1/4
f 220/3/4 221/3/4 223/3/4
f 223/3/4 221/3/4 224/3/4
f 222/5/4 223/5/4 225/5/4
f 223/1/4 224/1/4 226/1/4
f 225/5/4 223/5/4 226/5/4
f 226/1/4 224/1/4 227/1/4
f 227/3/4 228/3/4 229/3/4
f 229/3/4 228/3/4 230/3/4
f 231/3/4 232/3/4 233/3/4
f 233/3/4 232/3/4 234/3/4
f 243/5/5 236/5/5 235/5/5
f 244/5/5 236/5/5 243/5/5
f 245/5/5 238/5/5 237/5/5
f 246/5/5 238/5/5 245/5/5
f 247/5/5 240/5/5 239/5/5
f 248/5/5 240/5/5 247/5/5
f 249/5/5 242/5/5 241/5/5
f 250/5/5 242/5/5 249/5/5
f 259/5/5 252/5/5 251/5/5
f 260/5/5 252/5/5 259/5/5
f 261/5/5 254/5/5 253/5/5
f 262/5/5 254/5/5 261/5/5
f 263/5/5 256/5/5 255/5/5
f 264/5/5 256/5/5 263/5/5
f 265/5/5 258/5/5 257/5/5
f 266/5/5 258/5/5 265/5/5
f 272/1/5 268/1/5 267/1/5
f 273/1/5 268/1/5 272/1/5
f 277/3/5 270/3/5 269/3/5
f 278/3/5 270/3/5 277/3/5
f 279/1/5 272/1/5 271/1/5
f 279/1/5 273/1/5 272/1/5
f 279/1/5 274/1/5 273/1/5
f 280/1/5 274/1/5 279/1/5
f 281/1/5 274/1/5 280/1/5
f 282/1/5 274/1/5 281/1/5
f 283/3/5 276/3/5 275/3/5
f 284/3/5 276/3/5 283/3/5
f 285/3/5 279/3/5 278/3/5
f 286/3/5 279/3/5 285/3/5
f 287/1/5 281/1/5 280/1/5
f 288/1/5 281/1/5 287/1/5
f 289/3/5 283/3/5 282/3/5
f 290/3/5 283/3/5 289/3/5
f 294/3/5 292/3/5 291/3/5
f 295/3/5 292/3/5 294/3/5
f 297/3/5 294/3/5 293/3/5
f 297/3/5 296/3/5 295/3/5
f 297/3/5 295/3/5 294/3/5
f 298/3/5 296/3/5 297/3/5
f 299/3/5 296/3/5 298/3/5
f 300/3/5 296/3/5 299/3/5
f 301/3/5 296/3/5 300/3/5
f 302/3/5 296/3/5 301/3/5
f 303/3/5 296/3/5 302/3/5
f 304/3/5 296/3/5 303/3/5
f 305/3/5 297/3/5 293/3/5
f 306/3/5 299/3/5 298/3/5
f 307/3/5 299/3/5 306/3/5
f 308/3/5 303/3/5 302/3/5
f 309/3/5 303/3/5 308/3/5
f 310/3/5 296/3/5 304/3/5
f 311/3/5 305/3/5 293/3/5
f 312/3/5 307/3/5 306/3/5
f 313/3/5 307/3/5 312/3/5
f 314/3/5 309/3/5 308/3/5
f 315/3/5 309/3/5 314/3/5
f 316/3/5 296/3/5 310/3/5
f 317/3/5 311/3/5 293/3/5
f 318/3/5 311/3/5 317/3/5
f 325/3/5 296/3/5 316/3/5
f 326/3/5 296/3/5 325/3/5
f 327/3/5 324/3/5 323/3/5
f 327/3/5 325/3/5 324/3/5
f 327/3/5 319/3/5 318/3/5
f 327/3/5 323/3/5 322/3/5
f 327/3/5 322/3/5 321/3/5
f 327/3/5 321/3/5 320/3/5
f 327/3/5 320/3/5 319/3/5
f 328/3/5 325/3/5 327/3/5
f 329/3/6 330/3/6 332/3/6
f 332/3/6 330/3/6 333/3/6
f 331/3/6 332/3/6 335/3/6
f 333/3/6 334/3/6 335/3/6
f 332/3/6 333/3/6 335/3/6
f 335/3/6 334/3/6 336/3/6
f 336/3/6 334/3/6 337/3/6
f 337/3/6 334/3/6 338/3/6
f 336/3/6 337/3/6 339/3/6
f 339/3/6 337/3/6 340/3/6
