# MagicaVoxel @ Ephtracy

# group
o 

# material
mtllib Office_Misc_Printer.mtl
usemtl palette

# normals
vn -1 0 0
vn 1 0 0
vn 0 0 1
vn 0 0 -1
vn 0 -1 0
vn 0 1 0

# texcoords
vt 0.763672 0.5
vt 0.775391 0.5
vt 0.779297 0.5
vt 0.791016 0.5
vt 0.814453 0.5

# verts
v -0.6 0 0.2
v -0.6 0 -0.5
v -0.6 0.4 0.2
v -0.6 0.4 -0.5
v -0.5 0 0.3
v -0.5 0 0.2
v -0.5 0 -0.5
v -0.5 0 -0.6
v -0.5 0.4 0.3
v -0.5 0.4 0.2
v -0.5 0.4 -0.5
v -0.5 0.4 -0.6
v -0.4 0 0.6
v -0.4 0 0.3
v -0.4 0.1 0.6
v -0.4 0.1 0.3
v -0.4 0.2 0.6
v -0.4 0.2 0.3
v -0.4 0.4 -0.3
v -0.4 0.4 -0.4
v -0.4 0.4 -0.5
v -0.4 0.5 -0.3
v -0.4 0.5 -0.4
v -0.4 0.5 -0.5
v -0.4 0.5 -0.6
v -0.4 0.6 -0.4
v -0.4 0.6 -0.5
v -0.4 0.6 -0.6
v -0.4 0.7 -0.5
v -0.4 0.7 -0.6
v 0.3 0 0.6
v 0.3 0 0.3
v 0.3 0.1 0.6
v 0.3 0.1 0.3
v 0.3 0.2 0.6
v 0.3 0.2 0.3
v 0.3 0.4 -0.3
v 0.3 0.4 -0.4
v 0.3 0.4 -0.5
v 0.3 0.5 -0.3
v 0.3 0.5 -0.4
v 0.3 0.5 -0.5
v 0.3 0.5 -0.6
v 0.3 0.6 -0.4
v 0.3 0.6 -0.5
v 0.3 0.6 -0.6
v 0.3 0.7 -0.5
v 0.3 0.7 -0.6
v 0.4 0 0.3
v 0.4 0 0.2
v 0.4 0 -0.5
v 0.4 0 -0.6
v 0.4 0.4 0.3
v 0.4 0.4 0.2
v 0.4 0.4 -0.5
v 0.4 0.4 -0.6
v 0.5 0 0.2
v 0.5 0 -0.5
v 0.5 0.4 0.2
v 0.5 0.4 -0.5
v -0.4 0 0.6
v -0.4 0.1 0.6
v -0.4 0.2 0.6
v 0.3 0 0.6
v 0.3 0.1 0.6
v 0.3 0.2 0.6
v -0.5 0 0.3
v -0.5 0.4 0.3
v -0.4 0 0.3
v -0.4 0.1 0.3
v -0.4 0.2 0.3
v 0.3 0 0.3
v 0.3 0.1 0.3
v 0.3 0.2 0.3
v 0.4 0 0.3
v 0.4 0.4 0.3
v -0.6 0 0.2
v -0.6 0.4 0.2
v -0.5 0 0.2
v -0.5 0.4 0.2
v 0.4 0 0.2
v 0.4 0.4 0.2
v 0.5 0 0.2
v 0.5 0.4 0.2
v -0.4 0.4 -0.3
v -0.4 0.5 -0.3
v 0.3 0.4 -0.3
v 0.3 0.5 -0.3
v -0.4 0.5 -0.4
v -0.4 0.6 -0.4
v 0.3 0.5 -0.4
v 0.3 0.6 -0.4
v -0.4 0.6 -0.5
v -0.4 0.7 -0.5
v 0.3 0.6 -0.5
v 0.3 0.7 -0.5
v -0.6 0 -0.5
v -0.6 0.4 -0.5
v -0.5 0 -0.5
v -0.5 0.4 -0.5
v -0.4 0.4 -0.5
v -0.4 0.5 -0.5
v 0.3 0.4 -0.5
v 0.3 0.5 -0.5
v 0.4 0 -0.5
v 0.4 0.4 -0.5
v 0.5 0 -0.5
v 0.5 0.4 -0.5
v -0.5 0 -0.6
v -0.5 0.4 -0.6
v -0.4 0.5 -0.6
v -0.4 0.6 -0.6
v -0.4 0.7 -0.6
v 0.3 0.5 -0.6
v 0.3 0.6 -0.6
v 0.3 0.7 -0.6
v 0.4 0 -0.6
v 0.4 0.4 -0.6
v -0.4 0 0.6
v 0.3 0 0.6
v -0.5 0 0.3
v -0.4 0 0.3
v 0.3 0 0.3
v 0.4 0 0.3
v -0.6 0 0.2
v -0.5 0 0.2
v 0.4 0 0.2
v 0.5 0 0.2
v -0.6 0 -0.5
v -0.5 0 -0.5
v 0.4 0 -0.5
v 0.5 0 -0.5
v -0.5 0 -0.6
v 0.4 0 -0.6
v -0.4 0.5 -0.5
v 0.3 0.5 -0.5
v -0.4 0.5 -0.6
v 0.3 0.5 -0.6
v -0.4 0.2 0.6
v 0.3 0.2 0.6
v -0.4 0.2 0.3
v 0.3 0.2 0.3
v -0.5 0.4 0.3
v 0.4 0.4 0.3
v -0.6 0.4 0.2
v -0.5 0.4 0.2
v 0.4 0.4 0.2
v 0.5 0.4 0.2
v -0.4 0.4 0.1
v -0.3 0.4 0.1
v -0.2 0.4 0.1
v -0.1 0.4 0.1
v 0.3 0.4 0.1
v -0.4 0.4 0
v -0.3 0.4 0
v -0.2 0.4 0
v 0 0.4 0
v 0.2 0.4 0
v -0.4 0.4 -0.1
v -0.3 0.4 -0.1
v -0.2 0.4 -0.1
v 0 0.4 -0.1
v 0.2 0.4 -0.1
v -0.4 0.4 -0.2
v -0.3 0.4 -0.2
v -0.2 0.4 -0.2
v -0.1 0.4 -0.2
v 0.3 0.4 -0.2
v -0.4 0.4 -0.3
v 0.3 0.4 -0.3
v -0.4 0.4 -0.4
v 0.3 0.4 -0.4
v -0.6 0.4 -0.5
v -0.5 0.4 -0.5
v -0.4 0.4 -0.5
v 0.3 0.4 -0.5
v 0.4 0.4 -0.5
v 0.5 0.4 -0.5
v -0.5 0.4 -0.6
v 0.4 0.4 -0.6
v -0.4 0.5 -0.3
v 0.3 0.5 -0.3
v -0.4 0.5 -0.4
v 0.3 0.5 -0.4
v -0.4 0.6 -0.4
v 0.3 0.6 -0.4
v -0.4 0.6 -0.5
v 0.3 0.6 -0.5
v -0.4 0.7 -0.5
v 0.3 0.7 -0.5
v -0.4 0.7 -0.6
v 0.3 0.7 -0.6

# faces
f 3/2/1 2/2/1 1/2/1
f 4/2/1 2/2/1 3/2/1
f 9/2/1 6/2/1 5/2/1
f 10/2/1 6/2/1 9/2/1
f 11/2/1 8/2/1 7/2/1
f 12/2/1 8/2/1 11/2/1
f 15/2/1 14/2/1 13/2/1
f 16/2/1 14/2/1 15/2/1
f 17/4/1 16/4/1 15/4/1
f 18/4/1 16/4/1 17/4/1
f 22/4/1 20/4/1 19/4/1
f 23/2/1 21/2/1 20/2/1
f 23/4/1 20/4/1 22/4/1
f 24/2/1 21/2/1 23/2/1
f 26/4/1 24/4/1 23/4/1
f 27/2/1 25/2/1 24/2/1
f 27/4/1 24/4/1 26/4/1
f 28/2/1 25/2/1 27/2/1
f 29/4/1 28/4/1 27/4/1
f 30/4/1 28/4/1 29/4/1
f 31/2/2 32/2/2 33/2/2
f 33/2/2 32/2/2 34/2/2
f 33/4/2 34/4/2 35/4/2
f 35/4/2 34/4/2 36/4/2
f 37/4/2 38/4/2 40/4/2
f 38/2/2 39/2/2 41/2/2
f 40/4/2 38/4/2 41/4/2
f 41/2/2 39/2/2 42/2/2
f 41/4/2 42/4/2 44/4/2
f 42/2/2 43/2/2 45/2/2
f 44/4/2 42/4/2 45/4/2
f 45/2/2 43/2/2 46/2/2
f 45/4/2 46/4/2 47/4/2
f 47/4/2 46/4/2 48/4/2
f 49/2/2 50/2/2 53/2/2
f 53/2/2 50/2/2 54/2/2
f 51/2/2 52/2/2 55/2/2
f 55/2/2 52/2/2 56/2/2
f 57/2/2 58/2/2 59/2/2
f 59/2/2 58/2/2 60/2/2
f 64/2/3 62/2/3 61/2/3
f 65/4/3 63/4/3 62/4/3
f 65/2/3 62/2/3 64/2/3
f 66/4/3 63/4/3 65/4/3
f 69/2/3 68/2/3 67/2/3
f 70/2/3 68/2/3 69/2/3
f 71/2/3 68/2/3 70/2/3
f 74/2/3 68/2/3 71/2/3
f 75/2/3 73/2/3 72/2/3
f 75/2/3 74/2/3 73/2/3
f 76/2/3 68/2/3 74/2/3
f 76/2/3 74/2/3 75/2/3
f 79/2/3 78/2/3 77/2/3
f 80/2/3 78/2/3 79/2/3
f 83/2/3 82/2/3 81/2/3
f 84/2/3 82/2/3 83/2/3
f 87/4/3 86/4/3 85/4/3
f 88/4/3 86/4/3 87/4/3
f 91/4/3 90/4/3 89/4/3
f 92/4/3 90/4/3 91/4/3
f 95/4/3 94/4/3 93/4/3
f 96/4/3 94/4/3 95/4/3
f 97/2/4 98/2/4 99/2/4
f 99/2/4 98/2/4 100/2/4
f 101/2/4 102/2/4 103/2/4
f 103/2/4 102/2/4 104/2/4
f 105/2/4 106/2/4 107/2/4
f 107/2/4 106/2/4 108/2/4
f 111/2/4 112/2/4 114/2/4
f 112/4/4 113/4/4 115/4/4
f 114/2/4 112/2/4 115/2/4
f 115/4/4 113/4/4 116/4/4
f 109/2/4 110/2/4 117/2/4
f 117/2/4 110/2/4 118/2/4
f 122/2/5 120/2/5 119/2/5
f 123/2/5 120/2/5 122/2/5
f 126/2/5 122/2/5 121/2/5
f 126/2/5 124/2/5 123/2/5
f 126/2/5 123/2/5 122/2/5
f 127/2/5 124/2/5 126/2/5
f 129/2/5 126/2/5 125/2/5
f 129/2/5 128/2/5 127/2/5
f 129/2/5 127/2/5 126/2/5
f 130/2/5 128/2/5 129/2/5
f 131/2/5 128/2/5 130/2/5
f 132/2/5 128/2/5 131/2/5
f 133/2/5 131/2/5 130/2/5
f 134/2/5 131/2/5 133/2/5
f 137/2/5 136/2/5 135/2/5
f 138/2/5 136/2/5 137/2/5
f 139/4/6 140/4/6 141/4/6
f 141/4/6 140/4/6 142/4/6
f 143/2/6 144/2/6 146/2/6
f 146/2/6 144/2/6 147/2/6
f 145/2/6 146/2/6 149/2/6
f 147/2/6 148/2/6 149/2/6
f 146/2/6 147/2/6 149/2/6
f 149/2/6 148/2/6 150/2/6
f 150/2/6 148/2/6 151/2/6
f 151/2/6 148/2/6 152/2/6
f 152/2/6 148/2/6 153/2/6
f 145/2/6 149/2/6 154/2/6
f 149/3/6 150/3/6 154/3/6
f 150/1/6 151/1/6 155/1/6
f 154/3/6 150/3/6 155/3/6
f 151/2/6 152/2/6 156/2/6
f 155/1/6 151/1/6 156/1/6
f 152/3/6 153/3/6 157/3/6
f 157/3/6 153/3/6 158/3/6
f 145/2/6 154/2/6 159/2/6
f 154/1/6 155/1/6 159/1/6
f 155/3/6 156/3/6 160/3/6
f 159/1/6 155/1/6 160/1/6
f 156/2/6 152/2/6 161/2/6
f 160/3/6 156/3/6 161/3/6
f 157/5/6 158/5/6 162/5/6
f 152/3/6 157/3/6 162/3/6
f 158/3/6 153/3/6 163/3/6
f 162/5/6 158/5/6 163/5/6
f 159/3/6 160/3/6 164/3/6
f 145/2/6 159/2/6 164/2/6
f 160/1/6 161/1/6 165/1/6
f 164/3/6 160/3/6 165/3/6
f 161/2/6 152/2/6 166/2/6
f 165/1/6 161/1/6 166/1/6
f 152/3/6 162/3/6 167/3/6
f 166/2/6 152/2/6 167/2/6
f 162/3/6 163/3/6 167/3/6
f 153/2/6 148/2/6 168/2/6
f 167/3/6 163/3/6 168/3/6
f 163/3/6 153/3/6 168/3/6
f 166/2/6 167/2/6 169/2/6
f 145/2/6 164/2/6 169/2/6
f 167/2/6 168/2/6 169/2/6
f 164/2/6 165/2/6 169/2/6
f 165/2/6 166/2/6 169/2/6
f 168/2/6 148/2/6 170/2/6
f 169/2/6 168/2/6 170/2/6
f 145/2/6 169/2/6 171/2/6
f 170/2/6 148/2/6 172/2/6
f 145/2/6 171/2/6 173/2/6
f 173/2/6 171/2/6 174/2/6
f 174/2/6 171/2/6 175/2/6
f 172/2/6 148/2/6 176/2/6
f 176/2/6 148/2/6 177/2/6
f 177/2/6 148/2/6 178/2/6
f 174/2/6 175/2/6 179/2/6
f 176/2/6 177/2/6 179/2/6
f 175/2/6 176/2/6 179/2/6
f 179/2/6 177/2/6 180/2/6
f 181/4/6 182/4/6 183/4/6
f 183/4/6 182/4/6 184/4/6
f 185/4/6 186/4/6 187/4/6
f 187/4/6 186/4/6 188/4/6
f 189/4/6 190/4/6 191/4/6
f 191/4/6 190/4/6 192/4/6
