# MagicaVoxel @ Ephtracy

# group
o 

# material
mtllib Office_Misc_TV_Wall_01.mtl
usemtl palette

# normals
vn -1 0 0
vn 1 0 0
vn 0 0 1
vn 0 0 -1
vn 0 -1 0
vn 0 1 0

# texcoords
vt 0.759766 0.5
vt 0.763672 0.5
vt 0.771484 0.5
vt 0.775391 0.5
vt 0.779297 0.5

# verts
v -1.1 0.2 -0.5
v -1.1 0.2 -0.6
v -1.1 0.3 -0.5
v -1.1 0.3 -0.6
v -1.1 1.3 -0.5
v -1.1 1.3 -0.6
v -1.1 1.4 -0.5
v -1.1 1.4 -0.6
v -1 0.3 -0.6
v -1 0.3 -0.7
v -1 0.4 -0.6
v -1 0.4 -0.7
v -1 1.2 -0.6
v -1 1.2 -0.7
v -1 1.3 -0.6
v -1 1.3 -0.7
v -0.2 0.6 -0.7
v -0.2 0.6 -0.8
v -0.2 1 -0.7
v -0.2 1 -0.8
v -0.1 0.5 -0.7
v -0.1 0.5 -0.8
v -0.1 0.6 -0.7
v -0.1 0.6 -0.8
v -0.1 1 -0.7
v -0.1 1 -0.8
v -0.1 1.1 -0.7
v -0.1 1.1 -0.8
v 0.1 0.6 -0.7
v 0.1 0.6 -0.8
v 0.1 1 -0.7
v 0.1 1 -0.8
v -0.1 0.6 -0.7
v -0.1 0.6 -0.8
v -0.1 1 -0.7
v -0.1 1 -0.8
v 0.1 0.5 -0.7
v 0.1 0.5 -0.8
v 0.1 0.6 -0.7
v 0.1 0.6 -0.8
v 0.1 1 -0.7
v 0.1 1 -0.8
v 0.1 1.1 -0.7
v 0.1 1.1 -0.8
v 0.2 0.6 -0.7
v 0.2 0.6 -0.8
v 0.2 1 -0.7
v 0.2 1 -0.8
v 1 0.3 -0.6
v 1 0.3 -0.7
v 1 0.4 -0.6
v 1 0.4 -0.7
v 1 1.2 -0.6
v 1 1.2 -0.7
v 1 1.3 -0.6
v 1 1.3 -0.7
v 1.1 0.2 -0.5
v 1.1 0.2 -0.6
v 1.1 0.3 -0.5
v 1.1 0.3 -0.6
v 1.1 1.3 -0.5
v 1.1 1.3 -0.6
v 1.1 1.4 -0.5
v 1.1 1.4 -0.6
v -1.1 0.2 -0.5
v -1.1 0.3 -0.5
v -1.1 1.3 -0.5
v -1.1 1.4 -0.5
v -1 0.2 -0.5
v -1 0.3 -0.5
v -1 1.3 -0.5
v -1 1.4 -0.5
v -0.9 0.5 -0.5
v -0.9 0.6 -0.5
v -0.8 0.4 -0.5
v -0.8 0.5 -0.5
v -0.8 0.6 -0.5
v -0.7 0.4 -0.5
v -0.7 0.5 -0.5
v 0.7 1.1 -0.5
v 0.7 1.2 -0.5
v 0.8 1 -0.5
v 0.8 1.1 -0.5
v 0.8 1.2 -0.5
v 0.9 1 -0.5
v 0.9 1.1 -0.5
v 1 0.2 -0.5
v 1 0.3 -0.5
v 1 1.3 -0.5
v 1 1.4 -0.5
v 1.1 0.2 -0.5
v 1.1 0.3 -0.5
v 1.1 1.3 -0.5
v 1.1 1.4 -0.5
v -1.1 0.2 -0.6
v -1.1 0.3 -0.6
v -1.1 1.3 -0.6
v -1.1 1.4 -0.6
v -1 0.2 -0.6
v -1 0.3 -0.6
v -1 0.4 -0.6
v -1 1.2 -0.6
v -1 1.3 -0.6
v -1 1.4 -0.6
v -0.9 0.3 -0.6
v -0.9 1.3 -0.6
v 0.9 0.3 -0.6
v 0.9 1.3 -0.6
v 1 0.2 -0.6
v 1 0.3 -0.6
v 1 0.4 -0.6
v 1 1.2 -0.6
v 1 1.3 -0.6
v 1 1.4 -0.6
v 1.1 0.2 -0.6
v 1.1 0.3 -0.6
v 1.1 1.3 -0.6
v 1.1 1.4 -0.6
v -1 0.3 -0.7
v -1 0.4 -0.7
v -1 1.2 -0.7
v -1 1.3 -0.7
v -0.9 0.3 -0.7
v -0.9 0.4 -0.7
v -0.9 1.2 -0.7
v -0.9 1.3 -0.7
v -0.2 0.6 -0.7
v -0.2 1 -0.7
v -0.1 0.5 -0.7
v -0.1 0.6 -0.7
v -0.1 1 -0.7
v -0.1 1.1 -0.7
v 0.1 0.5 -0.7
v 0.1 0.6 -0.7
v 0.1 1 -0.7
v 0.1 1.1 -0.7
v 0.2 0.6 -0.7
v 0.2 1 -0.7
v 0.9 0.3 -0.7
v 0.9 0.4 -0.7
v 0.9 1.2 -0.7
v 0.9 1.3 -0.7
v 1 0.3 -0.7
v 1 0.4 -0.7
v 1 1.2 -0.7
v 1 1.3 -0.7
v -0.2 0.6 -0.8
v -0.2 1 -0.8
v -0.1 0.5 -0.8
v -0.1 0.6 -0.8
v -0.1 1 -0.8
v -0.1 1.1 -0.8
v 0.1 0.5 -0.8
v 0.1 0.6 -0.8
v 0.1 1 -0.8
v 0.1 1.1 -0.8
v 0.2 0.6 -0.8
v 0.2 1 -0.8
v -1.1 0.2 -0.5
v -1 0.2 -0.5
v 1 0.2 -0.5
v 1.1 0.2 -0.5
v -1.1 0.2 -0.6
v -1 0.2 -0.6
v 1 0.2 -0.6
v 1.1 0.2 -0.6
v -1 0.3 -0.6
v -0.9 0.3 -0.6
v 0.9 0.3 -0.6
v 1 0.3 -0.6
v -1 0.3 -0.7
v -0.9 0.3 -0.7
v 0.9 0.3 -0.7
v 1 0.3 -0.7
v -0.1 0.5 -0.7
v 0.1 0.5 -0.7
v -0.1 0.5 -0.8
v 0.1 0.5 -0.8
v -0.2 0.6 -0.7
v -0.1 0.6 -0.7
v 0.1 0.6 -0.7
v 0.2 0.6 -0.7
v -0.2 0.6 -0.8
v -0.1 0.6 -0.8
v 0.1 0.6 -0.8
v 0.2 0.6 -0.8
v -0.1 1 -0.7
v 0.1 1 -0.7
v -0.1 1 -0.8
v 0.1 1 -0.8
v -0.1 0.6 -0.7
v 0.1 0.6 -0.7
v -0.1 0.6 -0.8
v 0.1 0.6 -0.8
v -0.2 1 -0.7
v -0.1 1 -0.7
v 0.1 1 -0.7
v 0.2 1 -0.7
v -0.2 1 -0.8
v -0.1 1 -0.8
v 0.1 1 -0.8
v 0.2 1 -0.8
v -0.1 1.1 -0.7
v 0.1 1.1 -0.7
v -0.1 1.1 -0.8
v 0.1 1.1 -0.8
v -1 1.3 -0.6
v -0.9 1.3 -0.6
v 0.9 1.3 -0.6
v 1 1.3 -0.6
v -1 1.3 -0.7
v -0.9 1.3 -0.7
v 0.9 1.3 -0.7
v 1 1.3 -0.7
v -1.1 1.4 -0.5
v -1 1.4 -0.5
v 1 1.4 -0.5
v 1.1 1.4 -0.5
v -1.1 1.4 -0.6
v -1 1.4 -0.6
v 1 1.4 -0.6
v 1.1 1.4 -0.6

# faces
f 3/4/1 2/4/1 1/4/1
f 4/4/1 2/4/1 3/4/1
f 5/3/1 4/3/1 3/3/1
f 6/3/1 4/3/1 5/3/1
f 7/4/1 6/4/1 5/4/1
f 8/4/1 6/4/1 7/4/1
f 11/4/1 10/4/1 9/4/1
f 12/4/1 10/4/1 11/4/1
f 13/3/1 12/3/1 11/3/1
f 14/3/1 12/3/1 13/3/1
f 15/4/1 14/4/1 13/4/1
f 16/4/1 14/4/1 15/4/1
f 19/3/1 18/3/1 17/3/1
f 20/3/1 18/3/1 19/3/1
f 23/3/1 22/3/1 21/3/1
f 24/3/1 22/3/1 23/3/1
f 27/3/1 26/3/1 25/3/1
f 28/3/1 26/3/1 27/3/1
f 31/3/1 30/3/1 29/3/1
f 32/3/1 30/3/1 31/3/1
f 33/3/2 34/3/2 35/3/2
f 35/3/2 34/3/2 36/3/2
f 37/3/2 38/3/2 39/3/2
f 39/3/2 38/3/2 40/3/2
f 41/3/2 42/3/2 43/3/2
f 43/3/2 42/3/2 44/3/2
f 45/3/2 46/3/2 47/3/2
f 47/3/2 46/3/2 48/3/2
f 49/4/2 50/4/2 51/4/2
f 51/4/2 50/4/2 52/4/2
f 51/3/2 52/3/2 53/3/2
f 53/3/2 52/3/2 54/3/2
f 53/4/2 54/4/2 55/4/2
f 55/4/2 54/4/2 56/4/2
f 57/4/2 58/4/2 59/4/2
f 59/4/2 58/4/2 60/4/2
f 59/3/2 60/3/2 61/3/2
f 61/3/2 60/3/2 62/3/2
f 61/4/2 62/4/2 63/4/2
f 63/4/2 62/4/2 64/4/2
f 69/4/3 66/4/3 65/4/3
f 70/3/3 67/3/3 66/3/3
f 70/4/3 66/4/3 69/4/3
f 71/4/3 68/4/3 67/4/3
f 71/3/3 67/3/3 70/3/3
f 72/4/3 68/4/3 71/4/3
f 73/5/3 71/5/3 70/5/3
f 74/5/3 71/5/3 73/5/3
f 75/5/3 73/5/3 70/5/3
f 76/1/3 74/1/3 73/1/3
f 76/5/3 73/5/3 75/5/3
f 77/5/3 71/5/3 74/5/3
f 77/1/3 74/1/3 76/1/3
f 78/2/3 76/2/3 75/2/3
f 78/5/3 75/5/3 70/5/3
f 79/5/3 77/5/3 76/5/3
f 79/2/3 76/2/3 78/2/3
f 80/5/3 71/5/3 77/5/3
f 80/5/3 77/5/3 79/5/3
f 80/5/3 79/5/3 78/5/3
f 81/5/3 71/5/3 80/5/3
f 82/5/3 80/5/3 78/5/3
f 83/1/3 81/1/3 80/1/3
f 83/5/3 80/5/3 82/5/3
f 84/5/3 71/5/3 81/5/3
f 84/1/3 81/1/3 83/1/3
f 85/2/3 83/2/3 82/2/3
f 85/5/3 82/5/3 78/5/3
f 86/5/3 84/5/3 83/5/3
f 86/2/3 83/2/3 85/2/3
f 87/3/3 70/3/3 69/3/3
f 88/5/3 78/5/3 70/5/3
f 88/3/3 70/3/3 87/3/3
f 88/5/3 85/5/3 78/5/3
f 88/5/3 86/5/3 85/5/3
f 89/5/3 84/5/3 86/5/3
f 89/5/3 86/5/3 88/5/3
f 89/3/3 72/3/3 71/3/3
f 89/5/3 71/5/3 84/5/3
f 90/3/3 72/3/3 89/3/3
f 91/4/3 88/4/3 87/4/3
f 92/3/3 89/3/3 88/3/3
f 92/4/3 88/4/3 91/4/3
f 93/4/3 90/4/3 89/4/3
f 93/3/3 89/3/3 92/3/3
f 94/4/3 90/4/3 93/4/3
f 95/4/4 96/4/4 99/4/4
f 96/3/4 97/3/4 100/3/4
f 99/4/4 96/4/4 100/4/4
f 100/3/4 97/3/4 101/3/4
f 101/3/4 97/3/4 102/3/4
f 97/4/4 98/4/4 103/4/4
f 102/3/4 97/3/4 103/3/4
f 103/4/4 98/4/4 104/4/4
f 99/3/4 100/3/4 105/3/4
f 103/3/4 104/3/4 106/3/4
f 99/3/4 105/3/4 107/3/4
f 106/3/4 104/3/4 108/3/4
f 99/3/4 107/3/4 109/3/4
f 109/3/4 107/3/4 110/3/4
f 108/3/4 104/3/4 113/3/4
f 113/3/4 104/3/4 114/3/4
f 109/4/4 110/4/4 115/4/4
f 111/3/4 112/3/4 116/3/4
f 115/4/4 110/4/4 116/4/4
f 110/3/4 111/3/4 116/3/4
f 112/3/4 113/3/4 116/3/4
f 113/4/4 114/4/4 117/4/4
f 116/3/4 113/3/4 117/3/4
f 117/4/4 114/4/4 118/4/4
f 119/4/4 120/4/4 123/4/4
f 120/3/4 121/3/4 124/3/4
f 123/4/4 120/4/4 124/4/4
f 121/4/4 122/4/4 125/4/4
f 124/3/4 121/3/4 125/3/4
f 125/4/4 122/4/4 126/4/4
f 123/3/4 124/3/4 127/3/4
f 124/3/4 125/3/4 127/3/4
f 125/3/4 126/3/4 127/3/4
f 127/3/4 126/3/4 128/3/4
f 123/3/4 127/3/4 129/3/4
f 129/3/4 127/3/4 130/3/4
f 128/3/4 126/3/4 131/3/4
f 131/3/4 126/3/4 132/3/4
f 123/3/4 129/3/4 133/3/4
f 130/3/4 131/3/4 134/3/4
f 134/3/4 131/3/4 135/3/4
f 132/3/4 126/3/4 136/3/4
f 133/3/4 134/3/4 137/3/4
f 135/3/4 136/3/4 138/3/4
f 133/3/4 137/3/4 139/3/4
f 137/3/4 138/3/4 139/3/4
f 123/3/4 133/3/4 139/3/4
f 139/3/4 138/3/4 140/3/4
f 138/3/4 136/3/4 141/3/4
f 140/3/4 138/3/4 141/3/4
f 136/3/4 126/3/4 141/3/4
f 141/3/4 126/3/4 142/3/4
f 139/4/4 140/4/4 143/4/4
f 140/3/4 141/3/4 144/3/4
f 143/4/4 140/4/4 144/4/4
f 141/4/4 142/4/4 145/4/4
f 144/3/4 141/3/4 145/3/4
f 145/4/4 142/4/4 146/4/4
f 147/3/4 148/3/4 150/3/4
f 150/3/4 148/3/4 151/3/4
f 149/3/4 150/3/4 153/3/4
f 153/3/4 150/3/4 154/3/4
f 151/3/4 152/3/4 155/3/4
f 155/3/4 152/3/4 156/3/4
f 154/3/4 155/3/4 157/3/4
f 157/3/4 155/3/4 158/3/4
f 163/4/5 160/4/5 159/4/5
f 164/3/5 161/3/5 160/3/5
f 164/4/5 160/4/5 163/4/5
f 165/4/5 162/4/5 161/4/5
f 165/3/5 161/3/5 164/3/5
f 166/4/5 162/4/5 165/4/5
f 171/4/5 168/4/5 167/4/5
f 172/3/5 169/3/5 168/3/5
f 172/4/5 168/4/5 171/4/5
f 173/4/5 170/4/5 169/4/5
f 173/3/5 169/3/5 172/3/5
f 174/4/5 170/4/5 173/4/5
f 177/3/5 176/3/5 175/3/5
f 178/3/5 176/3/5 177/3/5
f 183/3/5 180/3/5 179/3/5
f 184/3/5 180/3/5 183/3/5
f 185/3/5 182/3/5 181/3/5
f 186/3/5 182/3/5 185/3/5
f 189/3/5 188/3/5 187/3/5
f 190/3/5 188/3/5 189/3/5
f 191/3/6 192/3/6 193/3/6
f 193/3/6 192/3/6 194/3/6
f 195/3/6 196/3/6 199/3/6
f 199/3/6 196/3/6 200/3/6
f 197/3/6 198/3/6 201/3/6
f 201/3/6 198/3/6 202/3/6
f 203/3/6 204/3/6 205/3/6
f 205/3/6 204/3/6 206/3/6
f 207/4/6 208/4/6 211/4/6
f 208/3/6 209/3/6 212/3/6
f 211/4/6 208/4/6 212/4/6
f 209/4/6 210/4/6 213/4/6
f 212/3/6 209/3/6 213/3/6
f 213/4/6 210/4/6 214/4/6
f 215/4/6 216/4/6 219/4/6
f 216/3/6 217/3/6 220/3/6
f 219/4/6 216/4/6 220/4/6
f 217/4/6 218/4/6 221/4/6
f 220/3/6 217/3/6 221/3/6
f 221/4/6 218/4/6 222/4/6
